%TF.GenerationSoftware,KiCad,Pcbnew,8.0.4*%
%TF.CreationDate,2024-07-26T12:29:51+01:00*%
%TF.ProjectId,beeb_wifiport,62656562-5f77-4696-9669-706f72742e6b,rev?*%
%TF.SameCoordinates,Original*%
%TF.FileFunction,Copper,L2,Bot*%
%TF.FilePolarity,Positive*%
%FSLAX46Y46*%
G04 Gerber Fmt 4.6, Leading zero omitted, Abs format (unit mm)*
G04 Created by KiCad (PCBNEW 8.0.4) date 2024-07-26 12:29:51*
%MOMM*%
%LPD*%
G01*
G04 APERTURE LIST*
G04 Aperture macros list*
%AMRoundRect*
0 Rectangle with rounded corners*
0 $1 Rounding radius*
0 $2 $3 $4 $5 $6 $7 $8 $9 X,Y pos of 4 corners*
0 Add a 4 corners polygon primitive as box body*
4,1,4,$2,$3,$4,$5,$6,$7,$8,$9,$2,$3,0*
0 Add four circle primitives for the rounded corners*
1,1,$1+$1,$2,$3*
1,1,$1+$1,$4,$5*
1,1,$1+$1,$6,$7*
1,1,$1+$1,$8,$9*
0 Add four rect primitives between the rounded corners*
20,1,$1+$1,$2,$3,$4,$5,0*
20,1,$1+$1,$4,$5,$6,$7,0*
20,1,$1+$1,$6,$7,$8,$9,0*
20,1,$1+$1,$8,$9,$2,$3,0*%
G04 Aperture macros list end*
%TA.AperFunction,ComponentPad*%
%ADD10O,2.100000X1.000000*%
%TD*%
%TA.AperFunction,ComponentPad*%
%ADD11O,1.800000X1.000000*%
%TD*%
%TA.AperFunction,ComponentPad*%
%ADD12R,1.700000X1.700000*%
%TD*%
%TA.AperFunction,ComponentPad*%
%ADD13O,1.700000X1.700000*%
%TD*%
%TA.AperFunction,SMDPad,CuDef*%
%ADD14RoundRect,0.250000X-0.275000X0.450000X-0.275000X-0.450000X0.275000X-0.450000X0.275000X0.450000X0*%
%TD*%
%TA.AperFunction,SMDPad,CuDef*%
%ADD15R,1.100000X0.850000*%
%TD*%
%TA.AperFunction,SMDPad,CuDef*%
%ADD16R,1.100000X0.750000*%
%TD*%
%TA.AperFunction,SMDPad,CuDef*%
%ADD17R,1.000000X1.200000*%
%TD*%
%TA.AperFunction,SMDPad,CuDef*%
%ADD18R,1.350000X1.550000*%
%TD*%
%TA.AperFunction,SMDPad,CuDef*%
%ADD19R,1.350000X1.900000*%
%TD*%
%TA.AperFunction,SMDPad,CuDef*%
%ADD20R,1.800000X1.170000*%
%TD*%
%TA.AperFunction,ViaPad*%
%ADD21C,0.600000*%
%TD*%
%TA.AperFunction,Conductor*%
%ADD22C,0.152400*%
%TD*%
%TA.AperFunction,Conductor*%
%ADD23C,0.127000*%
%TD*%
G04 APERTURE END LIST*
D10*
%TO.P,J2,S1,SHIELD*%
%TO.N,GND*%
X142792496Y-92503818D03*
D11*
X138612496Y-92503818D03*
D10*
X142792496Y-101143818D03*
D11*
X138612496Y-101143818D03*
%TD*%
D12*
%TO.P,J1,1,Pin_1*%
%TO.N,+5V_BBC*%
X138550000Y-109960000D03*
D13*
%TO.P,J1,2,Pin_2*%
%TO.N,unconnected-(J1-Pin_2-Pad2)*%
X138550000Y-112500000D03*
%TO.P,J1,3,Pin_3*%
%TO.N,+5V_BBC*%
X141090000Y-109960000D03*
%TO.P,J1,4,Pin_4*%
%TO.N,unconnected-(J1-Pin_4-Pad4)*%
X141090000Y-112500000D03*
%TO.P,J1,5,Pin_5*%
%TO.N,GND*%
X143630000Y-109960000D03*
%TO.P,J1,6,Pin_6*%
%TO.N,Net-(J1-Pin_6)*%
X143630000Y-112500000D03*
%TO.P,J1,7,Pin_7*%
%TO.N,GND*%
X146170000Y-109960000D03*
%TO.P,J1,8,Pin_8*%
%TO.N,Net-(J1-Pin_8)*%
X146170000Y-112500000D03*
%TO.P,J1,9,Pin_9*%
%TO.N,GND*%
X148710000Y-109960000D03*
%TO.P,J1,10,Pin_10*%
%TO.N,unconnected-(J1-Pin_10-Pad10)*%
X148710000Y-112500000D03*
%TO.P,J1,11,Pin_11*%
%TO.N,GND*%
X151250000Y-109960000D03*
%TO.P,J1,12,Pin_12*%
%TO.N,unconnected-(J1-Pin_12-Pad12)*%
X151250000Y-112500000D03*
%TO.P,J1,13,Pin_13*%
%TO.N,GND*%
X153790000Y-109960000D03*
%TO.P,J1,14,Pin_14*%
%TO.N,unconnected-(J1-Pin_14-Pad14)*%
X153790000Y-112500000D03*
%TO.P,J1,15,Pin_15*%
%TO.N,GND*%
X156330000Y-109960000D03*
%TO.P,J1,16,Pin_16*%
%TO.N,unconnected-(J1-Pin_16-Pad16)*%
X156330000Y-112500000D03*
%TO.P,J1,17,Pin_17*%
%TO.N,GND*%
X158870000Y-109960000D03*
%TO.P,J1,18,Pin_18*%
%TO.N,Net-(J1-Pin_18)*%
X158870000Y-112500000D03*
%TO.P,J1,19,Pin_19*%
%TO.N,GND*%
X161410000Y-109960000D03*
%TO.P,J1,20,Pin_20*%
%TO.N,Net-(J1-Pin_20)*%
X161410000Y-112500000D03*
%TD*%
D14*
%TO.P,SW1,1,1*%
%TO.N,/RESET*%
X161530000Y-92500000D03*
X161530000Y-96100000D03*
%TO.P,SW1,2,2*%
%TO.N,GND*%
X162970000Y-92500000D03*
X162970000Y-96100000D03*
%TD*%
D15*
%TO.P,J3,1,DAT2*%
%TO.N,/SD_D2*%
X140300000Y-96395000D03*
%TO.P,J3,2,DAT3/CD*%
%TO.N,/SD_D3*%
X140300000Y-97495000D03*
%TO.P,J3,3,CMD*%
%TO.N,/SD_CMD*%
X140300000Y-98595000D03*
%TO.P,J3,4,VDD*%
%TO.N,+3.3V*%
X140300000Y-99695000D03*
%TO.P,J3,5,CLK*%
%TO.N,/SD_CLK*%
X140300000Y-100795000D03*
%TO.P,J3,6,VSS*%
%TO.N,GND*%
X140300000Y-101895000D03*
%TO.P,J3,7,DAT0*%
%TO.N,/SD_D0*%
X140300000Y-102995000D03*
D16*
%TO.P,J3,8,DAT1*%
%TO.N,/SD_D1*%
X140300000Y-104045000D03*
D17*
%TO.P,J3,9,DET_B*%
%TO.N,GND*%
X146450000Y-93760000D03*
%TO.P,J3,10,DET_A*%
%TO.N,/SD_DET*%
X150150000Y-93760000D03*
D18*
%TO.P,J3,11,SHIELD*%
%TO.N,GND*%
X140425000Y-93935000D03*
D19*
X151125000Y-97260000D03*
X151125000Y-103230000D03*
D20*
X140650000Y-105255000D03*
%TD*%
D14*
%TO.P,SW2,1,1*%
%TO.N,/BOOT*%
X161530000Y-98100000D03*
X161530000Y-101700000D03*
%TO.P,SW2,2,2*%
%TO.N,GND*%
X162970000Y-98100000D03*
X162970000Y-101700000D03*
%TD*%
D21*
%TO.N,GND*%
X149650000Y-105400000D03*
X158300000Y-93300000D03*
X154900000Y-99300000D03*
X153200000Y-93300000D03*
X161850000Y-105400000D03*
X157400000Y-98450000D03*
X147800000Y-92300000D03*
X154900000Y-97650000D03*
X147150000Y-98050000D03*
X151500000Y-93300000D03*
X158200000Y-95049997D03*
X155750000Y-100150000D03*
X154100000Y-98450000D03*
X154900000Y-93300000D03*
X156550000Y-97650000D03*
X142900000Y-103500000D03*
X155750000Y-98450000D03*
X138680000Y-107906542D03*
X154100000Y-100150000D03*
X160000000Y-93300000D03*
X154900000Y-100950000D03*
X156550000Y-99350000D03*
X156600000Y-93300000D03*
X157400000Y-100150000D03*
X156550000Y-100950000D03*
%TO.N,+3.3V*%
X149800004Y-100763500D03*
X147100000Y-105800006D03*
X144700000Y-107000008D03*
X139200000Y-99700000D03*
%TO.N,/RESET*%
X137700000Y-107906542D03*
X151250000Y-94300000D03*
X161530000Y-94299996D03*
%TO.N,/USB_D+*%
X144448757Y-95674703D03*
X156550000Y-102900000D03*
%TO.N,/USB_D-*%
X142300000Y-95700000D03*
X155750000Y-102900000D03*
%TO.N,/SD_CMD*%
X159600000Y-104999480D03*
X141300000Y-98595000D03*
%TO.N,/SD_D2*%
X137333400Y-102375000D03*
X157350000Y-102900000D03*
%TO.N,/SD_D3*%
X160400000Y-105000000D03*
X141300006Y-97495000D03*
%TO.N,/SD_D0*%
X141300006Y-102700000D03*
X158000000Y-105002323D03*
%TO.N,/SD_DET*%
X150650000Y-95300000D03*
%TO.N,/SD_D1*%
X141299986Y-103600000D03*
X157199996Y-104999996D03*
%TO.N,/SD_CLK*%
X158800000Y-105000000D03*
%TO.N,/BOOT*%
X161530000Y-99900000D03*
%TO.N,+5V_BBC*%
X141800000Y-107900000D03*
X144375000Y-103125000D03*
%TD*%
D22*
%TO.N,GND*%
X152600000Y-97000000D02*
X152340000Y-97260000D01*
X151125000Y-104525000D02*
X151125000Y-103230000D01*
X140425000Y-93935000D02*
X140425000Y-92528818D01*
X138680000Y-107900000D02*
X138680000Y-107920000D01*
X136576200Y-94540114D02*
X136576200Y-111126200D01*
X140650000Y-105255000D02*
X141645000Y-105255000D01*
D23*
X158200000Y-95049997D02*
X157500003Y-95049997D01*
D22*
X150176346Y-105473654D02*
X151125000Y-104525000D01*
X151125000Y-97260000D02*
X154510000Y-97260000D01*
X141645000Y-105255000D02*
X142900000Y-104000000D01*
X149576346Y-105473654D02*
X150176346Y-105473654D01*
X154510000Y-97260000D02*
X154900000Y-97650000D01*
X136576200Y-109673800D02*
X136576200Y-109976200D01*
X138612496Y-92503818D02*
X140450000Y-92503818D01*
D23*
X140300000Y-101895000D02*
X139363678Y-101895000D01*
D22*
X136576200Y-111126200D02*
X136700000Y-111250000D01*
X149576346Y-105473654D02*
X151250000Y-107147308D01*
X147596182Y-92503818D02*
X147800000Y-92300000D01*
D23*
X162970000Y-101700000D02*
X162970000Y-102730000D01*
D22*
X146170000Y-109960000D02*
X161410000Y-109960000D01*
D23*
X162970000Y-96100000D02*
X162970000Y-101700000D01*
X142792496Y-101792496D02*
X142792496Y-101143818D01*
D22*
X146450000Y-92803818D02*
X146750000Y-92503818D01*
X142900000Y-104000000D02*
X142900000Y-103500000D01*
D23*
X157500003Y-95049997D02*
X154900000Y-97650000D01*
D22*
X138612496Y-92503818D02*
X136576200Y-94540114D01*
X142340000Y-111250000D02*
X143630000Y-109960000D01*
D23*
X142689992Y-101895000D02*
X142792496Y-101792496D01*
D22*
X138000000Y-108600000D02*
X137650000Y-108600000D01*
D23*
X160550000Y-103300000D02*
X154900000Y-97650000D01*
X140300000Y-101895000D02*
X142689992Y-101895000D01*
D22*
X146170000Y-109960000D02*
X143630000Y-109960000D01*
D23*
X162400000Y-103300000D02*
X160550000Y-103300000D01*
D22*
X150500000Y-92300000D02*
X152600000Y-94400000D01*
X140425000Y-92528818D02*
X140450000Y-92503818D01*
X152600000Y-94400000D02*
X152600000Y-97000000D01*
X146750000Y-92503818D02*
X147596182Y-92503818D01*
X151250000Y-107147308D02*
X151250000Y-109960000D01*
X147150000Y-98050000D02*
X147940000Y-97260000D01*
X146450000Y-93760000D02*
X146450000Y-92803818D01*
X147800000Y-92300000D02*
X150500000Y-92300000D01*
D23*
X162970000Y-102730000D02*
X162400000Y-103300000D01*
D22*
X142792496Y-92503818D02*
X147596182Y-92503818D01*
X137650000Y-108600000D02*
X136576200Y-109673800D01*
X136700000Y-111250000D02*
X142340000Y-111250000D01*
X147940000Y-97260000D02*
X151125000Y-97260000D01*
X138680000Y-107920000D02*
X138000000Y-108600000D01*
X140450000Y-92503818D02*
X142792496Y-92503818D01*
X152340000Y-97260000D02*
X151125000Y-97260000D01*
D23*
X139363678Y-101895000D02*
X138612496Y-101143818D01*
X162970000Y-92500000D02*
X162970000Y-96100000D01*
D22*
%TO.N,+3.3V*%
X144200000Y-100400000D02*
X149436504Y-100400000D01*
X142700000Y-98900000D02*
X144200000Y-100400000D01*
X145900002Y-105800006D02*
X147100000Y-105800006D01*
X141990000Y-98900000D02*
X142700000Y-98900000D01*
X140295000Y-99700000D02*
X140300000Y-99695000D01*
X140300000Y-99695000D02*
X141195000Y-99695000D01*
X139200000Y-99700000D02*
X140295000Y-99700000D01*
X141195000Y-99695000D02*
X141990000Y-98900000D01*
X144700000Y-107000008D02*
X145900002Y-105800006D01*
X149436504Y-100400000D02*
X149800004Y-100763500D01*
D23*
%TO.N,/RESET*%
X140339000Y-95000000D02*
X136842900Y-98496100D01*
X136842900Y-98496100D02*
X136842900Y-107049442D01*
X151250000Y-95740500D02*
X151140500Y-95850000D01*
X161530000Y-96100000D02*
X161530000Y-94299996D01*
X161530000Y-92500000D02*
X161530000Y-94299996D01*
X150400000Y-95850000D02*
X149550000Y-95000000D01*
X149550000Y-95000000D02*
X140339000Y-95000000D01*
X151140500Y-95850000D02*
X150400000Y-95850000D01*
X151250000Y-94300000D02*
X151250000Y-95740500D01*
X136842900Y-107049442D02*
X137700000Y-107906542D01*
%TO.N,/USB_D+*%
X151581770Y-99117300D02*
X144917300Y-99117300D01*
X156550000Y-102900000D02*
X156059500Y-102409500D01*
X156059500Y-102409500D02*
X154873970Y-102409500D01*
X144448757Y-98648757D02*
X144448757Y-95674703D01*
X154873970Y-102409500D02*
X151581770Y-99117300D01*
X144917300Y-99117300D02*
X144448757Y-98648757D01*
%TO.N,/USB_D-*%
X151476560Y-99371300D02*
X144771300Y-99371300D01*
X155750000Y-102900000D02*
X155005260Y-102900000D01*
X155005260Y-102900000D02*
X151476560Y-99371300D01*
X144771300Y-99371300D02*
X142300000Y-96900000D01*
X142300000Y-96900000D02*
X142300000Y-95700000D01*
%TO.N,/SD_CMD*%
X140300000Y-98595000D02*
X141300000Y-98595000D01*
X151160930Y-100133300D02*
X144333300Y-100133300D01*
X154989630Y-103962000D02*
X151160930Y-100133300D01*
X144333300Y-100133300D02*
X142795000Y-98595000D01*
X142795000Y-98595000D02*
X141300000Y-98595000D01*
X158562520Y-103962000D02*
X154989630Y-103962000D01*
X159600000Y-104999480D02*
X158562520Y-103962000D01*
%TO.N,/SD_D2*%
X137217196Y-98800804D02*
X139623000Y-96395000D01*
X156800000Y-103450000D02*
X155196050Y-103450000D01*
X139623000Y-96395000D02*
X140300000Y-96395000D01*
X141395000Y-96395000D02*
X140300000Y-96395000D01*
X157350000Y-102900000D02*
X156800000Y-103450000D01*
X155196050Y-103450000D02*
X151371350Y-99625300D01*
X137217196Y-102258796D02*
X137217196Y-98800804D01*
X137333400Y-102375000D02*
X137217196Y-102258796D01*
X151371350Y-99625300D02*
X144625300Y-99625300D01*
X144625300Y-99625300D02*
X141395000Y-96395000D01*
%TO.N,/SD_D3*%
X141454605Y-97595395D02*
X141354210Y-97495000D01*
X159104000Y-103704000D02*
X160400000Y-105000000D01*
X144479300Y-99879300D02*
X151266140Y-99879300D01*
X155090840Y-103704000D02*
X159104000Y-103704000D01*
X141354210Y-97495000D02*
X141300006Y-97495000D01*
X142095000Y-97495000D02*
X144479300Y-99879300D01*
X151266140Y-99879300D02*
X155090840Y-103704000D01*
X140300000Y-97495000D02*
X142095000Y-97495000D01*
%TO.N,/SD_D0*%
X142050000Y-102700000D02*
X141300006Y-102700000D01*
X140595000Y-102700000D02*
X140300000Y-102995000D01*
X144594790Y-101546000D02*
X151855210Y-101546000D01*
X142050000Y-102700000D02*
X143440790Y-102700000D01*
X142050000Y-102700000D02*
X140595000Y-102700000D01*
X154779210Y-104470000D02*
X157467677Y-104470000D01*
X143440790Y-102700000D02*
X144594790Y-101546000D01*
X157467677Y-104470000D02*
X158000000Y-105002323D01*
X151855210Y-101546000D02*
X154779210Y-104470000D01*
%TO.N,/SD_DET*%
X150150000Y-94800000D02*
X150150000Y-93760000D01*
X150650000Y-95300000D02*
X150150000Y-94800000D01*
%TO.N,/SD_D1*%
X141945986Y-102954000D02*
X141299986Y-103600000D01*
X156924000Y-104724000D02*
X154674000Y-104724000D01*
X140300000Y-104045000D02*
X140854986Y-104045000D01*
X157199996Y-104999996D02*
X156924000Y-104724000D01*
X143546000Y-102954000D02*
X141945986Y-102954000D01*
X154674000Y-104724000D02*
X151750000Y-101800000D01*
X140854986Y-104045000D02*
X141299986Y-103600000D01*
X151750000Y-101800000D02*
X144700000Y-101800000D01*
X144700000Y-101800000D02*
X143546000Y-102954000D01*
%TO.N,/SD_CLK*%
X140300000Y-100795000D02*
X140977000Y-100795000D01*
X141386082Y-100385918D02*
X143808748Y-100385918D01*
X151960420Y-101292000D02*
X154884420Y-104216000D01*
X143808748Y-100385918D02*
X144714830Y-101292000D01*
X154884420Y-104216000D02*
X158016000Y-104216000D01*
X144714830Y-101292000D02*
X151960420Y-101292000D01*
X158016000Y-104216000D02*
X158800000Y-105000000D01*
X140977000Y-100795000D02*
X141386082Y-100385918D01*
%TO.N,/BOOT*%
X161530000Y-99900000D02*
X161530000Y-101700000D01*
X161530000Y-98100000D02*
X161530000Y-99900000D01*
X161580000Y-101650000D02*
X161530000Y-101700000D01*
X161530000Y-98100000D02*
X161580000Y-98150000D01*
D22*
%TO.N,+5V_BBC*%
X141800000Y-109180000D02*
X141800000Y-107900000D01*
X141800000Y-105700000D02*
X141800000Y-107900000D01*
X141090000Y-109960000D02*
X141090000Y-109890000D01*
X141090000Y-109890000D02*
X141800000Y-109180000D01*
X144375000Y-103125000D02*
X141800000Y-105700000D01*
X138550000Y-109960000D02*
X141090000Y-109960000D01*
%TD*%
%TA.AperFunction,Conductor*%
%TO.N,GND*%
G36*
X160860842Y-91519685D02*
G01*
X160906597Y-91572489D01*
X160916541Y-91641647D01*
X160893069Y-91698311D01*
X160811206Y-91807664D01*
X160811202Y-91807671D01*
X160760908Y-91942517D01*
X160754501Y-92002116D01*
X160754500Y-92002135D01*
X160754500Y-92997870D01*
X160754501Y-92997876D01*
X160760908Y-93057483D01*
X160811202Y-93192328D01*
X160811206Y-93192335D01*
X160897452Y-93307544D01*
X160897455Y-93307547D01*
X161012664Y-93393793D01*
X161012673Y-93393798D01*
X161075000Y-93417044D01*
X161135332Y-93439546D01*
X161191266Y-93481416D01*
X161215684Y-93546880D01*
X161216000Y-93555728D01*
X161216000Y-93785896D01*
X161196315Y-93852935D01*
X161167487Y-93884271D01*
X161137382Y-93907371D01*
X161049137Y-94022373D01*
X160993671Y-94156283D01*
X160993670Y-94156287D01*
X160974750Y-94299995D01*
X160974750Y-94299996D01*
X160993670Y-94443704D01*
X160993671Y-94443708D01*
X161049137Y-94577618D01*
X161049138Y-94577620D01*
X161049139Y-94577621D01*
X161137379Y-94692617D01*
X161167486Y-94715719D01*
X161208689Y-94772145D01*
X161216000Y-94814094D01*
X161216000Y-95044271D01*
X161196315Y-95111310D01*
X161143511Y-95157065D01*
X161135333Y-95160453D01*
X161012671Y-95206202D01*
X161012664Y-95206206D01*
X160897455Y-95292452D01*
X160897452Y-95292455D01*
X160811206Y-95407664D01*
X160811202Y-95407671D01*
X160760908Y-95542517D01*
X160754501Y-95602116D01*
X160754500Y-95602135D01*
X160754500Y-96597870D01*
X160754501Y-96597876D01*
X160760908Y-96657483D01*
X160811202Y-96792328D01*
X160811206Y-96792335D01*
X160897452Y-96907544D01*
X160897455Y-96907547D01*
X161019769Y-96999112D01*
X161018070Y-97001381D01*
X161057264Y-97040580D01*
X161072111Y-97108854D01*
X161047690Y-97174317D01*
X161018689Y-97199445D01*
X161019769Y-97200888D01*
X160897455Y-97292452D01*
X160897452Y-97292455D01*
X160811206Y-97407664D01*
X160811202Y-97407671D01*
X160760908Y-97542517D01*
X160754501Y-97602116D01*
X160754500Y-97602135D01*
X160754500Y-98597870D01*
X160754501Y-98597876D01*
X160760908Y-98657483D01*
X160811202Y-98792328D01*
X160811206Y-98792335D01*
X160897452Y-98907544D01*
X160897455Y-98907547D01*
X161012664Y-98993793D01*
X161012673Y-98993798D01*
X161090416Y-99022793D01*
X161135332Y-99039546D01*
X161191266Y-99081416D01*
X161215684Y-99146880D01*
X161216000Y-99155728D01*
X161216000Y-99385900D01*
X161196315Y-99452939D01*
X161167487Y-99484275D01*
X161137382Y-99507375D01*
X161049137Y-99622377D01*
X160993671Y-99756287D01*
X160993670Y-99756291D01*
X160974750Y-99900000D01*
X160990772Y-100021700D01*
X160993670Y-100043708D01*
X160993671Y-100043712D01*
X161049137Y-100177622D01*
X161049138Y-100177624D01*
X161049139Y-100177625D01*
X161137379Y-100292621D01*
X161167486Y-100315723D01*
X161208689Y-100372149D01*
X161216000Y-100414098D01*
X161216000Y-100644271D01*
X161196315Y-100711310D01*
X161143511Y-100757065D01*
X161135333Y-100760453D01*
X161012671Y-100806202D01*
X161012664Y-100806206D01*
X160897455Y-100892452D01*
X160897452Y-100892455D01*
X160811206Y-101007664D01*
X160811202Y-101007671D01*
X160760908Y-101142517D01*
X160754501Y-101202116D01*
X160754500Y-101202135D01*
X160754500Y-102197870D01*
X160754501Y-102197876D01*
X160760908Y-102257483D01*
X160811202Y-102392328D01*
X160811206Y-102392335D01*
X160897452Y-102507544D01*
X160897455Y-102507547D01*
X161012664Y-102593793D01*
X161012671Y-102593797D01*
X161057618Y-102610561D01*
X161147517Y-102644091D01*
X161207127Y-102650500D01*
X161852872Y-102650499D01*
X161912483Y-102644091D01*
X162047331Y-102593796D01*
X162162546Y-102507546D01*
X162162548Y-102507542D01*
X162162676Y-102507416D01*
X162162839Y-102507326D01*
X162169645Y-102502232D01*
X162170377Y-102503210D01*
X162223999Y-102473931D01*
X162293691Y-102478915D01*
X162330291Y-102502437D01*
X162330712Y-102501875D01*
X162452906Y-102593350D01*
X162452913Y-102593354D01*
X162587620Y-102643596D01*
X162587627Y-102643598D01*
X162647155Y-102649999D01*
X162647172Y-102650000D01*
X162845000Y-102650000D01*
X162845000Y-100750000D01*
X162647155Y-100750000D01*
X162587627Y-100756401D01*
X162587620Y-100756403D01*
X162452913Y-100806645D01*
X162452906Y-100806649D01*
X162330712Y-100898125D01*
X162329893Y-100897031D01*
X162276715Y-100926069D01*
X162207023Y-100921085D01*
X162170001Y-100897291D01*
X162169645Y-100897768D01*
X162162987Y-100892784D01*
X162162676Y-100892584D01*
X162162544Y-100892452D01*
X162047335Y-100806206D01*
X162047328Y-100806202D01*
X161924667Y-100760453D01*
X161868733Y-100718582D01*
X161844316Y-100653118D01*
X161844000Y-100644271D01*
X161844000Y-100414098D01*
X161863685Y-100347059D01*
X161892511Y-100315724D01*
X161922621Y-100292621D01*
X162010861Y-100177625D01*
X162066330Y-100043709D01*
X162085250Y-99900000D01*
X162066330Y-99756291D01*
X162010861Y-99622375D01*
X161922621Y-99507379D01*
X161922618Y-99507377D01*
X161922617Y-99507375D01*
X161892513Y-99484275D01*
X161851310Y-99427847D01*
X161844000Y-99385900D01*
X161844000Y-99155728D01*
X161863685Y-99088689D01*
X161916489Y-99042934D01*
X161924660Y-99039548D01*
X162047331Y-98993796D01*
X162162546Y-98907546D01*
X162162548Y-98907542D01*
X162162676Y-98907416D01*
X162162839Y-98907326D01*
X162169645Y-98902232D01*
X162170377Y-98903210D01*
X162223999Y-98873931D01*
X162293691Y-98878915D01*
X162330291Y-98902437D01*
X162330712Y-98901875D01*
X162452906Y-98993350D01*
X162452913Y-98993354D01*
X162587620Y-99043596D01*
X162587627Y-99043598D01*
X162647155Y-99049999D01*
X162647172Y-99050000D01*
X162845000Y-99050000D01*
X162845000Y-98099000D01*
X162864685Y-98031961D01*
X162917489Y-97986206D01*
X162969000Y-97975000D01*
X162971000Y-97975000D01*
X163038039Y-97994685D01*
X163083794Y-98047489D01*
X163095000Y-98099000D01*
X163095000Y-99050000D01*
X163292828Y-99050000D01*
X163292844Y-99049999D01*
X163360087Y-99042769D01*
X163360390Y-99045592D01*
X163416738Y-99048606D01*
X163473415Y-99089465D01*
X163499005Y-99154480D01*
X163499500Y-99165548D01*
X163499500Y-100634451D01*
X163479815Y-100701490D01*
X163427011Y-100747245D01*
X163360126Y-100756862D01*
X163360087Y-100757231D01*
X163358641Y-100757075D01*
X163357853Y-100757189D01*
X163355436Y-100756730D01*
X163292844Y-100750000D01*
X163095000Y-100750000D01*
X163095000Y-102650000D01*
X163292828Y-102650000D01*
X163292844Y-102649999D01*
X163360087Y-102642769D01*
X163360390Y-102645592D01*
X163416738Y-102648606D01*
X163473415Y-102689465D01*
X163499005Y-102754480D01*
X163499500Y-102765548D01*
X163499500Y-112993038D01*
X163498720Y-113006923D01*
X163488540Y-113097264D01*
X163482362Y-113124333D01*
X163454648Y-113203537D01*
X163442600Y-113228555D01*
X163397957Y-113299604D01*
X163380644Y-113321313D01*
X163321313Y-113380644D01*
X163299604Y-113397957D01*
X163228555Y-113442600D01*
X163203537Y-113454648D01*
X163124333Y-113482362D01*
X163097264Y-113488540D01*
X163017075Y-113497576D01*
X163006921Y-113498720D01*
X162993038Y-113499500D01*
X162267210Y-113499500D01*
X162200171Y-113479815D01*
X162154416Y-113427011D01*
X162144472Y-113357853D01*
X162173497Y-113294297D01*
X162183672Y-113283863D01*
X162226762Y-113244581D01*
X162226764Y-113244579D01*
X162349673Y-113081821D01*
X162440582Y-112899250D01*
X162496397Y-112703083D01*
X162515215Y-112500000D01*
X162496397Y-112296917D01*
X162440582Y-112100750D01*
X162349673Y-111918179D01*
X162226764Y-111755421D01*
X162226762Y-111755418D01*
X162076041Y-111618019D01*
X162076039Y-111618017D01*
X161902642Y-111510655D01*
X161902635Y-111510651D01*
X161807546Y-111473814D01*
X161712456Y-111436976D01*
X161511976Y-111399500D01*
X161308024Y-111399500D01*
X161107544Y-111436976D01*
X161107541Y-111436976D01*
X161107541Y-111436977D01*
X160917364Y-111510651D01*
X160917357Y-111510655D01*
X160743960Y-111618017D01*
X160743958Y-111618019D01*
X160593237Y-111755418D01*
X160470327Y-111918178D01*
X160379422Y-112100739D01*
X160379417Y-112100752D01*
X160323602Y-112296917D01*
X160304785Y-112499999D01*
X160304785Y-112500000D01*
X160323602Y-112703082D01*
X160379417Y-112899247D01*
X160379422Y-112899260D01*
X160470327Y-113081821D01*
X160593237Y-113244581D01*
X160636328Y-113283863D01*
X160672610Y-113343574D01*
X160670849Y-113413422D01*
X160631606Y-113471229D01*
X160567339Y-113498644D01*
X160552790Y-113499500D01*
X159727210Y-113499500D01*
X159660171Y-113479815D01*
X159614416Y-113427011D01*
X159604472Y-113357853D01*
X159633497Y-113294297D01*
X159643672Y-113283863D01*
X159686762Y-113244581D01*
X159686764Y-113244579D01*
X159809673Y-113081821D01*
X159900582Y-112899250D01*
X159956397Y-112703083D01*
X159975215Y-112500000D01*
X159956397Y-112296917D01*
X159900582Y-112100750D01*
X159809673Y-111918179D01*
X159686764Y-111755421D01*
X159686762Y-111755418D01*
X159536041Y-111618019D01*
X159536039Y-111618017D01*
X159362642Y-111510655D01*
X159362635Y-111510651D01*
X159267546Y-111473814D01*
X159172456Y-111436976D01*
X158971976Y-111399500D01*
X158768024Y-111399500D01*
X158567544Y-111436976D01*
X158567541Y-111436976D01*
X158567541Y-111436977D01*
X158377364Y-111510651D01*
X158377357Y-111510655D01*
X158203960Y-111618017D01*
X158203958Y-111618019D01*
X158053237Y-111755418D01*
X157930327Y-111918178D01*
X157839422Y-112100739D01*
X157839417Y-112100752D01*
X157783602Y-112296917D01*
X157764785Y-112499999D01*
X157764785Y-112500000D01*
X157783602Y-112703082D01*
X157839417Y-112899247D01*
X157839422Y-112899260D01*
X157930327Y-113081821D01*
X158053237Y-113244581D01*
X158096328Y-113283863D01*
X158132610Y-113343574D01*
X158130849Y-113413422D01*
X158091606Y-113471229D01*
X158027339Y-113498644D01*
X158012790Y-113499500D01*
X157187210Y-113499500D01*
X157120171Y-113479815D01*
X157074416Y-113427011D01*
X157064472Y-113357853D01*
X157093497Y-113294297D01*
X157103672Y-113283863D01*
X157146762Y-113244581D01*
X157146764Y-113244579D01*
X157269673Y-113081821D01*
X157360582Y-112899250D01*
X157416397Y-112703083D01*
X157435215Y-112500000D01*
X157416397Y-112296917D01*
X157360582Y-112100750D01*
X157269673Y-111918179D01*
X157146764Y-111755421D01*
X157146762Y-111755418D01*
X156996041Y-111618019D01*
X156996039Y-111618017D01*
X156822642Y-111510655D01*
X156822635Y-111510651D01*
X156727546Y-111473814D01*
X156632456Y-111436976D01*
X156431976Y-111399500D01*
X156228024Y-111399500D01*
X156027544Y-111436976D01*
X156027541Y-111436976D01*
X156027541Y-111436977D01*
X155837364Y-111510651D01*
X155837357Y-111510655D01*
X155663960Y-111618017D01*
X155663958Y-111618019D01*
X155513237Y-111755418D01*
X155390327Y-111918178D01*
X155299422Y-112100739D01*
X155299417Y-112100752D01*
X155243602Y-112296917D01*
X155224785Y-112499999D01*
X155224785Y-112500000D01*
X155243602Y-112703082D01*
X155299417Y-112899247D01*
X155299422Y-112899260D01*
X155390327Y-113081821D01*
X155513237Y-113244581D01*
X155556328Y-113283863D01*
X155592610Y-113343574D01*
X155590849Y-113413422D01*
X155551606Y-113471229D01*
X155487339Y-113498644D01*
X155472790Y-113499500D01*
X154647210Y-113499500D01*
X154580171Y-113479815D01*
X154534416Y-113427011D01*
X154524472Y-113357853D01*
X154553497Y-113294297D01*
X154563672Y-113283863D01*
X154606762Y-113244581D01*
X154606764Y-113244579D01*
X154729673Y-113081821D01*
X154820582Y-112899250D01*
X154876397Y-112703083D01*
X154895215Y-112500000D01*
X154876397Y-112296917D01*
X154820582Y-112100750D01*
X154729673Y-111918179D01*
X154606764Y-111755421D01*
X154606762Y-111755418D01*
X154456041Y-111618019D01*
X154456039Y-111618017D01*
X154282642Y-111510655D01*
X154282635Y-111510651D01*
X154187546Y-111473814D01*
X154092456Y-111436976D01*
X153891976Y-111399500D01*
X153688024Y-111399500D01*
X153487544Y-111436976D01*
X153487541Y-111436976D01*
X153487541Y-111436977D01*
X153297364Y-111510651D01*
X153297357Y-111510655D01*
X153123960Y-111618017D01*
X153123958Y-111618019D01*
X152973237Y-111755418D01*
X152850327Y-111918178D01*
X152759422Y-112100739D01*
X152759417Y-112100752D01*
X152703602Y-112296917D01*
X152684785Y-112499999D01*
X152684785Y-112500000D01*
X152703602Y-112703082D01*
X152759417Y-112899247D01*
X152759422Y-112899260D01*
X152850327Y-113081821D01*
X152973237Y-113244581D01*
X153016328Y-113283863D01*
X153052610Y-113343574D01*
X153050849Y-113413422D01*
X153011606Y-113471229D01*
X152947339Y-113498644D01*
X152932790Y-113499500D01*
X152107210Y-113499500D01*
X152040171Y-113479815D01*
X151994416Y-113427011D01*
X151984472Y-113357853D01*
X152013497Y-113294297D01*
X152023672Y-113283863D01*
X152066762Y-113244581D01*
X152066764Y-113244579D01*
X152189673Y-113081821D01*
X152280582Y-112899250D01*
X152336397Y-112703083D01*
X152355215Y-112500000D01*
X152336397Y-112296917D01*
X152280582Y-112100750D01*
X152189673Y-111918179D01*
X152066764Y-111755421D01*
X152066762Y-111755418D01*
X151916041Y-111618019D01*
X151916039Y-111618017D01*
X151742642Y-111510655D01*
X151742635Y-111510651D01*
X151647546Y-111473814D01*
X151552456Y-111436976D01*
X151351976Y-111399500D01*
X151148024Y-111399500D01*
X150947544Y-111436976D01*
X150947541Y-111436976D01*
X150947541Y-111436977D01*
X150757364Y-111510651D01*
X150757357Y-111510655D01*
X150583960Y-111618017D01*
X150583958Y-111618019D01*
X150433237Y-111755418D01*
X150310327Y-111918178D01*
X150219422Y-112100739D01*
X150219417Y-112100752D01*
X150163602Y-112296917D01*
X150144785Y-112499999D01*
X150144785Y-112500000D01*
X150163602Y-112703082D01*
X150219417Y-112899247D01*
X150219422Y-112899260D01*
X150310327Y-113081821D01*
X150433237Y-113244581D01*
X150476328Y-113283863D01*
X150512610Y-113343574D01*
X150510849Y-113413422D01*
X150471606Y-113471229D01*
X150407339Y-113498644D01*
X150392790Y-113499500D01*
X149567210Y-113499500D01*
X149500171Y-113479815D01*
X149454416Y-113427011D01*
X149444472Y-113357853D01*
X149473497Y-113294297D01*
X149483672Y-113283863D01*
X149526762Y-113244581D01*
X149526764Y-113244579D01*
X149649673Y-113081821D01*
X149740582Y-112899250D01*
X149796397Y-112703083D01*
X149815215Y-112500000D01*
X149796397Y-112296917D01*
X149740582Y-112100750D01*
X149649673Y-111918179D01*
X149526764Y-111755421D01*
X149526762Y-111755418D01*
X149376041Y-111618019D01*
X149376039Y-111618017D01*
X149202642Y-111510655D01*
X149202635Y-111510651D01*
X149107546Y-111473814D01*
X149012456Y-111436976D01*
X148811976Y-111399500D01*
X148608024Y-111399500D01*
X148407544Y-111436976D01*
X148407541Y-111436976D01*
X148407541Y-111436977D01*
X148217364Y-111510651D01*
X148217357Y-111510655D01*
X148043960Y-111618017D01*
X148043958Y-111618019D01*
X147893237Y-111755418D01*
X147770327Y-111918178D01*
X147679422Y-112100739D01*
X147679417Y-112100752D01*
X147623602Y-112296917D01*
X147604785Y-112499999D01*
X147604785Y-112500000D01*
X147623602Y-112703082D01*
X147679417Y-112899247D01*
X147679422Y-112899260D01*
X147770327Y-113081821D01*
X147893237Y-113244581D01*
X147936328Y-113283863D01*
X147972610Y-113343574D01*
X147970849Y-113413422D01*
X147931606Y-113471229D01*
X147867339Y-113498644D01*
X147852790Y-113499500D01*
X147027210Y-113499500D01*
X146960171Y-113479815D01*
X146914416Y-113427011D01*
X146904472Y-113357853D01*
X146933497Y-113294297D01*
X146943672Y-113283863D01*
X146986762Y-113244581D01*
X146986764Y-113244579D01*
X147109673Y-113081821D01*
X147200582Y-112899250D01*
X147256397Y-112703083D01*
X147275215Y-112500000D01*
X147256397Y-112296917D01*
X147200582Y-112100750D01*
X147109673Y-111918179D01*
X146986764Y-111755421D01*
X146986762Y-111755418D01*
X146836041Y-111618019D01*
X146836039Y-111618017D01*
X146662642Y-111510655D01*
X146662635Y-111510651D01*
X146567546Y-111473814D01*
X146472456Y-111436976D01*
X146271976Y-111399500D01*
X146068024Y-111399500D01*
X145867544Y-111436976D01*
X145867541Y-111436976D01*
X145867541Y-111436977D01*
X145677364Y-111510651D01*
X145677357Y-111510655D01*
X145503960Y-111618017D01*
X145503958Y-111618019D01*
X145353237Y-111755418D01*
X145230327Y-111918178D01*
X145139422Y-112100739D01*
X145139417Y-112100752D01*
X145083602Y-112296917D01*
X145064785Y-112499999D01*
X145064785Y-112500000D01*
X145083602Y-112703082D01*
X145139417Y-112899247D01*
X145139422Y-112899260D01*
X145230327Y-113081821D01*
X145353237Y-113244581D01*
X145396328Y-113283863D01*
X145432610Y-113343574D01*
X145430849Y-113413422D01*
X145391606Y-113471229D01*
X145327339Y-113498644D01*
X145312790Y-113499500D01*
X144487210Y-113499500D01*
X144420171Y-113479815D01*
X144374416Y-113427011D01*
X144364472Y-113357853D01*
X144393497Y-113294297D01*
X144403672Y-113283863D01*
X144446762Y-113244581D01*
X144446764Y-113244579D01*
X144569673Y-113081821D01*
X144660582Y-112899250D01*
X144716397Y-112703083D01*
X144735215Y-112500000D01*
X144716397Y-112296917D01*
X144660582Y-112100750D01*
X144569673Y-111918179D01*
X144446764Y-111755421D01*
X144446762Y-111755418D01*
X144296041Y-111618019D01*
X144296039Y-111618017D01*
X144122642Y-111510655D01*
X144122635Y-111510651D01*
X144027546Y-111473814D01*
X143932456Y-111436976D01*
X143731976Y-111399500D01*
X143528024Y-111399500D01*
X143327544Y-111436976D01*
X143327541Y-111436976D01*
X143327541Y-111436977D01*
X143137364Y-111510651D01*
X143137357Y-111510655D01*
X142963960Y-111618017D01*
X142963958Y-111618019D01*
X142813237Y-111755418D01*
X142690327Y-111918178D01*
X142599422Y-112100739D01*
X142599417Y-112100752D01*
X142543602Y-112296917D01*
X142524785Y-112499999D01*
X142524785Y-112500000D01*
X142543602Y-112703082D01*
X142599417Y-112899247D01*
X142599422Y-112899260D01*
X142690327Y-113081821D01*
X142813237Y-113244581D01*
X142856328Y-113283863D01*
X142892610Y-113343574D01*
X142890849Y-113413422D01*
X142851606Y-113471229D01*
X142787339Y-113498644D01*
X142772790Y-113499500D01*
X141947210Y-113499500D01*
X141880171Y-113479815D01*
X141834416Y-113427011D01*
X141824472Y-113357853D01*
X141853497Y-113294297D01*
X141863672Y-113283863D01*
X141906762Y-113244581D01*
X141906764Y-113244579D01*
X142029673Y-113081821D01*
X142120582Y-112899250D01*
X142176397Y-112703083D01*
X142195215Y-112500000D01*
X142176397Y-112296917D01*
X142120582Y-112100750D01*
X142029673Y-111918179D01*
X141906764Y-111755421D01*
X141906762Y-111755418D01*
X141756041Y-111618019D01*
X141756039Y-111618017D01*
X141582642Y-111510655D01*
X141582635Y-111510651D01*
X141487546Y-111473814D01*
X141392456Y-111436976D01*
X141191976Y-111399500D01*
X140988024Y-111399500D01*
X140787544Y-111436976D01*
X140787541Y-111436976D01*
X140787541Y-111436977D01*
X140597364Y-111510651D01*
X140597357Y-111510655D01*
X140423960Y-111618017D01*
X140423958Y-111618019D01*
X140273237Y-111755418D01*
X140150327Y-111918178D01*
X140059422Y-112100739D01*
X140059417Y-112100752D01*
X140003602Y-112296917D01*
X139984785Y-112499999D01*
X139984785Y-112500000D01*
X140003602Y-112703082D01*
X140059417Y-112899247D01*
X140059422Y-112899260D01*
X140150327Y-113081821D01*
X140273237Y-113244581D01*
X140316328Y-113283863D01*
X140352610Y-113343574D01*
X140350849Y-113413422D01*
X140311606Y-113471229D01*
X140247339Y-113498644D01*
X140232790Y-113499500D01*
X139407210Y-113499500D01*
X139340171Y-113479815D01*
X139294416Y-113427011D01*
X139284472Y-113357853D01*
X139313497Y-113294297D01*
X139323672Y-113283863D01*
X139366762Y-113244581D01*
X139366764Y-113244579D01*
X139489673Y-113081821D01*
X139580582Y-112899250D01*
X139636397Y-112703083D01*
X139655215Y-112500000D01*
X139636397Y-112296917D01*
X139580582Y-112100750D01*
X139489673Y-111918179D01*
X139366764Y-111755421D01*
X139366762Y-111755418D01*
X139216041Y-111618019D01*
X139216039Y-111618017D01*
X139042642Y-111510655D01*
X139042635Y-111510651D01*
X138947546Y-111473814D01*
X138852456Y-111436976D01*
X138651976Y-111399500D01*
X138448024Y-111399500D01*
X138247544Y-111436976D01*
X138247541Y-111436976D01*
X138247541Y-111436977D01*
X138057364Y-111510651D01*
X138057357Y-111510655D01*
X137883960Y-111618017D01*
X137883958Y-111618019D01*
X137733237Y-111755418D01*
X137610327Y-111918178D01*
X137519422Y-112100739D01*
X137519417Y-112100752D01*
X137463602Y-112296917D01*
X137444785Y-112499999D01*
X137444785Y-112500000D01*
X137463602Y-112703082D01*
X137519417Y-112899247D01*
X137519422Y-112899260D01*
X137610327Y-113081821D01*
X137733237Y-113244581D01*
X137776328Y-113283863D01*
X137812610Y-113343574D01*
X137810849Y-113413422D01*
X137771606Y-113471229D01*
X137707339Y-113498644D01*
X137692790Y-113499500D01*
X137006962Y-113499500D01*
X136993078Y-113498720D01*
X136980553Y-113497308D01*
X136902735Y-113488540D01*
X136875666Y-113482362D01*
X136796462Y-113454648D01*
X136771444Y-113442600D01*
X136700395Y-113397957D01*
X136678686Y-113380644D01*
X136619355Y-113321313D01*
X136602042Y-113299604D01*
X136598707Y-113294297D01*
X136557398Y-113228553D01*
X136545351Y-113203537D01*
X136517637Y-113124333D01*
X136511459Y-113097263D01*
X136501280Y-113006922D01*
X136500500Y-112993038D01*
X136500500Y-107450467D01*
X136520185Y-107383428D01*
X136572989Y-107337673D01*
X136642147Y-107327729D01*
X136705703Y-107356754D01*
X136712181Y-107362786D01*
X137114445Y-107765050D01*
X137147930Y-107826373D01*
X137149703Y-107868915D01*
X137144750Y-107906539D01*
X137144750Y-107906542D01*
X137163670Y-108050250D01*
X137163671Y-108050254D01*
X137219137Y-108184164D01*
X137219138Y-108184166D01*
X137219139Y-108184167D01*
X137307379Y-108299163D01*
X137422375Y-108387403D01*
X137422376Y-108387403D01*
X137422377Y-108387404D01*
X137467013Y-108405892D01*
X137556291Y-108442872D01*
X137683280Y-108459590D01*
X137699999Y-108461792D01*
X137700000Y-108461792D01*
X137700001Y-108461792D01*
X137714977Y-108459820D01*
X137843709Y-108442872D01*
X137977625Y-108387403D01*
X138092621Y-108299163D01*
X138180861Y-108184167D01*
X138236330Y-108050251D01*
X138255250Y-107906542D01*
X138236330Y-107762833D01*
X138180861Y-107628917D01*
X138092621Y-107513921D01*
X137977625Y-107425681D01*
X137977624Y-107425680D01*
X137977622Y-107425679D01*
X137843712Y-107370213D01*
X137843710Y-107370212D01*
X137843709Y-107370212D01*
X137771854Y-107360752D01*
X137700001Y-107351292D01*
X137699997Y-107351292D01*
X137662373Y-107356245D01*
X137593338Y-107345479D01*
X137558508Y-107320987D01*
X137193219Y-106955698D01*
X137159734Y-106894375D01*
X137156900Y-106868017D01*
X137156900Y-105864628D01*
X139500000Y-105864628D01*
X139514503Y-105937540D01*
X139514505Y-105937544D01*
X139569760Y-106020239D01*
X139652455Y-106075494D01*
X139652459Y-106075496D01*
X139725371Y-106089999D01*
X139725374Y-106090000D01*
X140525000Y-106090000D01*
X140525000Y-105380000D01*
X139500000Y-105380000D01*
X139500000Y-105864628D01*
X137156900Y-105864628D01*
X137156900Y-103048408D01*
X137176585Y-102981369D01*
X137229389Y-102935614D01*
X137297085Y-102925469D01*
X137311069Y-102927310D01*
X137333399Y-102930250D01*
X137333400Y-102930250D01*
X137333401Y-102930250D01*
X137348377Y-102928278D01*
X137477109Y-102911330D01*
X137611025Y-102855861D01*
X137726021Y-102767621D01*
X137814261Y-102652625D01*
X137869730Y-102518709D01*
X137888650Y-102375000D01*
X137887158Y-102363671D01*
X137886370Y-102357685D01*
X137869730Y-102231291D01*
X137814261Y-102097375D01*
X137814260Y-102097374D01*
X137814260Y-102097373D01*
X137750970Y-102014893D01*
X137725775Y-101949724D01*
X137739813Y-101881279D01*
X137788627Y-101831289D01*
X137856718Y-101815625D01*
X137896798Y-101824845D01*
X137993728Y-101864995D01*
X137993736Y-101864997D01*
X138138622Y-101893817D01*
X138138625Y-101893818D01*
X138487496Y-101893818D01*
X138487496Y-101443818D01*
X138737496Y-101443818D01*
X138737496Y-101893818D01*
X139086367Y-101893818D01*
X139086369Y-101893817D01*
X139231255Y-101864997D01*
X139231263Y-101864995D01*
X139367746Y-101808462D01*
X139369062Y-101807759D01*
X139369831Y-101807598D01*
X139373382Y-101806128D01*
X139373660Y-101806801D01*
X139375786Y-101806358D01*
X139391041Y-101792900D01*
X139394034Y-101790900D01*
X139460711Y-101770020D01*
X139462928Y-101770000D01*
X141100000Y-101770000D01*
X141100000Y-101445373D01*
X141085101Y-101370473D01*
X141085101Y-101322089D01*
X141100500Y-101244676D01*
X141100500Y-101157864D01*
X141120185Y-101090825D01*
X141162502Y-101050475D01*
X141169800Y-101046263D01*
X141289461Y-100926601D01*
X141350780Y-100893119D01*
X141420472Y-100898103D01*
X141476406Y-100939974D01*
X141500823Y-101005438D01*
X141500176Y-101015782D01*
X141502667Y-101018818D01*
X141968254Y-101018818D01*
X141962940Y-101028022D01*
X141942496Y-101104322D01*
X141942496Y-101183314D01*
X141962940Y-101259614D01*
X141968254Y-101268818D01*
X141502666Y-101268818D01*
X141521316Y-101362577D01*
X141521318Y-101362585D01*
X141577853Y-101499072D01*
X141577858Y-101499082D01*
X141659932Y-101621914D01*
X141659935Y-101621918D01*
X141764395Y-101726378D01*
X141764399Y-101726381D01*
X141887231Y-101808455D01*
X141887241Y-101808460D01*
X142023728Y-101864995D01*
X142023736Y-101864997D01*
X142168622Y-101893817D01*
X142168625Y-101893818D01*
X142667496Y-101893818D01*
X142667496Y-101443818D01*
X142917496Y-101443818D01*
X142917496Y-101893818D01*
X143416367Y-101893818D01*
X143497969Y-101877586D01*
X143567561Y-101883813D01*
X143622738Y-101926676D01*
X143645983Y-101992565D01*
X143629915Y-102060562D01*
X143609842Y-102086884D01*
X143347046Y-102349681D01*
X143285723Y-102383166D01*
X143259365Y-102386000D01*
X141814105Y-102386000D01*
X141747066Y-102366315D01*
X141715730Y-102337487D01*
X141698049Y-102314445D01*
X141692627Y-102307379D01*
X141577631Y-102219139D01*
X141577630Y-102219138D01*
X141577628Y-102219137D01*
X141443718Y-102163671D01*
X141443716Y-102163670D01*
X141443715Y-102163670D01*
X141371860Y-102154210D01*
X141300007Y-102144750D01*
X141300004Y-102144750D01*
X141240185Y-102152625D01*
X141171149Y-102141859D01*
X141118894Y-102095479D01*
X141100000Y-102029686D01*
X141100000Y-102020000D01*
X139500000Y-102020000D01*
X139500000Y-102344622D01*
X139514899Y-102419527D01*
X139514899Y-102467908D01*
X139499500Y-102545326D01*
X139499500Y-103444673D01*
X139514644Y-103520810D01*
X139514644Y-103569190D01*
X139499500Y-103645326D01*
X139499500Y-104444678D01*
X139514898Y-104522090D01*
X139514899Y-104570471D01*
X139500000Y-104645376D01*
X139500000Y-105130000D01*
X140651000Y-105130000D01*
X140718039Y-105149685D01*
X140763794Y-105202489D01*
X140775000Y-105254000D01*
X140775000Y-106090000D01*
X141349300Y-106090000D01*
X141416339Y-106109685D01*
X141462094Y-106162489D01*
X141473300Y-106214000D01*
X141473300Y-107395645D01*
X141453615Y-107462684D01*
X141424788Y-107494020D01*
X141407381Y-107507376D01*
X141319137Y-107622377D01*
X141263671Y-107756287D01*
X141263670Y-107756291D01*
X141244750Y-107899999D01*
X141244750Y-107900000D01*
X141263670Y-108043708D01*
X141263671Y-108043712D01*
X141319137Y-108177622D01*
X141319138Y-108177624D01*
X141319139Y-108177625D01*
X141407379Y-108292621D01*
X141424786Y-108305978D01*
X141465989Y-108362403D01*
X141473300Y-108404353D01*
X141473300Y-108762761D01*
X141453615Y-108829800D01*
X141400811Y-108875555D01*
X141331653Y-108885499D01*
X141326535Y-108884653D01*
X141191976Y-108859500D01*
X140988024Y-108859500D01*
X140787544Y-108896976D01*
X140787541Y-108896976D01*
X140787541Y-108896977D01*
X140597364Y-108970651D01*
X140597357Y-108970655D01*
X140423960Y-109078017D01*
X140423958Y-109078019D01*
X140273237Y-109215418D01*
X140150327Y-109378178D01*
X140057514Y-109564572D01*
X140010011Y-109615809D01*
X139946514Y-109633300D01*
X139774500Y-109633300D01*
X139707461Y-109613615D01*
X139661706Y-109560811D01*
X139650500Y-109509300D01*
X139650500Y-109085323D01*
X139650499Y-109085321D01*
X139635967Y-109012264D01*
X139635966Y-109012260D01*
X139580601Y-108929399D01*
X139513628Y-108884650D01*
X139497739Y-108874033D01*
X139497735Y-108874032D01*
X139424677Y-108859500D01*
X139424674Y-108859500D01*
X137675326Y-108859500D01*
X137675323Y-108859500D01*
X137602264Y-108874032D01*
X137602260Y-108874033D01*
X137519399Y-108929399D01*
X137464033Y-109012260D01*
X137464032Y-109012264D01*
X137449500Y-109085321D01*
X137449500Y-110834678D01*
X137464032Y-110907735D01*
X137464033Y-110907739D01*
X137464034Y-110907740D01*
X137519399Y-110990601D01*
X137602260Y-111045966D01*
X137602264Y-111045967D01*
X137675321Y-111060499D01*
X137675324Y-111060500D01*
X137675326Y-111060500D01*
X139424676Y-111060500D01*
X139424677Y-111060499D01*
X139497740Y-111045966D01*
X139580601Y-110990601D01*
X139635966Y-110907740D01*
X139650500Y-110834674D01*
X139650500Y-110410700D01*
X139670185Y-110343661D01*
X139722989Y-110297906D01*
X139774500Y-110286700D01*
X139946514Y-110286700D01*
X140013553Y-110306385D01*
X140057514Y-110355428D01*
X140150327Y-110541821D01*
X140273237Y-110704581D01*
X140423958Y-110841980D01*
X140423960Y-110841982D01*
X140523141Y-110903392D01*
X140597363Y-110949348D01*
X140787544Y-111023024D01*
X140988024Y-111060500D01*
X140988026Y-111060500D01*
X141191974Y-111060500D01*
X141191976Y-111060500D01*
X141392456Y-111023024D01*
X141582637Y-110949348D01*
X141756041Y-110841981D01*
X141906764Y-110704579D01*
X142029673Y-110541821D01*
X142120582Y-110359250D01*
X142176397Y-110163083D01*
X142195215Y-109960000D01*
X142189115Y-109894174D01*
X142183632Y-109834999D01*
X142536869Y-109834999D01*
X142536870Y-109835000D01*
X143145856Y-109835000D01*
X143130000Y-109894174D01*
X143130000Y-110025826D01*
X143145856Y-110085000D01*
X142536870Y-110085000D01*
X142544097Y-110162989D01*
X142544097Y-110162992D01*
X142599883Y-110359063D01*
X142599886Y-110359069D01*
X142690754Y-110541556D01*
X142813608Y-110704242D01*
X142964260Y-110841578D01*
X143137584Y-110948897D01*
X143327678Y-111022539D01*
X143505000Y-111055686D01*
X143505000Y-110444144D01*
X143564174Y-110460000D01*
X143695826Y-110460000D01*
X143755000Y-110444144D01*
X143755000Y-111055686D01*
X143932321Y-111022539D01*
X144122415Y-110948897D01*
X144295739Y-110841578D01*
X144446391Y-110704242D01*
X144569245Y-110541556D01*
X144660113Y-110359069D01*
X144660116Y-110359063D01*
X144715902Y-110162992D01*
X144715902Y-110162989D01*
X144723130Y-110085000D01*
X144114144Y-110085000D01*
X144130000Y-110025826D01*
X144130000Y-109894174D01*
X144114144Y-109835000D01*
X144723130Y-109835000D01*
X144723130Y-109834999D01*
X145076869Y-109834999D01*
X145076870Y-109835000D01*
X145685856Y-109835000D01*
X145670000Y-109894174D01*
X145670000Y-110025826D01*
X145685856Y-110085000D01*
X145076870Y-110085000D01*
X145084097Y-110162989D01*
X145084097Y-110162992D01*
X145139883Y-110359063D01*
X145139886Y-110359069D01*
X145230754Y-110541556D01*
X145353608Y-110704242D01*
X145504260Y-110841578D01*
X145677584Y-110948897D01*
X145867678Y-111022539D01*
X146045000Y-111055686D01*
X146045000Y-110444144D01*
X146104174Y-110460000D01*
X146235826Y-110460000D01*
X146295000Y-110444144D01*
X146295000Y-111055686D01*
X146472321Y-111022539D01*
X146662415Y-110948897D01*
X146835739Y-110841578D01*
X146986391Y-110704242D01*
X147109245Y-110541556D01*
X147200113Y-110359069D01*
X147200116Y-110359063D01*
X147255902Y-110162992D01*
X147255902Y-110162989D01*
X147263130Y-110085000D01*
X146654144Y-110085000D01*
X146670000Y-110025826D01*
X146670000Y-109894174D01*
X146654144Y-109835000D01*
X147263130Y-109835000D01*
X147263130Y-109834999D01*
X147616869Y-109834999D01*
X147616870Y-109835000D01*
X148225856Y-109835000D01*
X148210000Y-109894174D01*
X148210000Y-110025826D01*
X148225856Y-110085000D01*
X147616870Y-110085000D01*
X147624097Y-110162989D01*
X147624097Y-110162992D01*
X147679883Y-110359063D01*
X147679886Y-110359069D01*
X147770754Y-110541556D01*
X147893608Y-110704242D01*
X148044260Y-110841578D01*
X148217584Y-110948897D01*
X148407678Y-111022539D01*
X148585000Y-111055686D01*
X148585000Y-110444144D01*
X148644174Y-110460000D01*
X148775826Y-110460000D01*
X148835000Y-110444144D01*
X148835000Y-111055686D01*
X149012321Y-111022539D01*
X149202415Y-110948897D01*
X149375739Y-110841578D01*
X149526391Y-110704242D01*
X149649245Y-110541556D01*
X149740113Y-110359069D01*
X149740116Y-110359063D01*
X149795902Y-110162992D01*
X149795902Y-110162989D01*
X149803130Y-110085000D01*
X149194144Y-110085000D01*
X149210000Y-110025826D01*
X149210000Y-109894174D01*
X149194144Y-109835000D01*
X149803130Y-109835000D01*
X149803130Y-109834999D01*
X150156869Y-109834999D01*
X150156870Y-109835000D01*
X150765856Y-109835000D01*
X150750000Y-109894174D01*
X150750000Y-110025826D01*
X150765856Y-110085000D01*
X150156870Y-110085000D01*
X150164097Y-110162989D01*
X150164097Y-110162992D01*
X150219883Y-110359063D01*
X150219886Y-110359069D01*
X150310754Y-110541556D01*
X150433608Y-110704242D01*
X150584260Y-110841578D01*
X150757584Y-110948897D01*
X150947678Y-111022539D01*
X151125000Y-111055686D01*
X151125000Y-110444144D01*
X151184174Y-110460000D01*
X151315826Y-110460000D01*
X151375000Y-110444144D01*
X151375000Y-111055686D01*
X151552321Y-111022539D01*
X151742415Y-110948897D01*
X151915739Y-110841578D01*
X152066391Y-110704242D01*
X152189245Y-110541556D01*
X152280113Y-110359069D01*
X152280116Y-110359063D01*
X152335902Y-110162992D01*
X152335902Y-110162989D01*
X152343130Y-110085000D01*
X151734144Y-110085000D01*
X151750000Y-110025826D01*
X151750000Y-109894174D01*
X151734144Y-109835000D01*
X152343130Y-109835000D01*
X152343130Y-109834999D01*
X152696869Y-109834999D01*
X152696870Y-109835000D01*
X153305856Y-109835000D01*
X153290000Y-109894174D01*
X153290000Y-110025826D01*
X153305856Y-110085000D01*
X152696870Y-110085000D01*
X152704097Y-110162989D01*
X152704097Y-110162992D01*
X152759883Y-110359063D01*
X152759886Y-110359069D01*
X152850754Y-110541556D01*
X152973608Y-110704242D01*
X153124260Y-110841578D01*
X153297584Y-110948897D01*
X153487678Y-111022539D01*
X153665000Y-111055686D01*
X153665000Y-110444144D01*
X153724174Y-110460000D01*
X153855826Y-110460000D01*
X153915000Y-110444144D01*
X153915000Y-111055686D01*
X154092321Y-111022539D01*
X154282415Y-110948897D01*
X154455739Y-110841578D01*
X154606391Y-110704242D01*
X154729245Y-110541556D01*
X154820113Y-110359069D01*
X154820116Y-110359063D01*
X154875902Y-110162992D01*
X154875902Y-110162989D01*
X154883130Y-110085000D01*
X154274144Y-110085000D01*
X154290000Y-110025826D01*
X154290000Y-109894174D01*
X154274144Y-109835000D01*
X154883130Y-109835000D01*
X154883130Y-109834999D01*
X155236869Y-109834999D01*
X155236870Y-109835000D01*
X155845856Y-109835000D01*
X155830000Y-109894174D01*
X155830000Y-110025826D01*
X155845856Y-110085000D01*
X155236870Y-110085000D01*
X155244097Y-110162989D01*
X155244097Y-110162992D01*
X155299883Y-110359063D01*
X155299886Y-110359069D01*
X155390754Y-110541556D01*
X155513608Y-110704242D01*
X155664260Y-110841578D01*
X155837584Y-110948897D01*
X156027678Y-111022539D01*
X156205000Y-111055686D01*
X156205000Y-110444144D01*
X156264174Y-110460000D01*
X156395826Y-110460000D01*
X156455000Y-110444144D01*
X156455000Y-111055686D01*
X156632321Y-111022539D01*
X156822415Y-110948897D01*
X156995739Y-110841578D01*
X157146391Y-110704242D01*
X157269245Y-110541556D01*
X157360113Y-110359069D01*
X157360116Y-110359063D01*
X157415902Y-110162992D01*
X157415902Y-110162989D01*
X157423130Y-110085000D01*
X156814144Y-110085000D01*
X156830000Y-110025826D01*
X156830000Y-109894174D01*
X156814144Y-109835000D01*
X157423130Y-109835000D01*
X157423130Y-109834999D01*
X157776869Y-109834999D01*
X157776870Y-109835000D01*
X158385856Y-109835000D01*
X158370000Y-109894174D01*
X158370000Y-110025826D01*
X158385856Y-110085000D01*
X157776870Y-110085000D01*
X157784097Y-110162989D01*
X157784097Y-110162992D01*
X157839883Y-110359063D01*
X157839886Y-110359069D01*
X157930754Y-110541556D01*
X158053608Y-110704242D01*
X158204260Y-110841578D01*
X158377584Y-110948897D01*
X158567678Y-111022539D01*
X158745000Y-111055686D01*
X158745000Y-110444144D01*
X158804174Y-110460000D01*
X158935826Y-110460000D01*
X158995000Y-110444144D01*
X158995000Y-111055686D01*
X159172321Y-111022539D01*
X159362415Y-110948897D01*
X159535739Y-110841578D01*
X159686391Y-110704242D01*
X159809245Y-110541556D01*
X159900113Y-110359069D01*
X159900116Y-110359063D01*
X159955902Y-110162992D01*
X159955902Y-110162989D01*
X159963130Y-110085000D01*
X159354144Y-110085000D01*
X159370000Y-110025826D01*
X159370000Y-109894174D01*
X159354144Y-109835000D01*
X159963130Y-109835000D01*
X159963130Y-109834999D01*
X160316869Y-109834999D01*
X160316870Y-109835000D01*
X160925856Y-109835000D01*
X160910000Y-109894174D01*
X160910000Y-110025826D01*
X160925856Y-110085000D01*
X160316870Y-110085000D01*
X160324097Y-110162989D01*
X160324097Y-110162992D01*
X160379883Y-110359063D01*
X160379886Y-110359069D01*
X160470754Y-110541556D01*
X160593608Y-110704242D01*
X160744260Y-110841578D01*
X160917584Y-110948897D01*
X161107678Y-111022539D01*
X161285000Y-111055686D01*
X161285000Y-110444144D01*
X161344174Y-110460000D01*
X161475826Y-110460000D01*
X161535000Y-110444144D01*
X161535000Y-111055686D01*
X161712321Y-111022539D01*
X161902415Y-110948897D01*
X162075739Y-110841578D01*
X162226391Y-110704242D01*
X162349245Y-110541556D01*
X162440113Y-110359069D01*
X162440116Y-110359063D01*
X162495902Y-110162992D01*
X162495902Y-110162989D01*
X162503130Y-110085000D01*
X161894144Y-110085000D01*
X161910000Y-110025826D01*
X161910000Y-109894174D01*
X161894144Y-109835000D01*
X162503130Y-109835000D01*
X162503130Y-109834999D01*
X162495902Y-109757010D01*
X162495902Y-109757007D01*
X162440116Y-109560936D01*
X162440113Y-109560930D01*
X162349245Y-109378443D01*
X162226391Y-109215757D01*
X162075739Y-109078421D01*
X161902415Y-108971102D01*
X161712321Y-108897460D01*
X161535000Y-108864312D01*
X161535000Y-109475855D01*
X161475826Y-109460000D01*
X161344174Y-109460000D01*
X161285000Y-109475855D01*
X161285000Y-108864312D01*
X161107678Y-108897460D01*
X160917584Y-108971102D01*
X160744260Y-109078421D01*
X160593608Y-109215757D01*
X160470754Y-109378443D01*
X160379886Y-109560930D01*
X160379883Y-109560936D01*
X160324097Y-109757007D01*
X160324097Y-109757010D01*
X160316869Y-109834999D01*
X159963130Y-109834999D01*
X159955902Y-109757010D01*
X159955902Y-109757007D01*
X159900116Y-109560936D01*
X159900113Y-109560930D01*
X159809245Y-109378443D01*
X159686391Y-109215757D01*
X159535739Y-109078421D01*
X159362415Y-108971102D01*
X159172321Y-108897460D01*
X158995000Y-108864312D01*
X158995000Y-109475855D01*
X158935826Y-109460000D01*
X158804174Y-109460000D01*
X158745000Y-109475855D01*
X158745000Y-108864312D01*
X158567678Y-108897460D01*
X158377584Y-108971102D01*
X158204260Y-109078421D01*
X158053608Y-109215757D01*
X157930754Y-109378443D01*
X157839886Y-109560930D01*
X157839883Y-109560936D01*
X157784097Y-109757007D01*
X157784097Y-109757010D01*
X157776869Y-109834999D01*
X157423130Y-109834999D01*
X157415902Y-109757010D01*
X157415902Y-109757007D01*
X157360116Y-109560936D01*
X157360113Y-109560930D01*
X157269245Y-109378443D01*
X157146391Y-109215757D01*
X156995739Y-109078421D01*
X156822415Y-108971102D01*
X156632321Y-108897460D01*
X156455000Y-108864312D01*
X156455000Y-109475855D01*
X156395826Y-109460000D01*
X156264174Y-109460000D01*
X156205000Y-109475855D01*
X156205000Y-108864312D01*
X156027678Y-108897460D01*
X155837584Y-108971102D01*
X155664260Y-109078421D01*
X155513608Y-109215757D01*
X155390754Y-109378443D01*
X155299886Y-109560930D01*
X155299883Y-109560936D01*
X155244097Y-109757007D01*
X155244097Y-109757010D01*
X155236869Y-109834999D01*
X154883130Y-109834999D01*
X154875902Y-109757010D01*
X154875902Y-109757007D01*
X154820116Y-109560936D01*
X154820113Y-109560930D01*
X154729245Y-109378443D01*
X154606391Y-109215757D01*
X154455739Y-109078421D01*
X154282415Y-108971102D01*
X154092321Y-108897460D01*
X153915000Y-108864312D01*
X153915000Y-109475855D01*
X153855826Y-109460000D01*
X153724174Y-109460000D01*
X153665000Y-109475855D01*
X153665000Y-108864312D01*
X153487678Y-108897460D01*
X153297584Y-108971102D01*
X153124260Y-109078421D01*
X152973608Y-109215757D01*
X152850754Y-109378443D01*
X152759886Y-109560930D01*
X152759883Y-109560936D01*
X152704097Y-109757007D01*
X152704097Y-109757010D01*
X152696869Y-109834999D01*
X152343130Y-109834999D01*
X152335902Y-109757010D01*
X152335902Y-109757007D01*
X152280116Y-109560936D01*
X152280113Y-109560930D01*
X152189245Y-109378443D01*
X152066391Y-109215757D01*
X151915739Y-109078421D01*
X151742415Y-108971102D01*
X151552321Y-108897460D01*
X151375000Y-108864312D01*
X151375000Y-109475855D01*
X151315826Y-109460000D01*
X151184174Y-109460000D01*
X151125000Y-109475855D01*
X151125000Y-108864312D01*
X150947678Y-108897460D01*
X150757584Y-108971102D01*
X150584260Y-109078421D01*
X150433608Y-109215757D01*
X150310754Y-109378443D01*
X150219886Y-109560930D01*
X150219883Y-109560936D01*
X150164097Y-109757007D01*
X150164097Y-109757010D01*
X150156869Y-109834999D01*
X149803130Y-109834999D01*
X149795902Y-109757010D01*
X149795902Y-109757007D01*
X149740116Y-109560936D01*
X149740113Y-109560930D01*
X149649245Y-109378443D01*
X149526391Y-109215757D01*
X149375739Y-109078421D01*
X149202415Y-108971102D01*
X149012321Y-108897460D01*
X148835000Y-108864312D01*
X148835000Y-109475855D01*
X148775826Y-109460000D01*
X148644174Y-109460000D01*
X148585000Y-109475855D01*
X148585000Y-108864312D01*
X148407678Y-108897460D01*
X148217584Y-108971102D01*
X148044260Y-109078421D01*
X147893608Y-109215757D01*
X147770754Y-109378443D01*
X147679886Y-109560930D01*
X147679883Y-109560936D01*
X147624097Y-109757007D01*
X147624097Y-109757010D01*
X147616869Y-109834999D01*
X147263130Y-109834999D01*
X147255902Y-109757010D01*
X147255902Y-109757007D01*
X147200116Y-109560936D01*
X147200113Y-109560930D01*
X147109245Y-109378443D01*
X146986391Y-109215757D01*
X146835739Y-109078421D01*
X146662415Y-108971102D01*
X146472321Y-108897460D01*
X146295000Y-108864312D01*
X146295000Y-109475855D01*
X146235826Y-109460000D01*
X146104174Y-109460000D01*
X146045000Y-109475855D01*
X146045000Y-108864312D01*
X145867678Y-108897460D01*
X145677584Y-108971102D01*
X145504260Y-109078421D01*
X145353608Y-109215757D01*
X145230754Y-109378443D01*
X145139886Y-109560930D01*
X145139883Y-109560936D01*
X145084097Y-109757007D01*
X145084097Y-109757010D01*
X145076869Y-109834999D01*
X144723130Y-109834999D01*
X144715902Y-109757010D01*
X144715902Y-109757007D01*
X144660116Y-109560936D01*
X144660113Y-109560930D01*
X144569245Y-109378443D01*
X144446391Y-109215757D01*
X144295739Y-109078421D01*
X144122415Y-108971102D01*
X143932321Y-108897460D01*
X143755000Y-108864312D01*
X143755000Y-109475855D01*
X143695826Y-109460000D01*
X143564174Y-109460000D01*
X143505000Y-109475855D01*
X143505000Y-108864312D01*
X143327678Y-108897460D01*
X143137584Y-108971102D01*
X142964260Y-109078421D01*
X142813608Y-109215757D01*
X142690754Y-109378443D01*
X142599886Y-109560930D01*
X142599883Y-109560936D01*
X142544097Y-109757007D01*
X142544097Y-109757010D01*
X142536869Y-109834999D01*
X142183632Y-109834999D01*
X142176397Y-109756917D01*
X142146828Y-109652993D01*
X142120582Y-109560750D01*
X142074702Y-109468612D01*
X142062442Y-109399828D01*
X142078317Y-109351340D01*
X142104435Y-109306104D01*
X142104436Y-109306102D01*
X142126700Y-109223011D01*
X142126700Y-109136989D01*
X142126700Y-108404353D01*
X142146385Y-108337314D01*
X142175211Y-108305979D01*
X142192621Y-108292621D01*
X142280861Y-108177625D01*
X142336330Y-108043709D01*
X142355250Y-107900000D01*
X142336330Y-107756291D01*
X142280861Y-107622375D01*
X142192621Y-107507379D01*
X142192619Y-107507377D01*
X142192618Y-107507376D01*
X142175212Y-107494020D01*
X142134010Y-107437591D01*
X142126700Y-107395645D01*
X142126700Y-107000007D01*
X144144750Y-107000007D01*
X144144750Y-107000008D01*
X144163670Y-107143716D01*
X144163671Y-107143720D01*
X144219137Y-107277630D01*
X144219138Y-107277632D01*
X144219139Y-107277633D01*
X144307379Y-107392629D01*
X144422375Y-107480869D01*
X144556291Y-107536338D01*
X144683280Y-107553056D01*
X144699999Y-107555258D01*
X144700000Y-107555258D01*
X144700001Y-107555258D01*
X144714977Y-107553286D01*
X144843709Y-107536338D01*
X144977625Y-107480869D01*
X145092621Y-107392629D01*
X145180861Y-107277633D01*
X145236330Y-107143717D01*
X145255250Y-107000008D01*
X145252385Y-106978251D01*
X145263149Y-106909221D01*
X145287640Y-106874389D01*
X145999006Y-106163025D01*
X146060329Y-106129540D01*
X146086687Y-106126706D01*
X146595646Y-106126706D01*
X146662685Y-106146391D01*
X146694021Y-106175219D01*
X146707376Y-106192624D01*
X146707377Y-106192625D01*
X146707379Y-106192627D01*
X146822375Y-106280867D01*
X146956291Y-106336336D01*
X147083280Y-106353054D01*
X147099999Y-106355256D01*
X147100000Y-106355256D01*
X147100001Y-106355256D01*
X147114977Y-106353284D01*
X147243709Y-106336336D01*
X147377625Y-106280867D01*
X147492621Y-106192627D01*
X147580861Y-106077631D01*
X147636330Y-105943715D01*
X147655250Y-105800006D01*
X147636330Y-105656297D01*
X147586636Y-105536324D01*
X147580862Y-105522383D01*
X147580861Y-105522382D01*
X147580861Y-105522381D01*
X147492621Y-105407385D01*
X147377625Y-105319145D01*
X147377624Y-105319144D01*
X147377622Y-105319143D01*
X147243712Y-105263677D01*
X147243710Y-105263676D01*
X147243709Y-105263676D01*
X147170214Y-105254000D01*
X147100001Y-105244756D01*
X147099999Y-105244756D01*
X146956291Y-105263676D01*
X146956287Y-105263677D01*
X146822377Y-105319143D01*
X146707376Y-105407387D01*
X146694021Y-105424793D01*
X146637593Y-105465996D01*
X146595646Y-105473306D01*
X145943013Y-105473306D01*
X145856991Y-105473306D01*
X145773900Y-105495570D01*
X145773899Y-105495570D01*
X145773897Y-105495571D01*
X145773894Y-105495572D01*
X145699410Y-105538577D01*
X145699401Y-105538583D01*
X144825620Y-106412363D01*
X144764297Y-106445848D01*
X144721757Y-106447622D01*
X144712694Y-106446429D01*
X144700000Y-106444758D01*
X144699999Y-106444758D01*
X144699998Y-106444758D01*
X144556291Y-106463678D01*
X144556287Y-106463679D01*
X144422377Y-106519145D01*
X144307379Y-106607387D01*
X144219137Y-106722385D01*
X144163671Y-106856295D01*
X144163670Y-106856299D01*
X144144750Y-107000007D01*
X142126700Y-107000007D01*
X142126700Y-105886684D01*
X142146385Y-105819645D01*
X142163014Y-105799008D01*
X143757393Y-104204628D01*
X150200000Y-104204628D01*
X150214503Y-104277540D01*
X150214505Y-104277544D01*
X150269760Y-104360239D01*
X150352455Y-104415494D01*
X150352459Y-104415496D01*
X150425371Y-104429999D01*
X150425374Y-104430000D01*
X151000000Y-104430000D01*
X151250000Y-104430000D01*
X151824626Y-104430000D01*
X151824628Y-104429999D01*
X151897540Y-104415496D01*
X151897544Y-104415494D01*
X151980239Y-104360239D01*
X152035494Y-104277544D01*
X152035496Y-104277540D01*
X152049999Y-104204628D01*
X152050000Y-104204626D01*
X152050000Y-103355000D01*
X151250000Y-103355000D01*
X151250000Y-104430000D01*
X151000000Y-104430000D01*
X151000000Y-103355000D01*
X150200000Y-103355000D01*
X150200000Y-104204628D01*
X143757393Y-104204628D01*
X144249380Y-103712641D01*
X144310701Y-103679158D01*
X144353240Y-103677385D01*
X144375000Y-103680250D01*
X144518709Y-103661330D01*
X144652625Y-103605861D01*
X144767621Y-103517621D01*
X144855861Y-103402625D01*
X144911330Y-103268709D01*
X144930250Y-103125000D01*
X144911330Y-102981291D01*
X144874350Y-102892013D01*
X144855862Y-102847377D01*
X144855861Y-102847376D01*
X144855861Y-102847375D01*
X144767621Y-102732379D01*
X144652625Y-102644139D01*
X144652624Y-102644138D01*
X144652622Y-102644137D01*
X144574679Y-102611853D01*
X144520275Y-102568013D01*
X144498210Y-102501719D01*
X144515489Y-102434019D01*
X144534441Y-102409620D01*
X144793746Y-102150316D01*
X144855067Y-102116834D01*
X144881425Y-102114000D01*
X150077111Y-102114000D01*
X150144150Y-102133685D01*
X150189905Y-102186489D01*
X150200514Y-102250150D01*
X150200000Y-102255370D01*
X150200000Y-103105000D01*
X152050000Y-103105000D01*
X152050000Y-102843425D01*
X152069685Y-102776386D01*
X152122489Y-102730631D01*
X152191647Y-102720687D01*
X152255203Y-102749712D01*
X152261681Y-102755744D01*
X154481196Y-104975260D01*
X154481198Y-104975262D01*
X154496732Y-104984230D01*
X154522533Y-104999125D01*
X154522536Y-104999128D01*
X154522537Y-104999128D01*
X154552798Y-105016600D01*
X154552800Y-105016600D01*
X154552801Y-105016601D01*
X154632661Y-105038000D01*
X156541005Y-105038000D01*
X156608044Y-105057685D01*
X156653799Y-105110489D01*
X156661117Y-105135973D01*
X156661562Y-105135854D01*
X156663665Y-105143704D01*
X156719133Y-105277618D01*
X156719134Y-105277620D01*
X156719135Y-105277621D01*
X156807375Y-105392617D01*
X156922371Y-105480857D01*
X156922372Y-105480857D01*
X156922373Y-105480858D01*
X156927989Y-105483184D01*
X157056287Y-105536326D01*
X157183276Y-105553044D01*
X157199995Y-105555246D01*
X157199996Y-105555246D01*
X157199997Y-105555246D01*
X157214973Y-105553274D01*
X157343705Y-105536326D01*
X157477621Y-105480857D01*
X157522997Y-105446038D01*
X157588162Y-105420845D01*
X157656607Y-105434882D01*
X157673961Y-105446034D01*
X157722375Y-105483184D01*
X157856291Y-105538653D01*
X157978406Y-105554730D01*
X157999999Y-105557573D01*
X158000000Y-105557573D01*
X158000001Y-105557573D01*
X158014977Y-105555601D01*
X158143709Y-105538653D01*
X158277625Y-105483184D01*
X158326027Y-105446043D01*
X158391195Y-105420849D01*
X158459639Y-105434887D01*
X158476999Y-105446043D01*
X158503003Y-105465996D01*
X158522375Y-105480861D01*
X158656291Y-105536330D01*
X158783280Y-105553048D01*
X158799999Y-105555250D01*
X158800000Y-105555250D01*
X158800001Y-105555250D01*
X158814977Y-105553278D01*
X158943709Y-105536330D01*
X159077625Y-105480861D01*
X159124852Y-105444622D01*
X159190019Y-105419427D01*
X159258464Y-105433464D01*
X159275819Y-105444617D01*
X159322375Y-105480341D01*
X159322376Y-105480341D01*
X159322377Y-105480342D01*
X159329241Y-105483185D01*
X159456291Y-105535810D01*
X159583280Y-105552528D01*
X159599999Y-105554730D01*
X159600000Y-105554730D01*
X159600001Y-105554730D01*
X159614977Y-105552758D01*
X159743709Y-105535810D01*
X159877625Y-105480341D01*
X159924176Y-105444620D01*
X159989342Y-105419427D01*
X160057787Y-105433465D01*
X160075145Y-105444620D01*
X160122375Y-105480861D01*
X160256291Y-105536330D01*
X160383280Y-105553048D01*
X160399999Y-105555250D01*
X160400000Y-105555250D01*
X160400001Y-105555250D01*
X160414977Y-105553278D01*
X160543709Y-105536330D01*
X160677625Y-105480861D01*
X160792621Y-105392621D01*
X160880861Y-105277625D01*
X160936330Y-105143709D01*
X160955250Y-105000000D01*
X160936330Y-104856291D01*
X160880861Y-104722375D01*
X160792621Y-104607379D01*
X160677625Y-104519139D01*
X160677624Y-104519138D01*
X160677622Y-104519137D01*
X160543712Y-104463671D01*
X160543710Y-104463670D01*
X160543709Y-104463670D01*
X160471854Y-104454210D01*
X160400001Y-104444750D01*
X160399997Y-104444750D01*
X160362373Y-104449703D01*
X160293338Y-104438937D01*
X160258508Y-104414445D01*
X159296799Y-103452736D01*
X159225198Y-103411398D01*
X159217367Y-103409299D01*
X159208323Y-103406876D01*
X159208321Y-103406875D01*
X159145340Y-103390000D01*
X159145339Y-103390000D01*
X157919347Y-103390000D01*
X157852308Y-103370315D01*
X157806553Y-103317511D01*
X157796609Y-103248353D01*
X157820971Y-103190514D01*
X157822106Y-103189033D01*
X157830861Y-103177625D01*
X157886330Y-103043709D01*
X157905250Y-102900000D01*
X157886330Y-102756291D01*
X157842510Y-102650498D01*
X157830862Y-102622377D01*
X157830861Y-102622376D01*
X157830861Y-102622375D01*
X157742621Y-102507379D01*
X157627625Y-102419139D01*
X157627624Y-102419138D01*
X157627622Y-102419137D01*
X157493712Y-102363671D01*
X157493710Y-102363670D01*
X157493709Y-102363670D01*
X157421854Y-102354210D01*
X157350001Y-102344750D01*
X157349999Y-102344750D01*
X157206291Y-102363670D01*
X157206287Y-102363671D01*
X157072376Y-102419138D01*
X157072374Y-102419139D01*
X157025486Y-102455118D01*
X156960317Y-102480312D01*
X156891872Y-102466274D01*
X156874514Y-102455118D01*
X156827625Y-102419139D01*
X156827623Y-102419138D01*
X156693712Y-102363671D01*
X156693710Y-102363670D01*
X156693709Y-102363670D01*
X156621854Y-102354210D01*
X156550001Y-102344750D01*
X156549997Y-102344750D01*
X156512373Y-102349703D01*
X156443338Y-102338937D01*
X156408508Y-102314445D01*
X156252299Y-102158236D01*
X156180698Y-102116898D01*
X156172867Y-102114799D01*
X156163823Y-102112376D01*
X156163821Y-102112375D01*
X156100840Y-102095500D01*
X156100839Y-102095500D01*
X155055395Y-102095500D01*
X154988356Y-102075815D01*
X154967714Y-102059181D01*
X151774569Y-98866036D01*
X151702968Y-98824698D01*
X151695137Y-98822599D01*
X151686093Y-98820176D01*
X151686091Y-98820175D01*
X151623110Y-98803300D01*
X151623109Y-98803300D01*
X145098725Y-98803300D01*
X145031686Y-98783615D01*
X145011044Y-98766981D01*
X144799076Y-98555013D01*
X144765591Y-98493690D01*
X144762757Y-98467332D01*
X144762757Y-98234628D01*
X150200000Y-98234628D01*
X150214503Y-98307540D01*
X150214505Y-98307544D01*
X150269760Y-98390239D01*
X150352455Y-98445494D01*
X150352459Y-98445496D01*
X150425371Y-98459999D01*
X150425374Y-98460000D01*
X151000000Y-98460000D01*
X151250000Y-98460000D01*
X151824626Y-98460000D01*
X151824628Y-98459999D01*
X151897540Y-98445496D01*
X151897544Y-98445494D01*
X151980239Y-98390239D01*
X152035494Y-98307544D01*
X152035496Y-98307540D01*
X152049999Y-98234628D01*
X152050000Y-98234626D01*
X152050000Y-97385000D01*
X151250000Y-97385000D01*
X151250000Y-98460000D01*
X151000000Y-98460000D01*
X151000000Y-97385000D01*
X150200000Y-97385000D01*
X150200000Y-98234628D01*
X144762757Y-98234628D01*
X144762757Y-96188801D01*
X144782442Y-96121762D01*
X144811268Y-96090427D01*
X144841378Y-96067324D01*
X144929618Y-95952328D01*
X144985087Y-95818412D01*
X145004007Y-95674703D01*
X144985087Y-95530994D01*
X144966222Y-95485451D01*
X144958754Y-95415983D01*
X144990029Y-95353504D01*
X145050118Y-95317852D01*
X145080784Y-95314000D01*
X149368575Y-95314000D01*
X149435614Y-95333685D01*
X149456256Y-95350319D01*
X150186345Y-96080409D01*
X150219830Y-96141732D01*
X150215646Y-96200231D01*
X150216887Y-96200478D01*
X150214922Y-96210353D01*
X150214846Y-96211424D01*
X150214570Y-96212124D01*
X150200000Y-96285373D01*
X150200000Y-97135000D01*
X152050000Y-97135000D01*
X152050000Y-96285373D01*
X152049999Y-96285371D01*
X152035496Y-96212459D01*
X152035494Y-96212455D01*
X151980239Y-96129760D01*
X151897544Y-96074505D01*
X151897540Y-96074503D01*
X151824627Y-96060000D01*
X151642887Y-96060000D01*
X151575848Y-96040315D01*
X151530093Y-95987511D01*
X151520149Y-95918353D01*
X151535500Y-95873999D01*
X151536504Y-95872260D01*
X151542601Y-95861700D01*
X151547503Y-95843402D01*
X151554201Y-95818411D01*
X151561974Y-95789399D01*
X151564000Y-95781839D01*
X151564000Y-94814098D01*
X151583685Y-94747059D01*
X151612511Y-94715724D01*
X151642621Y-94692621D01*
X151730861Y-94577625D01*
X151786330Y-94443709D01*
X151805250Y-94300000D01*
X151805249Y-94299996D01*
X151803048Y-94283280D01*
X151786330Y-94156291D01*
X151730861Y-94022375D01*
X151642621Y-93907379D01*
X151527625Y-93819139D01*
X151527624Y-93819138D01*
X151527622Y-93819137D01*
X151393712Y-93763671D01*
X151393710Y-93763670D01*
X151393709Y-93763670D01*
X151320913Y-93754086D01*
X151250001Y-93744750D01*
X151249999Y-93744750D01*
X151106291Y-93763670D01*
X151071951Y-93777894D01*
X151002482Y-93785362D01*
X150940003Y-93754086D01*
X150904351Y-93693997D01*
X150900500Y-93663332D01*
X150900500Y-93135323D01*
X150900499Y-93135321D01*
X150885967Y-93062264D01*
X150885966Y-93062260D01*
X150882774Y-93057483D01*
X150830601Y-92979399D01*
X150747740Y-92924034D01*
X150747739Y-92924033D01*
X150747735Y-92924032D01*
X150674677Y-92909500D01*
X150674674Y-92909500D01*
X149625326Y-92909500D01*
X149625323Y-92909500D01*
X149552264Y-92924032D01*
X149552260Y-92924033D01*
X149469399Y-92979399D01*
X149414033Y-93062260D01*
X149414032Y-93062264D01*
X149399500Y-93135321D01*
X149399500Y-94384678D01*
X149414032Y-94457735D01*
X149414034Y-94457740D01*
X149437667Y-94493110D01*
X149458545Y-94559786D01*
X149440061Y-94627167D01*
X149388082Y-94673857D01*
X149334565Y-94686000D01*
X147264834Y-94686000D01*
X147197795Y-94666315D01*
X147152040Y-94613511D01*
X147142096Y-94544353D01*
X147161731Y-94493110D01*
X147185495Y-94457543D01*
X147185496Y-94457540D01*
X147199999Y-94384628D01*
X147200000Y-94384626D01*
X147200000Y-93885000D01*
X145700000Y-93885000D01*
X145700000Y-94384628D01*
X145714503Y-94457540D01*
X145714504Y-94457543D01*
X145738269Y-94493110D01*
X145759146Y-94559788D01*
X145740661Y-94627168D01*
X145688682Y-94673857D01*
X145635166Y-94686000D01*
X142603454Y-94686000D01*
X142536415Y-94666315D01*
X142490660Y-94613511D01*
X142480716Y-94544353D01*
X142509741Y-94480797D01*
X142541454Y-94454613D01*
X142595535Y-94423388D01*
X142645861Y-94394333D01*
X142753011Y-94287183D01*
X142828777Y-94155953D01*
X142867996Y-94009584D01*
X142867996Y-93858052D01*
X142828777Y-93711683D01*
X142753011Y-93580453D01*
X142645861Y-93473303D01*
X142640114Y-93467556D01*
X142641067Y-93466602D01*
X142604883Y-93417044D01*
X142600731Y-93347297D01*
X142633893Y-93287419D01*
X142667496Y-93253816D01*
X142667496Y-92803818D01*
X142917496Y-92803818D01*
X142917496Y-93253818D01*
X143416367Y-93253818D01*
X143416369Y-93253817D01*
X143561255Y-93224997D01*
X143561263Y-93224995D01*
X143697750Y-93168460D01*
X143697760Y-93168455D01*
X143747274Y-93135371D01*
X145700000Y-93135371D01*
X145700000Y-93635000D01*
X146325000Y-93635000D01*
X146575000Y-93635000D01*
X147200000Y-93635000D01*
X147200000Y-93135373D01*
X147199999Y-93135371D01*
X147185496Y-93062459D01*
X147185494Y-93062455D01*
X147130239Y-92979760D01*
X147047544Y-92924505D01*
X147047540Y-92924503D01*
X146974627Y-92910000D01*
X146575000Y-92910000D01*
X146575000Y-93635000D01*
X146325000Y-93635000D01*
X146325000Y-92910000D01*
X145925373Y-92910000D01*
X145852459Y-92924503D01*
X145852455Y-92924505D01*
X145769760Y-92979760D01*
X145714505Y-93062455D01*
X145714503Y-93062459D01*
X145700000Y-93135371D01*
X143747274Y-93135371D01*
X143820592Y-93086381D01*
X143820596Y-93086378D01*
X143925056Y-92981918D01*
X143925059Y-92981914D01*
X144007133Y-92859082D01*
X144007138Y-92859072D01*
X144063673Y-92722585D01*
X144063675Y-92722577D01*
X144082325Y-92628818D01*
X143616738Y-92628818D01*
X143622052Y-92619614D01*
X143642496Y-92543314D01*
X143642496Y-92464322D01*
X143622052Y-92388022D01*
X143616738Y-92378818D01*
X144082325Y-92378818D01*
X144082325Y-92378817D01*
X144063675Y-92285058D01*
X144063673Y-92285050D01*
X144007138Y-92148563D01*
X144007133Y-92148553D01*
X143925059Y-92025721D01*
X143925056Y-92025717D01*
X143820596Y-91921257D01*
X143820592Y-91921254D01*
X143697760Y-91839180D01*
X143697750Y-91839175D01*
X143561263Y-91782640D01*
X143561255Y-91782638D01*
X143416368Y-91753818D01*
X142917496Y-91753818D01*
X142917496Y-92203818D01*
X142667496Y-92203818D01*
X142667496Y-91753818D01*
X142168624Y-91753818D01*
X142023736Y-91782638D01*
X142023728Y-91782640D01*
X141887241Y-91839175D01*
X141887231Y-91839180D01*
X141764399Y-91921254D01*
X141764395Y-91921257D01*
X141659935Y-92025717D01*
X141659932Y-92025721D01*
X141577858Y-92148553D01*
X141577853Y-92148563D01*
X141521318Y-92285050D01*
X141521316Y-92285058D01*
X141502666Y-92378817D01*
X141502667Y-92378818D01*
X141968254Y-92378818D01*
X141962940Y-92388022D01*
X141942496Y-92464322D01*
X141942496Y-92543314D01*
X141962940Y-92619614D01*
X141968254Y-92628818D01*
X141502666Y-92628818D01*
X141521316Y-92722577D01*
X141521318Y-92722585D01*
X141577853Y-92859072D01*
X141577858Y-92859082D01*
X141659932Y-92981914D01*
X141659935Y-92981918D01*
X141764395Y-93086378D01*
X141764399Y-93086381D01*
X141887231Y-93168455D01*
X141887244Y-93168462D01*
X141992582Y-93212094D01*
X142046986Y-93255935D01*
X142069051Y-93322229D01*
X142051772Y-93389928D01*
X142007132Y-93434041D01*
X141939134Y-93473301D01*
X141939128Y-93473305D01*
X141831983Y-93580450D01*
X141831981Y-93580453D01*
X141756215Y-93711681D01*
X141725090Y-93827843D01*
X141716996Y-93858052D01*
X141716996Y-94009584D01*
X141720424Y-94022377D01*
X141756215Y-94155954D01*
X141756410Y-94156291D01*
X141831981Y-94287183D01*
X141939131Y-94394333D01*
X141939132Y-94394334D01*
X141939134Y-94394335D01*
X142043538Y-94454613D01*
X142091754Y-94505180D01*
X142104976Y-94573787D01*
X142079008Y-94638652D01*
X142022094Y-94679180D01*
X141981538Y-94686000D01*
X141474000Y-94686000D01*
X141406961Y-94666315D01*
X141361206Y-94613511D01*
X141350000Y-94562000D01*
X141350000Y-94060000D01*
X139500000Y-94060000D01*
X139500000Y-94734628D01*
X139514503Y-94807540D01*
X139514505Y-94807544D01*
X139569760Y-94890239D01*
X139652455Y-94945494D01*
X139672637Y-94949509D01*
X139734548Y-94981894D01*
X139769123Y-95042609D01*
X139765384Y-95112378D01*
X139736128Y-95158808D01*
X136712181Y-98182756D01*
X136650858Y-98216241D01*
X136581166Y-98211257D01*
X136525233Y-98169385D01*
X136500816Y-98103921D01*
X136500500Y-98095075D01*
X136500500Y-92378817D01*
X137472666Y-92378817D01*
X137472667Y-92378818D01*
X137938254Y-92378818D01*
X137932940Y-92388022D01*
X137912496Y-92464322D01*
X137912496Y-92543314D01*
X137932940Y-92619614D01*
X137938254Y-92628818D01*
X137472666Y-92628818D01*
X137491316Y-92722577D01*
X137491318Y-92722585D01*
X137547853Y-92859072D01*
X137547858Y-92859082D01*
X137629932Y-92981914D01*
X137629935Y-92981918D01*
X137734395Y-93086378D01*
X137734399Y-93086381D01*
X137857231Y-93168455D01*
X137857241Y-93168460D01*
X137993728Y-93224995D01*
X137993736Y-93224997D01*
X138138622Y-93253817D01*
X138138625Y-93253818D01*
X138487496Y-93253818D01*
X138487496Y-92803818D01*
X138737496Y-92803818D01*
X138737496Y-93253818D01*
X139086367Y-93253818D01*
X139086369Y-93253817D01*
X139231255Y-93224997D01*
X139231263Y-93224995D01*
X139328547Y-93184699D01*
X139398016Y-93177230D01*
X139460495Y-93208505D01*
X139496148Y-93268594D01*
X139500000Y-93299260D01*
X139500000Y-93810000D01*
X140300000Y-93810000D01*
X140550000Y-93810000D01*
X141350000Y-93810000D01*
X141350000Y-93135373D01*
X141349999Y-93135371D01*
X141335496Y-93062459D01*
X141335494Y-93062455D01*
X141280239Y-92979760D01*
X141197544Y-92924505D01*
X141197540Y-92924503D01*
X141124627Y-92910000D01*
X140550000Y-92910000D01*
X140550000Y-93810000D01*
X140300000Y-93810000D01*
X140300000Y-92910000D01*
X139841623Y-92910000D01*
X139774584Y-92890315D01*
X139728829Y-92837511D01*
X139718885Y-92768353D01*
X139727062Y-92738547D01*
X139733673Y-92722585D01*
X139733675Y-92722577D01*
X139752325Y-92628818D01*
X139286738Y-92628818D01*
X139292052Y-92619614D01*
X139312496Y-92543314D01*
X139312496Y-92464322D01*
X139292052Y-92388022D01*
X139286738Y-92378818D01*
X139752325Y-92378818D01*
X139752325Y-92378817D01*
X139733675Y-92285058D01*
X139733673Y-92285050D01*
X139677138Y-92148563D01*
X139677133Y-92148553D01*
X139595059Y-92025721D01*
X139595056Y-92025717D01*
X139490596Y-91921257D01*
X139490592Y-91921254D01*
X139367760Y-91839180D01*
X139367750Y-91839175D01*
X139231263Y-91782640D01*
X139231255Y-91782638D01*
X139086368Y-91753818D01*
X138737496Y-91753818D01*
X138737496Y-92203818D01*
X138487496Y-92203818D01*
X138487496Y-91753818D01*
X138138624Y-91753818D01*
X137993736Y-91782638D01*
X137993728Y-91782640D01*
X137857241Y-91839175D01*
X137857231Y-91839180D01*
X137734399Y-91921254D01*
X137734395Y-91921257D01*
X137629935Y-92025717D01*
X137629932Y-92025721D01*
X137547858Y-92148553D01*
X137547853Y-92148563D01*
X137491318Y-92285050D01*
X137491316Y-92285058D01*
X137472666Y-92378817D01*
X136500500Y-92378817D01*
X136500500Y-91624000D01*
X136520185Y-91556961D01*
X136572989Y-91511206D01*
X136624500Y-91500000D01*
X160793803Y-91500000D01*
X160860842Y-91519685D01*
G37*
%TD.AperFunction*%
%TA.AperFunction,Conductor*%
G36*
X143537653Y-103287685D02*
G01*
X143583408Y-103340489D01*
X143593352Y-103409647D01*
X143564327Y-103473203D01*
X143558295Y-103479681D01*
X142011681Y-105026295D01*
X141950358Y-105059780D01*
X141880666Y-105054796D01*
X141824733Y-105012924D01*
X141800316Y-104947460D01*
X141800000Y-104938614D01*
X141800000Y-104645373D01*
X141799999Y-104645371D01*
X141785496Y-104572459D01*
X141785494Y-104572455D01*
X141730239Y-104489760D01*
X141647544Y-104434505D01*
X141647540Y-104434503D01*
X141574627Y-104420000D01*
X141224500Y-104420000D01*
X141157461Y-104400315D01*
X141111706Y-104347511D01*
X141100500Y-104296000D01*
X141100500Y-104294911D01*
X141120185Y-104227872D01*
X141136819Y-104207230D01*
X141158495Y-104185554D01*
X141219818Y-104152069D01*
X141262360Y-104150296D01*
X141299986Y-104155250D01*
X141443695Y-104136330D01*
X141577611Y-104080861D01*
X141692607Y-103992621D01*
X141780847Y-103877625D01*
X141836316Y-103743709D01*
X141855236Y-103600000D01*
X141850282Y-103562374D01*
X141861047Y-103493339D01*
X141885534Y-103458513D01*
X142039731Y-103304316D01*
X142101054Y-103270834D01*
X142127411Y-103268000D01*
X143470614Y-103268000D01*
X143537653Y-103287685D01*
G37*
%TD.AperFunction*%
%TA.AperFunction,Conductor*%
G36*
X139418834Y-97145742D02*
G01*
X139474767Y-97187614D01*
X139499184Y-97253078D01*
X139499500Y-97261924D01*
X139499500Y-97944673D01*
X139514644Y-98020810D01*
X139514644Y-98069190D01*
X139499500Y-98145326D01*
X139499500Y-99043814D01*
X139479815Y-99110853D01*
X139427011Y-99156608D01*
X139357853Y-99166552D01*
X139343964Y-99163703D01*
X139200001Y-99144750D01*
X139199999Y-99144750D01*
X139056291Y-99163670D01*
X139056287Y-99163671D01*
X138922377Y-99219137D01*
X138807379Y-99307379D01*
X138719137Y-99422377D01*
X138663671Y-99556287D01*
X138663670Y-99556291D01*
X138644750Y-99700000D01*
X138652160Y-99756287D01*
X138663670Y-99843708D01*
X138663671Y-99843712D01*
X138719137Y-99977622D01*
X138719138Y-99977624D01*
X138719139Y-99977625D01*
X138807379Y-100092621D01*
X138910102Y-100171443D01*
X138951303Y-100227870D01*
X138955458Y-100297617D01*
X138921245Y-100358537D01*
X138859528Y-100391289D01*
X138834614Y-100393818D01*
X138737496Y-100393818D01*
X138737496Y-100843818D01*
X138487496Y-100843818D01*
X138487496Y-100393818D01*
X138138624Y-100393818D01*
X137993736Y-100422638D01*
X137993728Y-100422640D01*
X137857241Y-100479175D01*
X137857231Y-100479180D01*
X137734398Y-100561254D01*
X137733860Y-100561697D01*
X137733522Y-100561840D01*
X137729334Y-100564639D01*
X137728803Y-100563844D01*
X137669549Y-100589009D01*
X137600682Y-100577217D01*
X137549122Y-100530064D01*
X137531196Y-100465843D01*
X137531196Y-98982228D01*
X137550881Y-98915189D01*
X137567510Y-98894552D01*
X139287819Y-97174242D01*
X139349142Y-97140758D01*
X139418834Y-97145742D01*
G37*
%TD.AperFunction*%
%TA.AperFunction,Conductor*%
G36*
X163038039Y-92394685D02*
G01*
X163083794Y-92447489D01*
X163095000Y-92499000D01*
X163095000Y-93450000D01*
X163292828Y-93450000D01*
X163292844Y-93449999D01*
X163360087Y-93442769D01*
X163360390Y-93445592D01*
X163416738Y-93448606D01*
X163473415Y-93489465D01*
X163499005Y-93554480D01*
X163499500Y-93565548D01*
X163499500Y-95034451D01*
X163479815Y-95101490D01*
X163427011Y-95147245D01*
X163360126Y-95156862D01*
X163360087Y-95157231D01*
X163358641Y-95157075D01*
X163357853Y-95157189D01*
X163355436Y-95156730D01*
X163292844Y-95150000D01*
X163095000Y-95150000D01*
X163095000Y-96101000D01*
X163075315Y-96168039D01*
X163022511Y-96213794D01*
X162971000Y-96225000D01*
X162969000Y-96225000D01*
X162901961Y-96205315D01*
X162856206Y-96152511D01*
X162845000Y-96101000D01*
X162845000Y-95150000D01*
X162647155Y-95150000D01*
X162587627Y-95156401D01*
X162587620Y-95156403D01*
X162452913Y-95206645D01*
X162452906Y-95206649D01*
X162330712Y-95298125D01*
X162329893Y-95297031D01*
X162276715Y-95326069D01*
X162207023Y-95321085D01*
X162170001Y-95297291D01*
X162169645Y-95297768D01*
X162162987Y-95292784D01*
X162162676Y-95292584D01*
X162162544Y-95292452D01*
X162047335Y-95206206D01*
X162047328Y-95206202D01*
X161924667Y-95160453D01*
X161868733Y-95118582D01*
X161844316Y-95053118D01*
X161844000Y-95044271D01*
X161844000Y-94814094D01*
X161863685Y-94747055D01*
X161892511Y-94715720D01*
X161922621Y-94692617D01*
X162010861Y-94577621D01*
X162066330Y-94443705D01*
X162085250Y-94299996D01*
X162066330Y-94156287D01*
X162026447Y-94060000D01*
X162010862Y-94022373D01*
X162010861Y-94022372D01*
X162010861Y-94022371D01*
X161922621Y-93907375D01*
X161922618Y-93907373D01*
X161922617Y-93907371D01*
X161892513Y-93884271D01*
X161851310Y-93827843D01*
X161844000Y-93785896D01*
X161844000Y-93555728D01*
X161863685Y-93488689D01*
X161916489Y-93442934D01*
X161924660Y-93439548D01*
X162047331Y-93393796D01*
X162162546Y-93307546D01*
X162162548Y-93307542D01*
X162162676Y-93307416D01*
X162162839Y-93307326D01*
X162169645Y-93302232D01*
X162170377Y-93303210D01*
X162223999Y-93273931D01*
X162293691Y-93278915D01*
X162330291Y-93302437D01*
X162330712Y-93301875D01*
X162452906Y-93393350D01*
X162452913Y-93393354D01*
X162587620Y-93443596D01*
X162587627Y-93443598D01*
X162647155Y-93449999D01*
X162647172Y-93450000D01*
X162845000Y-93450000D01*
X162845000Y-92499000D01*
X162864685Y-92431961D01*
X162917489Y-92386206D01*
X162969000Y-92375000D01*
X162971000Y-92375000D01*
X163038039Y-92394685D01*
G37*
%TD.AperFunction*%
%TD*%
M02*
