%TF.GenerationSoftware,KiCad,Pcbnew,8.0.4*%
%TF.CreationDate,2024-07-26T12:29:51+01:00*%
%TF.ProjectId,beeb_wifiport,62656562-5f77-4696-9669-706f72742e6b,rev?*%
%TF.SameCoordinates,Original*%
%TF.FileFunction,Copper,L1,Top*%
%TF.FilePolarity,Positive*%
%FSLAX46Y46*%
G04 Gerber Fmt 4.6, Leading zero omitted, Abs format (unit mm)*
G04 Created by KiCad (PCBNEW 8.0.4) date 2024-07-26 12:29:51*
%MOMM*%
%LPD*%
G01*
G04 APERTURE LIST*
G04 Aperture macros list*
%AMRoundRect*
0 Rectangle with rounded corners*
0 $1 Rounding radius*
0 $2 $3 $4 $5 $6 $7 $8 $9 X,Y pos of 4 corners*
0 Add a 4 corners polygon primitive as box body*
4,1,4,$2,$3,$4,$5,$6,$7,$8,$9,$2,$3,0*
0 Add four circle primitives for the rounded corners*
1,1,$1+$1,$2,$3*
1,1,$1+$1,$4,$5*
1,1,$1+$1,$6,$7*
1,1,$1+$1,$8,$9*
0 Add four rect primitives between the rounded corners*
20,1,$1+$1,$2,$3,$4,$5,0*
20,1,$1+$1,$4,$5,$6,$7,0*
20,1,$1+$1,$6,$7,$8,$9,0*
20,1,$1+$1,$8,$9,$2,$3,0*%
%AMOutline5P*
0 Free polygon, 5 corners , with rotation*
0 The origin of the aperture is its center*
0 number of corners: always 5*
0 $1 to $10 corner X, Y*
0 $11 Rotation angle, in degrees counterclockwise*
0 create outline with 5 corners*
4,1,5,$1,$2,$3,$4,$5,$6,$7,$8,$9,$10,$1,$2,$11*%
%AMOutline6P*
0 Free polygon, 6 corners , with rotation*
0 The origin of the aperture is its center*
0 number of corners: always 6*
0 $1 to $12 corner X, Y*
0 $13 Rotation angle, in degrees counterclockwise*
0 create outline with 6 corners*
4,1,6,$1,$2,$3,$4,$5,$6,$7,$8,$9,$10,$11,$12,$1,$2,$13*%
%AMOutline7P*
0 Free polygon, 7 corners , with rotation*
0 The origin of the aperture is its center*
0 number of corners: always 7*
0 $1 to $14 corner X, Y*
0 $15 Rotation angle, in degrees counterclockwise*
0 create outline with 7 corners*
4,1,7,$1,$2,$3,$4,$5,$6,$7,$8,$9,$10,$11,$12,$13,$14,$1,$2,$15*%
%AMOutline8P*
0 Free polygon, 8 corners , with rotation*
0 The origin of the aperture is its center*
0 number of corners: always 8*
0 $1 to $16 corner X, Y*
0 $17 Rotation angle, in degrees counterclockwise*
0 create outline with 8 corners*
4,1,8,$1,$2,$3,$4,$5,$6,$7,$8,$9,$10,$11,$12,$13,$14,$15,$16,$1,$2,$17*%
G04 Aperture macros list end*
%TA.AperFunction,SMDPad,CuDef*%
%ADD10RoundRect,0.225000X-0.225000X-0.250000X0.225000X-0.250000X0.225000X0.250000X-0.225000X0.250000X0*%
%TD*%
%TA.AperFunction,SMDPad,CuDef*%
%ADD11RoundRect,0.140000X0.140000X0.170000X-0.140000X0.170000X-0.140000X-0.170000X0.140000X-0.170000X0*%
%TD*%
%TA.AperFunction,SMDPad,CuDef*%
%ADD12R,0.900000X0.350000*%
%TD*%
%TA.AperFunction,SMDPad,CuDef*%
%ADD13RoundRect,0.140000X-0.140000X-0.170000X0.140000X-0.170000X0.140000X0.170000X-0.140000X0.170000X0*%
%TD*%
%TA.AperFunction,SMDPad,CuDef*%
%ADD14R,0.800000X0.400000*%
%TD*%
%TA.AperFunction,SMDPad,CuDef*%
%ADD15R,0.400000X0.800000*%
%TD*%
%TA.AperFunction,SMDPad,CuDef*%
%ADD16Outline5P,-0.600000X0.204000X-0.204000X0.600000X0.600000X0.600000X0.600000X-0.600000X-0.600000X-0.600000X0.000000*%
%TD*%
%TA.AperFunction,SMDPad,CuDef*%
%ADD17R,1.200000X1.200000*%
%TD*%
%TA.AperFunction,SMDPad,CuDef*%
%ADD18R,0.800000X0.800000*%
%TD*%
%TA.AperFunction,SMDPad,CuDef*%
%ADD19RoundRect,0.225000X0.225000X0.250000X-0.225000X0.250000X-0.225000X-0.250000X0.225000X-0.250000X0*%
%TD*%
%TA.AperFunction,SMDPad,CuDef*%
%ADD20RoundRect,0.135000X0.185000X-0.135000X0.185000X0.135000X-0.185000X0.135000X-0.185000X-0.135000X0*%
%TD*%
%TA.AperFunction,SMDPad,CuDef*%
%ADD21R,0.350000X0.850000*%
%TD*%
%TA.AperFunction,SMDPad,CuDef*%
%ADD22R,1.600000X1.020000*%
%TD*%
%TA.AperFunction,SMDPad,CuDef*%
%ADD23R,0.863600X0.203200*%
%TD*%
%TA.AperFunction,SMDPad,CuDef*%
%ADD24R,0.203200X0.863600*%
%TD*%
%TA.AperFunction,SMDPad,CuDef*%
%ADD25RoundRect,0.135000X-0.185000X0.135000X-0.185000X-0.135000X0.185000X-0.135000X0.185000X0.135000X0*%
%TD*%
%TA.AperFunction,SMDPad,CuDef*%
%ADD26RoundRect,0.150000X-0.425000X0.150000X-0.425000X-0.150000X0.425000X-0.150000X0.425000X0.150000X0*%
%TD*%
%TA.AperFunction,SMDPad,CuDef*%
%ADD27RoundRect,0.075000X-0.500000X0.075000X-0.500000X-0.075000X0.500000X-0.075000X0.500000X0.075000X0*%
%TD*%
%TA.AperFunction,ComponentPad*%
%ADD28O,2.100000X1.000000*%
%TD*%
%TA.AperFunction,ComponentPad*%
%ADD29O,1.800000X1.000000*%
%TD*%
%TA.AperFunction,SMDPad,CuDef*%
%ADD30RoundRect,0.100000X-0.150000X-0.100000X0.150000X-0.100000X0.150000X0.100000X-0.150000X0.100000X0*%
%TD*%
%TA.AperFunction,SMDPad,CuDef*%
%ADD31R,1.100000X1.600000*%
%TD*%
%TA.AperFunction,SMDPad,CuDef*%
%ADD32R,0.250000X0.400000*%
%TD*%
%TA.AperFunction,ComponentPad*%
%ADD33R,1.700000X1.700000*%
%TD*%
%TA.AperFunction,ComponentPad*%
%ADD34O,1.700000X1.700000*%
%TD*%
%TA.AperFunction,ViaPad*%
%ADD35C,0.600000*%
%TD*%
%TA.AperFunction,Conductor*%
%ADD36C,0.152400*%
%TD*%
%TA.AperFunction,Conductor*%
%ADD37C,0.127000*%
%TD*%
G04 APERTURE END LIST*
D10*
%TO.P,C1,1*%
%TO.N,Net-(D1-K)*%
X145375000Y-99050000D03*
%TO.P,C1,2*%
%TO.N,GND*%
X146925000Y-99050000D03*
%TD*%
D11*
%TO.P,C5,1*%
%TO.N,GND*%
X141930000Y-107000000D03*
%TO.P,C5,2*%
%TO.N,+5V_BBC*%
X140970000Y-107000000D03*
%TD*%
%TO.P,C3,1*%
%TO.N,GND*%
X146680000Y-94700000D03*
%TO.P,C3,2*%
%TO.N,+3.3V*%
X145720000Y-94700000D03*
%TD*%
D12*
%TO.P,RN1,1,common*%
%TO.N,+3.3V*%
X137575000Y-103220000D03*
X138825000Y-105780000D03*
%TO.P,RN1,2,R1*%
%TO.N,/SD_D3*%
X138825000Y-103220000D03*
%TO.P,RN1,3,R2*%
%TO.N,/SD_D2*%
X137575000Y-103860000D03*
%TO.P,RN1,4,R3*%
%TO.N,/SD_CMD*%
X138825000Y-103860000D03*
%TO.P,RN1,5,R4*%
%TO.N,unconnected-(RN1-R4-Pad5)*%
X137575000Y-104500000D03*
%TO.P,RN1,6,R5*%
%TO.N,/SD_D0*%
X138825000Y-104500000D03*
%TO.P,RN1,7,R6*%
%TO.N,unconnected-(RN1-R6-Pad7)*%
X137575000Y-105140000D03*
%TO.P,RN1,8,R7*%
%TO.N,/SD_D1*%
X138825000Y-105140000D03*
%TO.P,RN1,9,R8*%
%TO.N,/RESET*%
X137575000Y-105780000D03*
%TD*%
D13*
%TO.P,C4,1*%
%TO.N,/RESET*%
X137720000Y-106950000D03*
%TO.P,C4,2*%
%TO.N,GND*%
X138680000Y-106950000D03*
%TD*%
D14*
%TO.P,U1,1,GND*%
%TO.N,GND*%
X148750000Y-93350000D03*
%TO.P,U1,2,GND*%
X148750000Y-94200000D03*
%TO.P,U1,3,3V3*%
%TO.N,+3.3V*%
X148750000Y-95050000D03*
%TO.P,U1,4,IO0*%
%TO.N,/BOOT*%
X148750000Y-95900000D03*
%TO.P,U1,5,IO1*%
%TO.N,unconnected-(U1-IO1-Pad5)*%
X148750000Y-96750000D03*
%TO.P,U1,6,IO2*%
%TO.N,unconnected-(U1-IO2-Pad6)*%
X148750000Y-97600000D03*
%TO.P,U1,7,IO3*%
%TO.N,unconnected-(U1-IO3-Pad7)*%
X148750000Y-98450000D03*
%TO.P,U1,8,IO4*%
%TO.N,unconnected-(U1-IO4-Pad8)*%
X148750000Y-99300000D03*
%TO.P,U1,9,IO5*%
%TO.N,unconnected-(U1-IO5-Pad9)*%
X148750000Y-100150000D03*
%TO.P,U1,10,IO6*%
%TO.N,unconnected-(U1-IO6-Pad10)*%
X148750000Y-101000000D03*
%TO.P,U1,11,IO7*%
%TO.N,unconnected-(U1-IO7-Pad11)*%
X148750000Y-101850000D03*
%TO.P,U1,12,IO8*%
%TO.N,unconnected-(U1-IO8-Pad12)*%
X148750000Y-102700000D03*
%TO.P,U1,13,IO9*%
%TO.N,unconnected-(U1-IO9-Pad13)*%
X148750000Y-103550000D03*
%TO.P,U1,14,IO10*%
%TO.N,unconnected-(U1-IO10-Pad14)*%
X148750000Y-104400000D03*
%TO.P,U1,15,IO11*%
%TO.N,unconnected-(U1-IO11-Pad15)*%
X148750000Y-105250000D03*
D15*
%TO.P,U1,16,IO12*%
%TO.N,/PB0*%
X149800000Y-106300000D03*
%TO.P,U1,17,IO13*%
%TO.N,/PB1*%
X150650000Y-106300000D03*
%TO.P,U1,18,IO14*%
%TO.N,/PB6*%
X151500000Y-106300000D03*
%TO.P,U1,19,IO15*%
%TO.N,/PB7*%
X152350000Y-106300000D03*
%TO.P,U1,20,IO16*%
%TO.N,unconnected-(U1-IO16-Pad20)*%
X153200000Y-106300000D03*
%TO.P,U1,21,IO17*%
%TO.N,unconnected-(U1-IO17-Pad21)*%
X154050000Y-106300000D03*
%TO.P,U1,22,IO18*%
%TO.N,unconnected-(U1-IO18-Pad22)*%
X154900000Y-106300000D03*
%TO.P,U1,23,IO19*%
%TO.N,/USB_D-*%
X155750000Y-106300000D03*
%TO.P,U1,24,IO20*%
%TO.N,/USB_D+*%
X156600000Y-106300000D03*
%TO.P,U1,25,IO21*%
%TO.N,unconnected-(U1-IO21-Pad25)*%
X157450000Y-106300000D03*
%TO.P,U1,26,IO26*%
%TO.N,unconnected-(U1-IO26-Pad26)*%
X158300000Y-106300000D03*
%TO.P,U1,27,IO47*%
%TO.N,unconnected-(U1-IO47-Pad27)*%
X159150000Y-106300000D03*
%TO.P,U1,28,IO33*%
%TO.N,/SD_D2*%
X160000000Y-106300000D03*
%TO.P,U1,29,IO34*%
%TO.N,/SD_D3*%
X160850000Y-106300000D03*
%TO.P,U1,30,IO48*%
%TO.N,unconnected-(U1-IO48-Pad30)*%
X161700000Y-106300000D03*
D14*
%TO.P,U1,31,IO35*%
%TO.N,/SD_CMD*%
X162750000Y-105250000D03*
%TO.P,U1,32,IO36*%
%TO.N,/SD_CLK*%
X162750000Y-104400000D03*
%TO.P,U1,33,IO37*%
%TO.N,/SD_D0*%
X162750000Y-103550000D03*
%TO.P,U1,34,IO38*%
%TO.N,/SD_D1*%
X162750000Y-102700000D03*
%TO.P,U1,35,IO39*%
%TO.N,/SD_DET*%
X162750000Y-101850000D03*
%TO.P,U1,36,IO40*%
%TO.N,unconnected-(U1-IO40-Pad36)*%
X162750000Y-101000000D03*
%TO.P,U1,37,IO41*%
%TO.N,unconnected-(U1-IO41-Pad37)*%
X162750000Y-100150000D03*
%TO.P,U1,38,IO42*%
%TO.N,unconnected-(U1-IO42-Pad38)*%
X162750000Y-99300000D03*
%TO.P,U1,39,TXD0*%
%TO.N,unconnected-(U1-TXD0-Pad39)*%
X162750000Y-98450000D03*
%TO.P,U1,40,RXD0*%
%TO.N,unconnected-(U1-RXD0-Pad40)*%
X162750000Y-97600000D03*
%TO.P,U1,41,IO45*%
%TO.N,unconnected-(U1-IO45-Pad41)*%
X162750000Y-96750000D03*
%TO.P,U1,42,GND*%
%TO.N,GND*%
X162750000Y-95900000D03*
%TO.P,U1,43,GND*%
X162750000Y-95050000D03*
%TO.P,U1,44,IO46*%
%TO.N,unconnected-(U1-IO46-Pad44)*%
X162750000Y-94200000D03*
%TO.P,U1,45,EN*%
%TO.N,/RESET*%
X162750000Y-93350000D03*
D15*
%TO.P,U1,46,GND*%
%TO.N,GND*%
X161700000Y-92300000D03*
%TO.P,U1,47,GND*%
X160850000Y-92300000D03*
%TO.P,U1,48,GND*%
X160000000Y-92300000D03*
%TO.P,U1,49,GND*%
X159150000Y-92300000D03*
%TO.P,U1,50,GND*%
X158300000Y-92300000D03*
%TO.P,U1,51,GND*%
X157450000Y-92300000D03*
%TO.P,U1,52,GND*%
X156600000Y-92300000D03*
%TO.P,U1,53,GND*%
X155750000Y-92300000D03*
%TO.P,U1,54,GND*%
X154900000Y-92300000D03*
%TO.P,U1,55,GND*%
X154050000Y-92300000D03*
%TO.P,U1,56,GND*%
X153200000Y-92300000D03*
%TO.P,U1,57,GND*%
X152350000Y-92300000D03*
%TO.P,U1,58,GND*%
X151500000Y-92300000D03*
%TO.P,U1,59,GND*%
X150650000Y-92300000D03*
%TO.P,U1,60,GND*%
X149800000Y-92300000D03*
D16*
%TO.P,U1,61,GND*%
X154100000Y-97650000D03*
D17*
X154100000Y-99300000D03*
X154100000Y-100950000D03*
X155750000Y-97650000D03*
X155750000Y-99300000D03*
X155750000Y-100950000D03*
X157400000Y-97650000D03*
X157400000Y-99300000D03*
X157400000Y-100950000D03*
D18*
%TO.P,U1,62,GND*%
X148750000Y-92300000D03*
%TO.P,U1,63,GND*%
X148750000Y-106300000D03*
%TO.P,U1,64,GND*%
X162750000Y-106300000D03*
%TO.P,U1,65,GND*%
X162750000Y-92300000D03*
%TD*%
D19*
%TO.P,C2,1*%
%TO.N,+3.3V*%
X146925000Y-104350000D03*
%TO.P,C2,2*%
%TO.N,GND*%
X145375000Y-104350000D03*
%TD*%
D20*
%TO.P,R1,1*%
%TO.N,Net-(J2-CC1)*%
X145600000Y-93460000D03*
%TO.P,R1,2*%
%TO.N,GND*%
X145600000Y-92440000D03*
%TD*%
D21*
%TO.P,U3,1,GND*%
%TO.N,GND*%
X145650000Y-102750000D03*
%TO.P,U3,2,SENSE*%
%TO.N,+3.3V*%
X146150000Y-102750000D03*
%TO.P,U3,3,VOUT*%
X146650000Y-102750000D03*
%TO.P,U3,4,VIN*%
%TO.N,Net-(D1-K)*%
X146650000Y-100600000D03*
%TO.P,U3,5,NC*%
%TO.N,unconnected-(U3-NC-Pad5)*%
X146150000Y-100600000D03*
%TO.P,U3,6,EN*%
%TO.N,Net-(D1-K)*%
X145650000Y-100600000D03*
D22*
%TO.P,U3,7,GND*%
%TO.N,GND*%
X146150000Y-101675000D03*
%TD*%
D23*
%TO.P,U4,1,VCCA*%
%TO.N,+3.3V*%
X143224700Y-105750001D03*
%TO.P,U4,2,A1*%
%TO.N,/PB7*%
X143224700Y-105349999D03*
%TO.P,U4,3,A2*%
%TO.N,/PB6*%
X143224700Y-104950000D03*
%TO.P,U4,4,A3*%
%TO.N,/PB1*%
X143224700Y-104550001D03*
%TO.P,U4,5,A4*%
%TO.N,/PB0*%
X143224700Y-104149999D03*
D24*
%TO.P,U4,6,GND*%
%TO.N,GND*%
X142450000Y-104022900D03*
D23*
%TO.P,U4,7,B4*%
%TO.N,Net-(J1-Pin_6)*%
X141675300Y-104149999D03*
%TO.P,U4,8,B3*%
%TO.N,Net-(J1-Pin_8)*%
X141675300Y-104550001D03*
%TO.P,U4,9,B2*%
%TO.N,Net-(J1-Pin_18)*%
X141675300Y-104950000D03*
%TO.P,U4,10,B1*%
%TO.N,Net-(J1-Pin_20)*%
X141675300Y-105349999D03*
%TO.P,U4,11,VCCB*%
%TO.N,+5V_BBC*%
X141675300Y-105750001D03*
D24*
%TO.P,U4,12,OE*%
%TO.N,+3.3V*%
X142450000Y-105877100D03*
%TD*%
D13*
%TO.P,C6,1*%
%TO.N,GND*%
X142970000Y-107000000D03*
%TO.P,C6,2*%
%TO.N,+3.3V*%
X143930000Y-107000000D03*
%TD*%
D25*
%TO.P,R2,1*%
%TO.N,GND*%
X146805000Y-92440000D03*
%TO.P,R2,2*%
%TO.N,Net-(J2-CC2)*%
X146805000Y-93460000D03*
%TD*%
D26*
%TO.P,J2,A1,GND*%
%TO.N,GND*%
X143367496Y-93623818D03*
%TO.P,J2,A4,VBUS*%
%TO.N,+5V_USB*%
X143367496Y-94423818D03*
D27*
%TO.P,J2,A5,CC1*%
%TO.N,Net-(J2-CC1)*%
X143367496Y-95573818D03*
%TO.P,J2,A6,D+*%
%TO.N,/USB_D+*%
X143367496Y-96573818D03*
%TO.P,J2,A7,D-*%
%TO.N,/USB_D-*%
X143367496Y-97073818D03*
%TO.P,J2,A8,SBU1*%
%TO.N,unconnected-(J2-SBU1-PadA8)*%
X143367496Y-98073818D03*
D26*
%TO.P,J2,A9,VBUS*%
%TO.N,+5V_USB*%
X143367496Y-99223818D03*
%TO.P,J2,A12,GND*%
%TO.N,GND*%
X143367496Y-100023818D03*
%TO.P,J2,B1,GND*%
X143367496Y-100023818D03*
%TO.P,J2,B4,VBUS*%
%TO.N,+5V_USB*%
X143367496Y-99223818D03*
D27*
%TO.P,J2,B5,CC2*%
%TO.N,Net-(J2-CC2)*%
X143367496Y-98573818D03*
%TO.P,J2,B6,D+*%
%TO.N,/USB_D+*%
X143367496Y-97573818D03*
%TO.P,J2,B7,D-*%
%TO.N,/USB_D-*%
X143367496Y-96073818D03*
%TO.P,J2,B8,SBU2*%
%TO.N,unconnected-(J2-SBU2-PadB8)*%
X143367496Y-95073818D03*
D26*
%TO.P,J2,B9,VBUS*%
%TO.N,+5V_USB*%
X143367496Y-94423818D03*
%TO.P,J2,B12,GND*%
%TO.N,GND*%
X143367496Y-93623818D03*
D28*
%TO.P,J2,S1,SHIELD*%
X142792496Y-92503818D03*
D29*
X138612496Y-92503818D03*
D28*
X142792496Y-101143818D03*
D29*
X138612496Y-101143818D03*
%TD*%
D30*
%TO.P,D1,1,A*%
%TO.N,+5V_USB*%
X145385608Y-96075000D03*
%TO.P,D1,2,A*%
%TO.N,+5V_BBC*%
X145385608Y-97375000D03*
D31*
%TO.P,D1,3,K*%
%TO.N,Net-(D1-K)*%
X146435608Y-96725000D03*
D32*
X147110608Y-96725000D03*
%TD*%
D33*
%TO.P,J1,1,Pin_1*%
%TO.N,+5V_BBC*%
X138550000Y-109960000D03*
D34*
%TO.P,J1,2,Pin_2*%
%TO.N,unconnected-(J1-Pin_2-Pad2)*%
X138550000Y-112500000D03*
%TO.P,J1,3,Pin_3*%
%TO.N,+5V_BBC*%
X141090000Y-109960000D03*
%TO.P,J1,4,Pin_4*%
%TO.N,unconnected-(J1-Pin_4-Pad4)*%
X141090000Y-112500000D03*
%TO.P,J1,5,Pin_5*%
%TO.N,GND*%
X143630000Y-109960000D03*
%TO.P,J1,6,Pin_6*%
%TO.N,Net-(J1-Pin_6)*%
X143630000Y-112500000D03*
%TO.P,J1,7,Pin_7*%
%TO.N,GND*%
X146170000Y-109960000D03*
%TO.P,J1,8,Pin_8*%
%TO.N,Net-(J1-Pin_8)*%
X146170000Y-112500000D03*
%TO.P,J1,9,Pin_9*%
%TO.N,GND*%
X148710000Y-109960000D03*
%TO.P,J1,10,Pin_10*%
%TO.N,unconnected-(J1-Pin_10-Pad10)*%
X148710000Y-112500000D03*
%TO.P,J1,11,Pin_11*%
%TO.N,GND*%
X151250000Y-109960000D03*
%TO.P,J1,12,Pin_12*%
%TO.N,unconnected-(J1-Pin_12-Pad12)*%
X151250000Y-112500000D03*
%TO.P,J1,13,Pin_13*%
%TO.N,GND*%
X153790000Y-109960000D03*
%TO.P,J1,14,Pin_14*%
%TO.N,unconnected-(J1-Pin_14-Pad14)*%
X153790000Y-112500000D03*
%TO.P,J1,15,Pin_15*%
%TO.N,GND*%
X156330000Y-109960000D03*
%TO.P,J1,16,Pin_16*%
%TO.N,unconnected-(J1-Pin_16-Pad16)*%
X156330000Y-112500000D03*
%TO.P,J1,17,Pin_17*%
%TO.N,GND*%
X158870000Y-109960000D03*
%TO.P,J1,18,Pin_18*%
%TO.N,Net-(J1-Pin_18)*%
X158870000Y-112500000D03*
%TO.P,J1,19,Pin_19*%
%TO.N,GND*%
X161410000Y-109960000D03*
%TO.P,J1,20,Pin_20*%
%TO.N,Net-(J1-Pin_20)*%
X161410000Y-112500000D03*
%TD*%
D35*
%TO.N,GND*%
X149650000Y-105400000D03*
X158300000Y-93300000D03*
X154900000Y-99300000D03*
X153200000Y-93300000D03*
X161850000Y-105400000D03*
X157400000Y-98450000D03*
X147800000Y-92300000D03*
X154900000Y-97650000D03*
X147150000Y-98050000D03*
X151500000Y-93300000D03*
X158200000Y-95049997D03*
X155750000Y-100150000D03*
X154100000Y-98450000D03*
X154900000Y-93300000D03*
X156550000Y-97650000D03*
X142900000Y-103500000D03*
X155750000Y-98450000D03*
X138680000Y-107906542D03*
X154100000Y-100150000D03*
X160000000Y-93300000D03*
X154900000Y-100950000D03*
X156550000Y-99350000D03*
X156600000Y-93300000D03*
X157400000Y-100150000D03*
X156550000Y-100950000D03*
%TO.N,+3.3V*%
X149800004Y-100763500D03*
X147100000Y-105800006D03*
X144700000Y-107000008D03*
X139200000Y-99700000D03*
%TO.N,/RESET*%
X137700000Y-107906542D03*
X151250000Y-94300000D03*
X161530000Y-94299996D03*
%TO.N,/USB_D+*%
X144448757Y-95674703D03*
X156550000Y-102900000D03*
%TO.N,/USB_D-*%
X142300000Y-95700000D03*
X155750000Y-102900000D03*
%TO.N,/SD_CMD*%
X159600000Y-104999480D03*
X141300000Y-98595000D03*
%TO.N,/SD_D2*%
X137333400Y-102375000D03*
X157350000Y-102900000D03*
%TO.N,/SD_D3*%
X160400000Y-105000000D03*
X141300006Y-97495000D03*
%TO.N,/SD_D0*%
X141300006Y-102700000D03*
X158000000Y-105002323D03*
%TO.N,/SD_DET*%
X150650000Y-95300000D03*
%TO.N,/SD_D1*%
X141299986Y-103600000D03*
X157199996Y-104999996D03*
%TO.N,/SD_CLK*%
X158800000Y-105000000D03*
%TO.N,/BOOT*%
X161530000Y-99900000D03*
%TO.N,+5V_BBC*%
X141800000Y-107900000D03*
X144375000Y-103125000D03*
%TD*%
D36*
%TO.N,GND*%
X145160000Y-92440000D02*
X146805000Y-92440000D01*
X145650000Y-102175000D02*
X146150000Y-101675000D01*
X145650000Y-102750000D02*
X145650000Y-102175000D01*
X147800000Y-92300000D02*
X148750000Y-92300000D01*
X154100000Y-97650000D02*
X154100000Y-98450000D01*
X142792496Y-92503818D02*
X142792496Y-93048818D01*
X158300000Y-92300000D02*
X158300000Y-93300000D01*
X156550000Y-99350000D02*
X156600000Y-99300000D01*
X146740000Y-92350000D02*
X146690000Y-92400000D01*
X154100000Y-99300000D02*
X154900000Y-99300000D01*
X146925000Y-99050000D02*
X146925000Y-98275000D01*
X154100000Y-100950000D02*
X154900000Y-100950000D01*
X157400000Y-98500000D02*
X157400000Y-99300000D01*
X162750000Y-108620000D02*
X162750000Y-106300000D01*
X157400000Y-100950000D02*
X157400000Y-100150000D01*
X155750000Y-100150000D02*
X155750000Y-100950000D01*
X144478208Y-108278208D02*
X146160000Y-109960000D01*
X146600000Y-106600000D02*
X148450000Y-106600000D01*
X162750000Y-92300000D02*
X149400000Y-92300000D01*
X155750000Y-97650000D02*
X155750000Y-98500000D01*
X146690000Y-94710000D02*
X146680000Y-94700000D01*
X148750000Y-92300000D02*
X148750000Y-94200000D01*
X154900000Y-92300000D02*
X154900000Y-93300000D01*
X145375000Y-104350000D02*
X144350000Y-104350000D01*
X145375000Y-104350000D02*
X145375000Y-105375000D01*
D37*
X142450000Y-104022900D02*
X142450000Y-103950000D01*
D36*
X142970000Y-107000000D02*
X142970000Y-107335000D01*
X156600000Y-99300000D02*
X157400000Y-99300000D01*
X153200000Y-92300000D02*
X153200000Y-93300000D01*
X144350000Y-104350000D02*
X143500000Y-103500000D01*
X143913208Y-108278208D02*
X144478208Y-108278208D01*
X145650000Y-104075000D02*
X145650000Y-102750000D01*
X143367496Y-93623818D02*
X143976182Y-93623818D01*
X148450000Y-106600000D02*
X148750000Y-106300000D01*
D37*
X142450000Y-103950000D02*
X142900000Y-103500000D01*
D36*
X146690000Y-94770000D02*
X146690000Y-94710000D01*
D37*
X158200003Y-95050000D02*
X162750000Y-95050000D01*
D36*
X143976182Y-93623818D02*
X145160000Y-92440000D01*
X161410000Y-109960000D02*
X162750000Y-108620000D01*
X154900000Y-100950000D02*
X156550000Y-100950000D01*
X157400000Y-100150000D02*
X157400000Y-99300000D01*
X156600000Y-92300000D02*
X156600000Y-93300000D01*
X147200000Y-101100000D02*
X146625000Y-101675000D01*
X146680000Y-94670000D02*
X147150000Y-94200000D01*
X156550000Y-97650000D02*
X154900000Y-97650000D01*
X161850000Y-105400000D02*
X162750000Y-106300000D01*
X143367496Y-100023818D02*
X142792496Y-100598818D01*
X146660000Y-92430000D02*
X146690000Y-92400000D01*
X147200000Y-99325000D02*
X147200000Y-101100000D01*
X142792496Y-100598818D02*
X142792496Y-101143818D01*
X145375000Y-104350000D02*
X145650000Y-104075000D01*
X154900000Y-97650000D02*
X154100000Y-97650000D01*
X151500000Y-92300000D02*
X151500000Y-93300000D01*
X147150000Y-94200000D02*
X148750000Y-94200000D01*
X142970000Y-107335000D02*
X143913208Y-108278208D01*
X149400000Y-92300000D02*
X148750000Y-92300000D01*
X160000000Y-92300000D02*
X160000000Y-93300000D01*
X154100000Y-98450000D02*
X154100000Y-100150000D01*
X146625000Y-101675000D02*
X146150000Y-101675000D01*
X145375000Y-105375000D02*
X146600000Y-106600000D01*
X156500000Y-99300000D02*
X156550000Y-99350000D01*
X157400000Y-97650000D02*
X156550000Y-97650000D01*
X146680000Y-94700000D02*
X146680000Y-94670000D01*
X154900000Y-99300000D02*
X156500000Y-99300000D01*
X155750000Y-98500000D02*
X155750000Y-100150000D01*
X146160000Y-109960000D02*
X146170000Y-109960000D01*
X142900000Y-103500000D02*
X142792496Y-103392496D01*
X138680000Y-107900000D02*
X138680000Y-106950000D01*
X146925000Y-98275000D02*
X147150000Y-98050000D01*
D37*
X158200000Y-95049997D02*
X158200003Y-95050000D01*
D36*
X156550000Y-100950000D02*
X157400000Y-100950000D01*
X157400000Y-97650000D02*
X157400000Y-98500000D01*
X146925000Y-99050000D02*
X147200000Y-99325000D01*
X143500000Y-103500000D02*
X142900000Y-103500000D01*
D37*
X162750000Y-95050000D02*
X162750000Y-95900000D01*
D36*
X141930000Y-107000000D02*
X142970000Y-107000000D01*
X142792496Y-93048818D02*
X143367496Y-93623818D01*
X149576346Y-105473654D02*
X148750000Y-106300000D01*
X154100000Y-100150000D02*
X154100000Y-100950000D01*
%TO.N,+3.3V*%
X146925000Y-105625006D02*
X147100000Y-105800006D01*
D37*
X142577099Y-105750001D02*
X143224700Y-105750001D01*
D36*
X143930000Y-105880000D02*
X143800001Y-105750001D01*
X143930000Y-107000000D02*
X143930000Y-105880000D01*
X143930000Y-107000000D02*
X144450000Y-107000000D01*
X148750000Y-95050000D02*
X148250000Y-95050000D01*
X138825000Y-105780000D02*
X139450000Y-106405000D01*
X147700000Y-103575000D02*
X147700000Y-101000000D01*
X137575000Y-103220000D02*
X137900000Y-102895000D01*
X146925000Y-104350000D02*
X147700000Y-103575000D01*
X146150000Y-102750000D02*
X146150000Y-103050000D01*
X139450000Y-108050000D02*
X138923800Y-108576200D01*
D37*
X142450000Y-105877100D02*
X142577099Y-105750001D01*
D36*
X145720000Y-94700000D02*
X145720000Y-94720000D01*
X146650000Y-104075000D02*
X146925000Y-104350000D01*
X146925000Y-104350000D02*
X146925000Y-105625006D01*
X146650000Y-102750000D02*
X146650000Y-103550000D01*
X146650000Y-102750000D02*
X146150000Y-102750000D01*
X137126200Y-108576200D02*
X136633300Y-108083300D01*
X136633300Y-100866700D02*
X137200000Y-100300000D01*
X137800000Y-99700000D02*
X139200000Y-99700000D01*
X143800001Y-105750001D02*
X143224700Y-105750001D01*
X147700000Y-101000000D02*
X147700000Y-95600000D01*
X147700000Y-101000000D02*
X147700000Y-100650000D01*
X148050000Y-95250000D02*
X148200000Y-95100000D01*
X137900000Y-102150000D02*
X137200000Y-101450000D01*
X145720000Y-94720000D02*
X146250000Y-95250000D01*
X147700000Y-95600000D02*
X148200000Y-95100000D01*
X144450000Y-107000000D02*
X144699992Y-107000000D01*
X144699992Y-107000000D02*
X144700000Y-107000008D01*
X147777346Y-100572654D02*
X149609158Y-100572654D01*
X137400000Y-100100000D02*
X137800000Y-99700000D01*
X147700000Y-100650000D02*
X147777346Y-100572654D01*
X137200000Y-101450000D02*
X137200000Y-100300000D01*
X146250000Y-95250000D02*
X148050000Y-95250000D01*
X148250000Y-95050000D02*
X148200000Y-95100000D01*
X149609158Y-100572654D02*
X149800004Y-100763500D01*
X146650000Y-103550000D02*
X146650000Y-104075000D01*
X136633300Y-108083300D02*
X136633300Y-100866700D01*
X137900000Y-102895000D02*
X137900000Y-102150000D01*
X138923800Y-108576200D02*
X137126200Y-108576200D01*
X137200000Y-100300000D02*
X137400000Y-100100000D01*
X139450000Y-106405000D02*
X139450000Y-108050000D01*
D37*
%TO.N,/RESET*%
X137720000Y-107886542D02*
X137700000Y-107906542D01*
X162479996Y-93350000D02*
X161530000Y-94299996D01*
X161529996Y-94300000D02*
X151250000Y-94300000D01*
X161530000Y-94299996D02*
X161529996Y-94300000D01*
X137720000Y-106950000D02*
X137575000Y-106805000D01*
X162750000Y-93350000D02*
X162479996Y-93350000D01*
X137575000Y-106805000D02*
X137575000Y-105780000D01*
X137720000Y-106950000D02*
X137720000Y-107886542D01*
%TO.N,Net-(J1-Pin_18)*%
X144800000Y-110649582D02*
X144800000Y-109394813D01*
X144205187Y-108800000D02*
X141629510Y-108800000D01*
X141629510Y-108800000D02*
X140245500Y-107415990D01*
X140254000Y-105412500D02*
X140716500Y-104950000D01*
X144800000Y-109394813D02*
X144205187Y-108800000D01*
X158870000Y-112500000D02*
X157724000Y-111354000D01*
X145504418Y-111354000D02*
X144800000Y-110649582D01*
X157724000Y-111354000D02*
X145504418Y-111354000D01*
X140245500Y-107415990D02*
X140245500Y-106584010D01*
X140254000Y-106575510D02*
X140254000Y-105412500D01*
X140716500Y-104950000D02*
X141675300Y-104950000D01*
X140245500Y-106584010D02*
X140254000Y-106575510D01*
%TO.N,Net-(J1-Pin_20)*%
X145054000Y-109289603D02*
X144310397Y-108546000D01*
X140499500Y-107310780D02*
X140499500Y-106689220D01*
X141734720Y-108546000D02*
X140499500Y-107310780D01*
X161410000Y-112500000D02*
X160010000Y-111100000D01*
X145609628Y-111100000D02*
X145054000Y-110544372D01*
X144310397Y-108546000D02*
X141734720Y-108546000D01*
X140508000Y-105642000D02*
X140800001Y-105349999D01*
X140800001Y-105349999D02*
X141675300Y-105349999D01*
X145054000Y-110544372D02*
X145054000Y-109289603D01*
X160010000Y-111100000D02*
X145609628Y-111100000D01*
X140508000Y-106680720D02*
X140508000Y-105642000D01*
X140499500Y-106689220D02*
X140508000Y-106680720D01*
%TO.N,Net-(J1-Pin_8)*%
X139991500Y-105108500D02*
X140549999Y-104550001D01*
X139991500Y-110591500D02*
X139991500Y-105108500D01*
X140549999Y-104550001D02*
X141675300Y-104550001D01*
X146170000Y-112500000D02*
X144816000Y-111146000D01*
X140546000Y-111146000D02*
X139991500Y-110591500D01*
X144816000Y-111146000D02*
X140546000Y-111146000D01*
%TO.N,Net-(J1-Pin_6)*%
X142530000Y-111400000D02*
X140440790Y-111400000D01*
X140440790Y-111400000D02*
X139737500Y-110696710D01*
X140568421Y-104149999D02*
X141675300Y-104149999D01*
X139737500Y-110696710D02*
X139737500Y-104980920D01*
X139737500Y-104980920D02*
X140568421Y-104149999D01*
X143630000Y-112500000D02*
X142530000Y-111400000D01*
%TO.N,/USB_D+*%
X156200000Y-103250000D02*
X156200000Y-105700000D01*
X156200000Y-105700000D02*
X156600000Y-106100000D01*
X143942495Y-96573818D02*
X144242800Y-96273513D01*
X144242800Y-97273513D02*
X144242800Y-95880660D01*
X156600000Y-106100000D02*
X156600000Y-106300000D01*
X144242800Y-96273513D02*
X144242800Y-95880660D01*
X143942495Y-97573818D02*
X144242800Y-97273513D01*
X144242800Y-95880660D02*
X144448757Y-95674703D01*
X156550000Y-102900000D02*
X156200000Y-103250000D01*
X143367496Y-97573818D02*
X143942495Y-97573818D01*
X143367496Y-96573818D02*
X143942495Y-96573818D01*
%TO.N,Net-(J2-CC1)*%
X144650000Y-94350000D02*
X145540000Y-93460000D01*
X144650000Y-94779788D02*
X144650000Y-94350000D01*
X143367496Y-95573818D02*
X143855970Y-95573818D01*
X143855970Y-95573818D02*
X144650000Y-94779788D01*
X145540000Y-93460000D02*
X145600000Y-93460000D01*
%TO.N,/USB_D-*%
X142500000Y-96763498D02*
X142810320Y-97073818D01*
X142300000Y-95700000D02*
X142673818Y-96073818D01*
X142300000Y-95700000D02*
X142500000Y-95900000D01*
X142673818Y-96073818D02*
X143367496Y-96073818D01*
X155750000Y-102900000D02*
X155750000Y-106300000D01*
X142810320Y-97073818D02*
X143367496Y-97073818D01*
X142500000Y-95900000D02*
X142500000Y-96763498D01*
%TO.N,Net-(J2-CC2)*%
X143367496Y-98573818D02*
X143942495Y-98573818D01*
X144939256Y-94460744D02*
X145350000Y-94050000D01*
X144533300Y-97983013D02*
X144533300Y-96750136D01*
X143942495Y-98573818D02*
X144533300Y-97983013D01*
X145895001Y-94050000D02*
X146485001Y-93460000D01*
X144939256Y-96344180D02*
X144939256Y-94460744D01*
X145350000Y-94050000D02*
X145895001Y-94050000D01*
X146485001Y-93460000D02*
X146805000Y-93460000D01*
X144533300Y-96750136D02*
X144939256Y-96344180D01*
%TO.N,/SD_CMD*%
X161500000Y-104200000D02*
X160399480Y-104200000D01*
X139100000Y-103860000D02*
X141300000Y-101660000D01*
X141300000Y-101660000D02*
X141300000Y-98595000D01*
X160399480Y-104200000D02*
X159600000Y-104999480D01*
X138825000Y-103860000D02*
X139100000Y-103860000D01*
X162750000Y-105250000D02*
X162550000Y-105250000D01*
X162550000Y-105250000D02*
X161500000Y-104200000D01*
%TO.N,/SD_D2*%
X137333400Y-102375000D02*
X136900000Y-102808400D01*
X156912291Y-105612291D02*
X159512291Y-105612291D01*
X157350000Y-102900000D02*
X156650000Y-103600000D01*
X160000000Y-106100000D02*
X160000000Y-106300000D01*
X136900000Y-102808400D02*
X136900000Y-103460000D01*
X136900000Y-103460000D02*
X137300000Y-103860000D01*
X156650000Y-105350000D02*
X156912291Y-105612291D01*
X137300000Y-103860000D02*
X137575000Y-103860000D01*
X159512291Y-105612291D02*
X160000000Y-106100000D01*
X156650000Y-103600000D02*
X156650000Y-105350000D01*
%TO.N,/SD_D3*%
X140650000Y-101395000D02*
X140650000Y-98145006D01*
X160850000Y-105450000D02*
X160400000Y-105000000D01*
X140650000Y-98145006D02*
X141300006Y-97495000D01*
X138825000Y-103220000D02*
X140650000Y-101395000D01*
X160850000Y-106300000D02*
X160850000Y-105450000D01*
%TO.N,/SD_D0*%
X138825000Y-104500000D02*
X139100000Y-104500000D01*
X139100000Y-104500000D02*
X140900000Y-102700000D01*
X140900000Y-102700000D02*
X141300006Y-102700000D01*
X159557572Y-103444751D02*
X158000000Y-105002323D01*
X162644751Y-103444751D02*
X159557572Y-103444751D01*
X162750000Y-103550000D02*
X162644751Y-103444751D01*
%TO.N,/SD_DET*%
X159700000Y-99900000D02*
X161650000Y-101850000D01*
X156950000Y-95150000D02*
X159700000Y-97900000D01*
X159700000Y-97900000D02*
X159700000Y-99900000D01*
X150650000Y-95300000D02*
X150800000Y-95150000D01*
X161650000Y-101850000D02*
X162750000Y-101850000D01*
X150800000Y-95150000D02*
X156950000Y-95150000D01*
%TO.N,/SD_D1*%
X159099992Y-103100000D02*
X157199996Y-104999996D01*
X162200000Y-103100000D02*
X159099992Y-103100000D01*
X139139605Y-105140000D02*
X140679605Y-103600000D01*
X138825000Y-105140000D02*
X139139605Y-105140000D01*
X162600000Y-102700000D02*
X162200000Y-103100000D01*
X162750000Y-102700000D02*
X162600000Y-102700000D01*
X140679605Y-103600000D02*
X141299986Y-103600000D01*
%TO.N,/SD_CLK*%
X162550000Y-104400000D02*
X161950000Y-103800000D01*
X160000000Y-103800000D02*
X158800000Y-105000000D01*
X162750000Y-104400000D02*
X162550000Y-104400000D01*
X161950000Y-103800000D02*
X160000000Y-103800000D01*
%TO.N,/PB7*%
X146180569Y-107652500D02*
X151197500Y-107652500D01*
X143224700Y-105349999D02*
X143878068Y-105349999D01*
X151197500Y-107652500D02*
X152350000Y-106500000D01*
X143878068Y-105349999D02*
X146180569Y-107652500D01*
X152350000Y-106500000D02*
X152350000Y-106300000D01*
%TO.N,/PB0*%
X149800000Y-106431000D02*
X149800000Y-106300000D01*
X149340500Y-106890500D02*
X149340500Y-106884000D01*
X149340500Y-106884000D02*
X149347000Y-106884000D01*
X143224700Y-104149999D02*
X143755698Y-104149999D01*
X149347000Y-106884000D02*
X149800000Y-106431000D01*
X143755698Y-104149999D02*
X146496199Y-106890500D01*
X146496199Y-106890500D02*
X149340500Y-106890500D01*
%TO.N,/PB1*%
X143796490Y-104550001D02*
X146390989Y-107144500D01*
X146390989Y-107144500D02*
X150005500Y-107144500D01*
X150005500Y-107144500D02*
X150650000Y-106500000D01*
X143224700Y-104550001D02*
X143796490Y-104550001D01*
X150650000Y-106500000D02*
X150650000Y-106300000D01*
%TO.N,/BOOT*%
X148750000Y-95900000D02*
X149300000Y-95900000D01*
X160000000Y-98370000D02*
X161530000Y-99900000D01*
X149300000Y-95900000D02*
X150400000Y-94800000D01*
X157000000Y-94800000D02*
X160000000Y-97800000D01*
X160000000Y-97800000D02*
X160000000Y-98370000D01*
X150400000Y-94800000D02*
X157000000Y-94800000D01*
%TO.N,/PB6*%
X146285779Y-107398500D02*
X150601500Y-107398500D01*
X143837279Y-104950000D02*
X146285779Y-107398500D01*
X143224700Y-104950000D02*
X143837279Y-104950000D01*
X150601500Y-107398500D02*
X151500000Y-106500000D01*
X151500000Y-106500000D02*
X151500000Y-106300000D01*
D36*
%TO.N,Net-(D1-K)*%
X146650000Y-100100000D02*
X146650000Y-100600000D01*
X145798000Y-99900000D02*
X146450000Y-99900000D01*
X145713500Y-99984500D02*
X145798000Y-99900000D01*
X145650000Y-100048000D02*
X145713500Y-99984500D01*
X146435608Y-96725000D02*
X146435608Y-97989392D01*
X146435608Y-97989392D02*
X145375000Y-99050000D01*
X145650000Y-100600000D02*
X145650000Y-100048000D01*
X146450000Y-99900000D02*
X146650000Y-100100000D01*
X145375000Y-99050000D02*
X145375000Y-99477000D01*
X145375000Y-99477000D02*
X145798000Y-99900000D01*
%TO.N,+5V_BBC*%
X144375000Y-103125000D02*
X144700000Y-102800000D01*
X144700000Y-102800000D02*
X144700000Y-98600000D01*
X140970000Y-107070000D02*
X140970000Y-107000000D01*
X140970000Y-105880000D02*
X140970000Y-107000000D01*
X141099999Y-105750001D02*
X140970000Y-105880000D01*
X141675300Y-105750001D02*
X141099999Y-105750001D01*
X141800000Y-107900000D02*
X140970000Y-107070000D01*
X144700000Y-98600000D02*
X145385608Y-97914392D01*
X145385608Y-97914392D02*
X145385608Y-97375000D01*
%TO.N,+5V_USB*%
X142133300Y-96547719D02*
X142133300Y-98564621D01*
X144420600Y-98472884D02*
X144420600Y-98879400D01*
X144420600Y-98879400D02*
X144076182Y-99223818D01*
X145385608Y-96274999D02*
X144800000Y-96860607D01*
X143367496Y-94423818D02*
X142792497Y-94423818D01*
X144800000Y-98093484D02*
X144420600Y-98472884D01*
X141736500Y-96150919D02*
X142133300Y-96547719D01*
X144800000Y-96860607D02*
X144800000Y-98093484D01*
X141736500Y-95479815D02*
X141736500Y-96150919D01*
X142133300Y-98564621D02*
X142792497Y-99223818D01*
X142792497Y-94423818D02*
X141736500Y-95479815D01*
X144076182Y-99223818D02*
X143367496Y-99223818D01*
X145385608Y-96075000D02*
X145385608Y-96274999D01*
X142792497Y-99223818D02*
X143367496Y-99223818D01*
%TD*%
M02*
