%TF.GenerationSoftware,KiCad,Pcbnew,8.0.4*%
%TF.CreationDate,2024-07-26T12:29:51+01:00*%
%TF.ProjectId,beeb_wifiport,62656562-5f77-4696-9669-706f72742e6b,rev?*%
%TF.SameCoordinates,Original*%
%TF.FileFunction,Legend,Bot*%
%TF.FilePolarity,Positive*%
%FSLAX46Y46*%
G04 Gerber Fmt 4.6, Leading zero omitted, Abs format (unit mm)*
G04 Created by KiCad (PCBNEW 8.0.4) date 2024-07-26 12:29:51*
%MOMM*%
%LPD*%
G01*
G04 APERTURE LIST*
%ADD10C,0.100000*%
%ADD11C,0.152400*%
%ADD12C,0.200000*%
%ADD13C,0.120000*%
G04 APERTURE END LIST*
D10*
X138550000Y-108700000D02*
X138100000Y-108150000D01*
X139000000Y-108150000D01*
X138550000Y-108700000D01*
G36*
X138550000Y-108700000D02*
G01*
X138100000Y-108150000D01*
X139000000Y-108150000D01*
X138550000Y-108700000D01*
G37*
D11*
X161253569Y-87795987D02*
X161089283Y-87850749D01*
X161089283Y-87850749D02*
X161034521Y-87905511D01*
X161034521Y-87905511D02*
X160979759Y-88015035D01*
X160979759Y-88015035D02*
X160979759Y-88179321D01*
X160979759Y-88179321D02*
X161034521Y-88288845D01*
X161034521Y-88288845D02*
X161089283Y-88343607D01*
X161089283Y-88343607D02*
X161198807Y-88398368D01*
X161198807Y-88398368D02*
X161636902Y-88398368D01*
X161636902Y-88398368D02*
X161636902Y-87248368D01*
X161636902Y-87248368D02*
X161253569Y-87248368D01*
X161253569Y-87248368D02*
X161144045Y-87303130D01*
X161144045Y-87303130D02*
X161089283Y-87357892D01*
X161089283Y-87357892D02*
X161034521Y-87467416D01*
X161034521Y-87467416D02*
X161034521Y-87576940D01*
X161034521Y-87576940D02*
X161089283Y-87686464D01*
X161089283Y-87686464D02*
X161144045Y-87741226D01*
X161144045Y-87741226D02*
X161253569Y-87795987D01*
X161253569Y-87795987D02*
X161636902Y-87795987D01*
X160048807Y-88343607D02*
X160158331Y-88398368D01*
X160158331Y-88398368D02*
X160377378Y-88398368D01*
X160377378Y-88398368D02*
X160486902Y-88343607D01*
X160486902Y-88343607D02*
X160541664Y-88234083D01*
X160541664Y-88234083D02*
X160541664Y-87795987D01*
X160541664Y-87795987D02*
X160486902Y-87686464D01*
X160486902Y-87686464D02*
X160377378Y-87631702D01*
X160377378Y-87631702D02*
X160158331Y-87631702D01*
X160158331Y-87631702D02*
X160048807Y-87686464D01*
X160048807Y-87686464D02*
X159994045Y-87795987D01*
X159994045Y-87795987D02*
X159994045Y-87905511D01*
X159994045Y-87905511D02*
X160541664Y-88015035D01*
X159063093Y-88343607D02*
X159172617Y-88398368D01*
X159172617Y-88398368D02*
X159391664Y-88398368D01*
X159391664Y-88398368D02*
X159501188Y-88343607D01*
X159501188Y-88343607D02*
X159555950Y-88234083D01*
X159555950Y-88234083D02*
X159555950Y-87795987D01*
X159555950Y-87795987D02*
X159501188Y-87686464D01*
X159501188Y-87686464D02*
X159391664Y-87631702D01*
X159391664Y-87631702D02*
X159172617Y-87631702D01*
X159172617Y-87631702D02*
X159063093Y-87686464D01*
X159063093Y-87686464D02*
X159008331Y-87795987D01*
X159008331Y-87795987D02*
X159008331Y-87905511D01*
X159008331Y-87905511D02*
X159555950Y-88015035D01*
X158515474Y-88398368D02*
X158515474Y-87248368D01*
X158515474Y-87686464D02*
X158405950Y-87631702D01*
X158405950Y-87631702D02*
X158186903Y-87631702D01*
X158186903Y-87631702D02*
X158077379Y-87686464D01*
X158077379Y-87686464D02*
X158022617Y-87741226D01*
X158022617Y-87741226D02*
X157967855Y-87850749D01*
X157967855Y-87850749D02*
X157967855Y-88179321D01*
X157967855Y-88179321D02*
X158022617Y-88288845D01*
X158022617Y-88288845D02*
X158077379Y-88343607D01*
X158077379Y-88343607D02*
X158186903Y-88398368D01*
X158186903Y-88398368D02*
X158405950Y-88398368D01*
X158405950Y-88398368D02*
X158515474Y-88343607D01*
X156708332Y-87248368D02*
X156434522Y-88398368D01*
X156434522Y-88398368D02*
X156215475Y-87576940D01*
X156215475Y-87576940D02*
X155996427Y-88398368D01*
X155996427Y-88398368D02*
X155722618Y-87248368D01*
X155284522Y-88398368D02*
X155284522Y-87631702D01*
X155284522Y-87248368D02*
X155339284Y-87303130D01*
X155339284Y-87303130D02*
X155284522Y-87357892D01*
X155284522Y-87357892D02*
X155229760Y-87303130D01*
X155229760Y-87303130D02*
X155284522Y-87248368D01*
X155284522Y-87248368D02*
X155284522Y-87357892D01*
X154353570Y-87795987D02*
X154736903Y-87795987D01*
X154736903Y-88398368D02*
X154736903Y-87248368D01*
X154736903Y-87248368D02*
X154189284Y-87248368D01*
X153751189Y-88398368D02*
X153751189Y-87631702D01*
X153751189Y-87248368D02*
X153805951Y-87303130D01*
X153805951Y-87303130D02*
X153751189Y-87357892D01*
X153751189Y-87357892D02*
X153696427Y-87303130D01*
X153696427Y-87303130D02*
X153751189Y-87248368D01*
X153751189Y-87248368D02*
X153751189Y-87357892D01*
X153203570Y-88398368D02*
X153203570Y-87248368D01*
X153203570Y-87248368D02*
X152765475Y-87248368D01*
X152765475Y-87248368D02*
X152655951Y-87303130D01*
X152655951Y-87303130D02*
X152601189Y-87357892D01*
X152601189Y-87357892D02*
X152546427Y-87467416D01*
X152546427Y-87467416D02*
X152546427Y-87631702D01*
X152546427Y-87631702D02*
X152601189Y-87741226D01*
X152601189Y-87741226D02*
X152655951Y-87795987D01*
X152655951Y-87795987D02*
X152765475Y-87850749D01*
X152765475Y-87850749D02*
X153203570Y-87850749D01*
X151889284Y-88398368D02*
X151998808Y-88343607D01*
X151998808Y-88343607D02*
X152053570Y-88288845D01*
X152053570Y-88288845D02*
X152108332Y-88179321D01*
X152108332Y-88179321D02*
X152108332Y-87850749D01*
X152108332Y-87850749D02*
X152053570Y-87741226D01*
X152053570Y-87741226D02*
X151998808Y-87686464D01*
X151998808Y-87686464D02*
X151889284Y-87631702D01*
X151889284Y-87631702D02*
X151724999Y-87631702D01*
X151724999Y-87631702D02*
X151615475Y-87686464D01*
X151615475Y-87686464D02*
X151560713Y-87741226D01*
X151560713Y-87741226D02*
X151505951Y-87850749D01*
X151505951Y-87850749D02*
X151505951Y-88179321D01*
X151505951Y-88179321D02*
X151560713Y-88288845D01*
X151560713Y-88288845D02*
X151615475Y-88343607D01*
X151615475Y-88343607D02*
X151724999Y-88398368D01*
X151724999Y-88398368D02*
X151889284Y-88398368D01*
X151013094Y-88398368D02*
X151013094Y-87631702D01*
X151013094Y-87850749D02*
X150958332Y-87741226D01*
X150958332Y-87741226D02*
X150903570Y-87686464D01*
X150903570Y-87686464D02*
X150794046Y-87631702D01*
X150794046Y-87631702D02*
X150684523Y-87631702D01*
X150465475Y-87631702D02*
X150027379Y-87631702D01*
X150301189Y-87248368D02*
X150301189Y-88234083D01*
X150301189Y-88234083D02*
X150246427Y-88343607D01*
X150246427Y-88343607D02*
X150136903Y-88398368D01*
X150136903Y-88398368D02*
X150027379Y-88398368D01*
X148603570Y-87905511D02*
X148658332Y-87960273D01*
X148658332Y-87960273D02*
X148603570Y-88015035D01*
X148603570Y-88015035D02*
X148548808Y-87960273D01*
X148548808Y-87960273D02*
X148603570Y-87905511D01*
X148603570Y-87905511D02*
X148603570Y-88015035D01*
X147179762Y-87248368D02*
X146522619Y-87248368D01*
X146851190Y-88398368D02*
X146851190Y-87248368D01*
X146139286Y-88398368D02*
X146139286Y-87631702D01*
X146139286Y-87248368D02*
X146194048Y-87303130D01*
X146194048Y-87303130D02*
X146139286Y-87357892D01*
X146139286Y-87357892D02*
X146084524Y-87303130D01*
X146084524Y-87303130D02*
X146139286Y-87248368D01*
X146139286Y-87248368D02*
X146139286Y-87357892D01*
X145591667Y-88398368D02*
X145591667Y-87631702D01*
X145591667Y-87741226D02*
X145536905Y-87686464D01*
X145536905Y-87686464D02*
X145427381Y-87631702D01*
X145427381Y-87631702D02*
X145263096Y-87631702D01*
X145263096Y-87631702D02*
X145153572Y-87686464D01*
X145153572Y-87686464D02*
X145098810Y-87795987D01*
X145098810Y-87795987D02*
X145098810Y-88398368D01*
X145098810Y-87795987D02*
X145044048Y-87686464D01*
X145044048Y-87686464D02*
X144934524Y-87631702D01*
X144934524Y-87631702D02*
X144770238Y-87631702D01*
X144770238Y-87631702D02*
X144660715Y-87686464D01*
X144660715Y-87686464D02*
X144605953Y-87795987D01*
X144605953Y-87795987D02*
X144605953Y-88398368D01*
X143182144Y-88398368D02*
X143182144Y-87248368D01*
X143182144Y-87795987D02*
X142525001Y-87795987D01*
X142525001Y-88398368D02*
X142525001Y-87248368D01*
X141484525Y-88398368D02*
X141484525Y-87795987D01*
X141484525Y-87795987D02*
X141539287Y-87686464D01*
X141539287Y-87686464D02*
X141648811Y-87631702D01*
X141648811Y-87631702D02*
X141867858Y-87631702D01*
X141867858Y-87631702D02*
X141977382Y-87686464D01*
X141484525Y-88343607D02*
X141594049Y-88398368D01*
X141594049Y-88398368D02*
X141867858Y-88398368D01*
X141867858Y-88398368D02*
X141977382Y-88343607D01*
X141977382Y-88343607D02*
X142032144Y-88234083D01*
X142032144Y-88234083D02*
X142032144Y-88124559D01*
X142032144Y-88124559D02*
X141977382Y-88015035D01*
X141977382Y-88015035D02*
X141867858Y-87960273D01*
X141867858Y-87960273D02*
X141594049Y-87960273D01*
X141594049Y-87960273D02*
X141484525Y-87905511D01*
X141046430Y-87631702D02*
X140827382Y-88398368D01*
X140827382Y-88398368D02*
X140608335Y-87850749D01*
X140608335Y-87850749D02*
X140389287Y-88398368D01*
X140389287Y-88398368D02*
X140170239Y-87631702D01*
X139294049Y-88343607D02*
X139403573Y-88398368D01*
X139403573Y-88398368D02*
X139622620Y-88398368D01*
X139622620Y-88398368D02*
X139732144Y-88343607D01*
X139732144Y-88343607D02*
X139786906Y-88234083D01*
X139786906Y-88234083D02*
X139786906Y-87795987D01*
X139786906Y-87795987D02*
X139732144Y-87686464D01*
X139732144Y-87686464D02*
X139622620Y-87631702D01*
X139622620Y-87631702D02*
X139403573Y-87631702D01*
X139403573Y-87631702D02*
X139294049Y-87686464D01*
X139294049Y-87686464D02*
X139239287Y-87795987D01*
X139239287Y-87795987D02*
X139239287Y-87905511D01*
X139239287Y-87905511D02*
X139786906Y-88015035D01*
X138801192Y-88343607D02*
X138691668Y-88398368D01*
X138691668Y-88398368D02*
X138472620Y-88398368D01*
X138472620Y-88398368D02*
X138363097Y-88343607D01*
X138363097Y-88343607D02*
X138308335Y-88234083D01*
X138308335Y-88234083D02*
X138308335Y-88179321D01*
X138308335Y-88179321D02*
X138363097Y-88069797D01*
X138363097Y-88069797D02*
X138472620Y-88015035D01*
X138472620Y-88015035D02*
X138636906Y-88015035D01*
X138636906Y-88015035D02*
X138746430Y-87960273D01*
X138746430Y-87960273D02*
X138801192Y-87850749D01*
X138801192Y-87850749D02*
X138801192Y-87795987D01*
X138801192Y-87795987D02*
X138746430Y-87686464D01*
X138746430Y-87686464D02*
X138636906Y-87631702D01*
X138636906Y-87631702D02*
X138472620Y-87631702D01*
X138472620Y-87631702D02*
X138363097Y-87686464D01*
X162841664Y-89483138D02*
X162403568Y-89483138D01*
X162677378Y-89099804D02*
X162677378Y-90085519D01*
X162677378Y-90085519D02*
X162622616Y-90195043D01*
X162622616Y-90195043D02*
X162513092Y-90249804D01*
X162513092Y-90249804D02*
X162403568Y-90249804D01*
X162020235Y-90249804D02*
X162020235Y-89483138D01*
X162020235Y-89099804D02*
X162074997Y-89154566D01*
X162074997Y-89154566D02*
X162020235Y-89209328D01*
X162020235Y-89209328D02*
X161965473Y-89154566D01*
X161965473Y-89154566D02*
X162020235Y-89099804D01*
X162020235Y-89099804D02*
X162020235Y-89209328D01*
X161472616Y-90249804D02*
X161472616Y-89483138D01*
X161472616Y-89592662D02*
X161417854Y-89537900D01*
X161417854Y-89537900D02*
X161308330Y-89483138D01*
X161308330Y-89483138D02*
X161144045Y-89483138D01*
X161144045Y-89483138D02*
X161034521Y-89537900D01*
X161034521Y-89537900D02*
X160979759Y-89647423D01*
X160979759Y-89647423D02*
X160979759Y-90249804D01*
X160979759Y-89647423D02*
X160924997Y-89537900D01*
X160924997Y-89537900D02*
X160815473Y-89483138D01*
X160815473Y-89483138D02*
X160651187Y-89483138D01*
X160651187Y-89483138D02*
X160541664Y-89537900D01*
X160541664Y-89537900D02*
X160486902Y-89647423D01*
X160486902Y-89647423D02*
X160486902Y-90249804D01*
X159939283Y-90249804D02*
X159939283Y-89099804D01*
X159446426Y-90249804D02*
X159446426Y-89647423D01*
X159446426Y-89647423D02*
X159501188Y-89537900D01*
X159501188Y-89537900D02*
X159610712Y-89483138D01*
X159610712Y-89483138D02*
X159774997Y-89483138D01*
X159774997Y-89483138D02*
X159884521Y-89537900D01*
X159884521Y-89537900D02*
X159939283Y-89592662D01*
X158405950Y-90249804D02*
X158405950Y-89647423D01*
X158405950Y-89647423D02*
X158460712Y-89537900D01*
X158460712Y-89537900D02*
X158570236Y-89483138D01*
X158570236Y-89483138D02*
X158789283Y-89483138D01*
X158789283Y-89483138D02*
X158898807Y-89537900D01*
X158405950Y-90195043D02*
X158515474Y-90249804D01*
X158515474Y-90249804D02*
X158789283Y-90249804D01*
X158789283Y-90249804D02*
X158898807Y-90195043D01*
X158898807Y-90195043D02*
X158953569Y-90085519D01*
X158953569Y-90085519D02*
X158953569Y-89975995D01*
X158953569Y-89975995D02*
X158898807Y-89866471D01*
X158898807Y-89866471D02*
X158789283Y-89811709D01*
X158789283Y-89811709D02*
X158515474Y-89811709D01*
X158515474Y-89811709D02*
X158405950Y-89756947D01*
X157967855Y-89483138D02*
X157748807Y-90249804D01*
X157748807Y-90249804D02*
X157529760Y-89702185D01*
X157529760Y-89702185D02*
X157310712Y-90249804D01*
X157310712Y-90249804D02*
X157091664Y-89483138D01*
X156215474Y-90195043D02*
X156324998Y-90249804D01*
X156324998Y-90249804D02*
X156544045Y-90249804D01*
X156544045Y-90249804D02*
X156653569Y-90195043D01*
X156653569Y-90195043D02*
X156708331Y-90085519D01*
X156708331Y-90085519D02*
X156708331Y-89647423D01*
X156708331Y-89647423D02*
X156653569Y-89537900D01*
X156653569Y-89537900D02*
X156544045Y-89483138D01*
X156544045Y-89483138D02*
X156324998Y-89483138D01*
X156324998Y-89483138D02*
X156215474Y-89537900D01*
X156215474Y-89537900D02*
X156160712Y-89647423D01*
X156160712Y-89647423D02*
X156160712Y-89756947D01*
X156160712Y-89756947D02*
X156708331Y-89866471D01*
X155722617Y-90195043D02*
X155613093Y-90249804D01*
X155613093Y-90249804D02*
X155394045Y-90249804D01*
X155394045Y-90249804D02*
X155284522Y-90195043D01*
X155284522Y-90195043D02*
X155229760Y-90085519D01*
X155229760Y-90085519D02*
X155229760Y-90030757D01*
X155229760Y-90030757D02*
X155284522Y-89921233D01*
X155284522Y-89921233D02*
X155394045Y-89866471D01*
X155394045Y-89866471D02*
X155558331Y-89866471D01*
X155558331Y-89866471D02*
X155667855Y-89811709D01*
X155667855Y-89811709D02*
X155722617Y-89702185D01*
X155722617Y-89702185D02*
X155722617Y-89647423D01*
X155722617Y-89647423D02*
X155667855Y-89537900D01*
X155667855Y-89537900D02*
X155558331Y-89483138D01*
X155558331Y-89483138D02*
X155394045Y-89483138D01*
X155394045Y-89483138D02*
X155284522Y-89537900D01*
X154736903Y-90140281D02*
X154682141Y-90195043D01*
X154682141Y-90195043D02*
X154736903Y-90249804D01*
X154736903Y-90249804D02*
X154791665Y-90195043D01*
X154791665Y-90195043D02*
X154736903Y-90140281D01*
X154736903Y-90140281D02*
X154736903Y-90249804D01*
X153696427Y-90195043D02*
X153805951Y-90249804D01*
X153805951Y-90249804D02*
X154024998Y-90249804D01*
X154024998Y-90249804D02*
X154134522Y-90195043D01*
X154134522Y-90195043D02*
X154189284Y-90140281D01*
X154189284Y-90140281D02*
X154244046Y-90030757D01*
X154244046Y-90030757D02*
X154244046Y-89702185D01*
X154244046Y-89702185D02*
X154189284Y-89592662D01*
X154189284Y-89592662D02*
X154134522Y-89537900D01*
X154134522Y-89537900D02*
X154024998Y-89483138D01*
X154024998Y-89483138D02*
X153805951Y-89483138D01*
X153805951Y-89483138D02*
X153696427Y-89537900D01*
X153039284Y-90249804D02*
X153148808Y-90195043D01*
X153148808Y-90195043D02*
X153203570Y-90140281D01*
X153203570Y-90140281D02*
X153258332Y-90030757D01*
X153258332Y-90030757D02*
X153258332Y-89702185D01*
X153258332Y-89702185D02*
X153203570Y-89592662D01*
X153203570Y-89592662D02*
X153148808Y-89537900D01*
X153148808Y-89537900D02*
X153039284Y-89483138D01*
X153039284Y-89483138D02*
X152874999Y-89483138D01*
X152874999Y-89483138D02*
X152765475Y-89537900D01*
X152765475Y-89537900D02*
X152710713Y-89592662D01*
X152710713Y-89592662D02*
X152655951Y-89702185D01*
X152655951Y-89702185D02*
X152655951Y-90030757D01*
X152655951Y-90030757D02*
X152710713Y-90140281D01*
X152710713Y-90140281D02*
X152765475Y-90195043D01*
X152765475Y-90195043D02*
X152874999Y-90249804D01*
X152874999Y-90249804D02*
X153039284Y-90249804D01*
X152163094Y-90249804D02*
X152163094Y-89483138D01*
X152163094Y-89592662D02*
X152108332Y-89537900D01*
X152108332Y-89537900D02*
X151998808Y-89483138D01*
X151998808Y-89483138D02*
X151834523Y-89483138D01*
X151834523Y-89483138D02*
X151724999Y-89537900D01*
X151724999Y-89537900D02*
X151670237Y-89647423D01*
X151670237Y-89647423D02*
X151670237Y-90249804D01*
X151670237Y-89647423D02*
X151615475Y-89537900D01*
X151615475Y-89537900D02*
X151505951Y-89483138D01*
X151505951Y-89483138D02*
X151341665Y-89483138D01*
X151341665Y-89483138D02*
X151232142Y-89537900D01*
X151232142Y-89537900D02*
X151177380Y-89647423D01*
X151177380Y-89647423D02*
X151177380Y-90249804D01*
X149808332Y-89045043D02*
X150794047Y-90523614D01*
X149534523Y-89483138D02*
X149315475Y-90249804D01*
X149315475Y-90249804D02*
X149096428Y-89702185D01*
X149096428Y-89702185D02*
X148877380Y-90249804D01*
X148877380Y-90249804D02*
X148658332Y-89483138D01*
X148220237Y-90249804D02*
X148220237Y-89483138D01*
X148220237Y-89099804D02*
X148274999Y-89154566D01*
X148274999Y-89154566D02*
X148220237Y-89209328D01*
X148220237Y-89209328D02*
X148165475Y-89154566D01*
X148165475Y-89154566D02*
X148220237Y-89099804D01*
X148220237Y-89099804D02*
X148220237Y-89209328D01*
X147836904Y-89483138D02*
X147398808Y-89483138D01*
X147672618Y-90249804D02*
X147672618Y-89264090D01*
X147672618Y-89264090D02*
X147617856Y-89154566D01*
X147617856Y-89154566D02*
X147508332Y-89099804D01*
X147508332Y-89099804D02*
X147398808Y-89099804D01*
X147015475Y-90249804D02*
X147015475Y-89483138D01*
X147015475Y-89099804D02*
X147070237Y-89154566D01*
X147070237Y-89154566D02*
X147015475Y-89209328D01*
X147015475Y-89209328D02*
X146960713Y-89154566D01*
X146960713Y-89154566D02*
X147015475Y-89099804D01*
X147015475Y-89099804D02*
X147015475Y-89209328D01*
X146467856Y-89483138D02*
X146467856Y-90633138D01*
X146467856Y-89537900D02*
X146358332Y-89483138D01*
X146358332Y-89483138D02*
X146139285Y-89483138D01*
X146139285Y-89483138D02*
X146029761Y-89537900D01*
X146029761Y-89537900D02*
X145974999Y-89592662D01*
X145974999Y-89592662D02*
X145920237Y-89702185D01*
X145920237Y-89702185D02*
X145920237Y-90030757D01*
X145920237Y-90030757D02*
X145974999Y-90140281D01*
X145974999Y-90140281D02*
X146029761Y-90195043D01*
X146029761Y-90195043D02*
X146139285Y-90249804D01*
X146139285Y-90249804D02*
X146358332Y-90249804D01*
X146358332Y-90249804D02*
X146467856Y-90195043D01*
X145263094Y-90249804D02*
X145372618Y-90195043D01*
X145372618Y-90195043D02*
X145427380Y-90140281D01*
X145427380Y-90140281D02*
X145482142Y-90030757D01*
X145482142Y-90030757D02*
X145482142Y-89702185D01*
X145482142Y-89702185D02*
X145427380Y-89592662D01*
X145427380Y-89592662D02*
X145372618Y-89537900D01*
X145372618Y-89537900D02*
X145263094Y-89483138D01*
X145263094Y-89483138D02*
X145098809Y-89483138D01*
X145098809Y-89483138D02*
X144989285Y-89537900D01*
X144989285Y-89537900D02*
X144934523Y-89592662D01*
X144934523Y-89592662D02*
X144879761Y-89702185D01*
X144879761Y-89702185D02*
X144879761Y-90030757D01*
X144879761Y-90030757D02*
X144934523Y-90140281D01*
X144934523Y-90140281D02*
X144989285Y-90195043D01*
X144989285Y-90195043D02*
X145098809Y-90249804D01*
X145098809Y-90249804D02*
X145263094Y-90249804D01*
X144386904Y-90249804D02*
X144386904Y-89483138D01*
X144386904Y-89702185D02*
X144332142Y-89592662D01*
X144332142Y-89592662D02*
X144277380Y-89537900D01*
X144277380Y-89537900D02*
X144167856Y-89483138D01*
X144167856Y-89483138D02*
X144058333Y-89483138D01*
X143839285Y-89483138D02*
X143401189Y-89483138D01*
X143674999Y-89099804D02*
X143674999Y-90085519D01*
X143674999Y-90085519D02*
X143620237Y-90195043D01*
X143620237Y-90195043D02*
X143510713Y-90249804D01*
X143510713Y-90249804D02*
X143401189Y-90249804D01*
X141977380Y-89756947D02*
X142032142Y-89811709D01*
X142032142Y-89811709D02*
X141977380Y-89866471D01*
X141977380Y-89866471D02*
X141922618Y-89811709D01*
X141922618Y-89811709D02*
X141977380Y-89756947D01*
X141977380Y-89756947D02*
X141977380Y-89866471D01*
X140498810Y-89483138D02*
X140225000Y-90249804D01*
X140225000Y-90249804D02*
X139951191Y-89483138D01*
X138910715Y-90249804D02*
X139567858Y-90249804D01*
X139239286Y-90249804D02*
X139239286Y-89099804D01*
X139239286Y-89099804D02*
X139348810Y-89264090D01*
X139348810Y-89264090D02*
X139458334Y-89373614D01*
X139458334Y-89373614D02*
X139567858Y-89428376D01*
X138417858Y-90140281D02*
X138363096Y-90195043D01*
X138363096Y-90195043D02*
X138417858Y-90249804D01*
X138417858Y-90249804D02*
X138472620Y-90195043D01*
X138472620Y-90195043D02*
X138417858Y-90140281D01*
X138417858Y-90140281D02*
X138417858Y-90249804D01*
X137651191Y-89099804D02*
X137541668Y-89099804D01*
X137541668Y-89099804D02*
X137432144Y-89154566D01*
X137432144Y-89154566D02*
X137377382Y-89209328D01*
X137377382Y-89209328D02*
X137322620Y-89318852D01*
X137322620Y-89318852D02*
X137267858Y-89537900D01*
X137267858Y-89537900D02*
X137267858Y-89811709D01*
X137267858Y-89811709D02*
X137322620Y-90030757D01*
X137322620Y-90030757D02*
X137377382Y-90140281D01*
X137377382Y-90140281D02*
X137432144Y-90195043D01*
X137432144Y-90195043D02*
X137541668Y-90249804D01*
X137541668Y-90249804D02*
X137651191Y-90249804D01*
X137651191Y-90249804D02*
X137760715Y-90195043D01*
X137760715Y-90195043D02*
X137815477Y-90140281D01*
X137815477Y-90140281D02*
X137870239Y-90030757D01*
X137870239Y-90030757D02*
X137925001Y-89811709D01*
X137925001Y-89811709D02*
X137925001Y-89537900D01*
X137925001Y-89537900D02*
X137870239Y-89318852D01*
X137870239Y-89318852D02*
X137815477Y-89209328D01*
X137815477Y-89209328D02*
X137760715Y-89154566D01*
X137760715Y-89154566D02*
X137651191Y-89099804D01*
D12*
X159652219Y-92847618D02*
X159176028Y-92514285D01*
X159652219Y-92276190D02*
X158652219Y-92276190D01*
X158652219Y-92276190D02*
X158652219Y-92657142D01*
X158652219Y-92657142D02*
X158699838Y-92752380D01*
X158699838Y-92752380D02*
X158747457Y-92799999D01*
X158747457Y-92799999D02*
X158842695Y-92847618D01*
X158842695Y-92847618D02*
X158985552Y-92847618D01*
X158985552Y-92847618D02*
X159080790Y-92799999D01*
X159080790Y-92799999D02*
X159128409Y-92752380D01*
X159128409Y-92752380D02*
X159176028Y-92657142D01*
X159176028Y-92657142D02*
X159176028Y-92276190D01*
X159128409Y-93276190D02*
X159128409Y-93609523D01*
X159652219Y-93752380D02*
X159652219Y-93276190D01*
X159652219Y-93276190D02*
X158652219Y-93276190D01*
X158652219Y-93276190D02*
X158652219Y-93752380D01*
X159604600Y-94133333D02*
X159652219Y-94276190D01*
X159652219Y-94276190D02*
X159652219Y-94514285D01*
X159652219Y-94514285D02*
X159604600Y-94609523D01*
X159604600Y-94609523D02*
X159556980Y-94657142D01*
X159556980Y-94657142D02*
X159461742Y-94704761D01*
X159461742Y-94704761D02*
X159366504Y-94704761D01*
X159366504Y-94704761D02*
X159271266Y-94657142D01*
X159271266Y-94657142D02*
X159223647Y-94609523D01*
X159223647Y-94609523D02*
X159176028Y-94514285D01*
X159176028Y-94514285D02*
X159128409Y-94323809D01*
X159128409Y-94323809D02*
X159080790Y-94228571D01*
X159080790Y-94228571D02*
X159033171Y-94180952D01*
X159033171Y-94180952D02*
X158937933Y-94133333D01*
X158937933Y-94133333D02*
X158842695Y-94133333D01*
X158842695Y-94133333D02*
X158747457Y-94180952D01*
X158747457Y-94180952D02*
X158699838Y-94228571D01*
X158699838Y-94228571D02*
X158652219Y-94323809D01*
X158652219Y-94323809D02*
X158652219Y-94561904D01*
X158652219Y-94561904D02*
X158699838Y-94704761D01*
X159128409Y-95133333D02*
X159128409Y-95466666D01*
X159652219Y-95609523D02*
X159652219Y-95133333D01*
X159652219Y-95133333D02*
X158652219Y-95133333D01*
X158652219Y-95133333D02*
X158652219Y-95609523D01*
X158652219Y-95895238D02*
X158652219Y-96466666D01*
X159652219Y-96180952D02*
X158652219Y-96180952D01*
X159128409Y-98542857D02*
X159176028Y-98685714D01*
X159176028Y-98685714D02*
X159223647Y-98733333D01*
X159223647Y-98733333D02*
X159318885Y-98780952D01*
X159318885Y-98780952D02*
X159461742Y-98780952D01*
X159461742Y-98780952D02*
X159556980Y-98733333D01*
X159556980Y-98733333D02*
X159604600Y-98685714D01*
X159604600Y-98685714D02*
X159652219Y-98590476D01*
X159652219Y-98590476D02*
X159652219Y-98209524D01*
X159652219Y-98209524D02*
X158652219Y-98209524D01*
X158652219Y-98209524D02*
X158652219Y-98542857D01*
X158652219Y-98542857D02*
X158699838Y-98638095D01*
X158699838Y-98638095D02*
X158747457Y-98685714D01*
X158747457Y-98685714D02*
X158842695Y-98733333D01*
X158842695Y-98733333D02*
X158937933Y-98733333D01*
X158937933Y-98733333D02*
X159033171Y-98685714D01*
X159033171Y-98685714D02*
X159080790Y-98638095D01*
X159080790Y-98638095D02*
X159128409Y-98542857D01*
X159128409Y-98542857D02*
X159128409Y-98209524D01*
X158652219Y-99400000D02*
X158652219Y-99590476D01*
X158652219Y-99590476D02*
X158699838Y-99685714D01*
X158699838Y-99685714D02*
X158795076Y-99780952D01*
X158795076Y-99780952D02*
X158985552Y-99828571D01*
X158985552Y-99828571D02*
X159318885Y-99828571D01*
X159318885Y-99828571D02*
X159509361Y-99780952D01*
X159509361Y-99780952D02*
X159604600Y-99685714D01*
X159604600Y-99685714D02*
X159652219Y-99590476D01*
X159652219Y-99590476D02*
X159652219Y-99400000D01*
X159652219Y-99400000D02*
X159604600Y-99304762D01*
X159604600Y-99304762D02*
X159509361Y-99209524D01*
X159509361Y-99209524D02*
X159318885Y-99161905D01*
X159318885Y-99161905D02*
X158985552Y-99161905D01*
X158985552Y-99161905D02*
X158795076Y-99209524D01*
X158795076Y-99209524D02*
X158699838Y-99304762D01*
X158699838Y-99304762D02*
X158652219Y-99400000D01*
X158652219Y-100447619D02*
X158652219Y-100638095D01*
X158652219Y-100638095D02*
X158699838Y-100733333D01*
X158699838Y-100733333D02*
X158795076Y-100828571D01*
X158795076Y-100828571D02*
X158985552Y-100876190D01*
X158985552Y-100876190D02*
X159318885Y-100876190D01*
X159318885Y-100876190D02*
X159509361Y-100828571D01*
X159509361Y-100828571D02*
X159604600Y-100733333D01*
X159604600Y-100733333D02*
X159652219Y-100638095D01*
X159652219Y-100638095D02*
X159652219Y-100447619D01*
X159652219Y-100447619D02*
X159604600Y-100352381D01*
X159604600Y-100352381D02*
X159509361Y-100257143D01*
X159509361Y-100257143D02*
X159318885Y-100209524D01*
X159318885Y-100209524D02*
X158985552Y-100209524D01*
X158985552Y-100209524D02*
X158795076Y-100257143D01*
X158795076Y-100257143D02*
X158699838Y-100352381D01*
X158699838Y-100352381D02*
X158652219Y-100447619D01*
X158652219Y-101161905D02*
X158652219Y-101733333D01*
X159652219Y-101447619D02*
X158652219Y-101447619D01*
D13*
%TO.C,SW1*%
X160700000Y-96050000D02*
X160700000Y-92550000D01*
X160740000Y-92550000D02*
X160700000Y-92550000D01*
X160740000Y-92550000D02*
X160740000Y-91750000D01*
%TO.C,J3*%
X139930000Y-95770000D02*
X139930000Y-94910000D01*
X141750000Y-105610000D02*
X151570000Y-105610000D01*
X145750000Y-93430000D02*
X141300000Y-93430000D01*
X149450000Y-93430000D02*
X147150000Y-93430000D01*
X151570000Y-93430000D02*
X150850000Y-93430000D01*
X151570000Y-96110000D02*
X151570000Y-93430000D01*
X151570000Y-102080000D02*
X151570000Y-98410000D01*
X151570000Y-105610000D02*
X151570000Y-104380000D01*
%TO.C,SW2*%
X160700000Y-101650000D02*
X160700000Y-98150000D01*
X160740000Y-98150000D02*
X160700000Y-98150000D01*
X160740000Y-98150000D02*
X160740000Y-97350000D01*
%TD*%
M02*
