M48
; DRILL file {KiCad 8.0.4} date 2024-07-26T12:29:53+0100
; FORMAT={-:-/ absolute / inch / decimal}
; #@! TF.CreationDate,2024-07-26T12:29:53+01:00
; #@! TF.GenerationSoftware,Kicad,Pcbnew,8.0.4
; #@! TF.FileFunction,Plated,1,2,PTH
FMAT,2
INCH
; #@! TA.AperFunction,Plated,PTH,ViaDrill
T1C0.0118
; #@! TA.AperFunction,Plated,PTH,ComponentDrill
T2C0.0236
; #@! TA.AperFunction,Plated,PTH,ComponentDrill
T3C0.0394
%
G90
G05
T1
X5.4068Y-4.0305
X5.4213Y-4.2483
X5.4598Y-4.2483
X5.4803Y-3.9252
X5.563Y-4.0787
X5.563Y-3.8817
X5.563Y-3.8384
X5.563Y-4.0433
X5.5827Y-4.248
X5.6024Y-3.7677
X5.626Y-4.0748
X5.6841Y-4.06
X5.687Y-3.7667
X5.6969Y-4.2126
X5.7913Y-4.1654
X5.7933Y-3.8602
X5.8189Y-3.6339
X5.8917Y-4.1496
X5.8976Y-3.9671
X5.9311Y-3.752
X5.9547Y-3.7126
X5.9646Y-3.6732
X6.0315Y-3.6732
X6.0669Y-3.876
X6.0669Y-3.9429
X6.0984Y-3.6732
X6.0984Y-3.8445
X6.0984Y-3.9094
X6.0984Y-3.9744
X6.1319Y-3.876
X6.1319Y-3.9429
X6.1319Y-4.0512
X6.1634Y-3.8445
X6.1634Y-3.9114
X6.1634Y-3.9744
X6.1634Y-4.0512
X6.1654Y-3.6732
X6.189Y-4.1339
X6.1949Y-4.0512
X6.1969Y-3.876
X6.1969Y-3.9429
X6.2205Y-4.1339
X6.2283Y-3.7421
X6.2323Y-3.6732
X6.252Y-4.1339
X6.2835Y-4.1338
X6.2992Y-3.6732
X6.315Y-4.1339
X6.3594Y-3.7126
X6.3594Y-3.9331
X6.372Y-4.1496
T3
X5.4547Y-4.3291
X5.4547Y-4.4291
X5.5547Y-4.3291
X5.5547Y-4.4291
X5.6547Y-4.3291
X5.6547Y-4.4291
X5.7547Y-4.3291
X5.7547Y-4.4291
X5.8547Y-4.3291
X5.8547Y-4.4291
X5.9547Y-4.3291
X5.9547Y-4.4291
X6.0547Y-4.3291
X6.0547Y-4.4291
X6.1547Y-4.3291
X6.1547Y-4.4291
X6.2547Y-4.3291
X6.2547Y-4.4291
X6.3547Y-4.3291
X6.3547Y-4.4291
T2
G00X5.4729Y-3.6419
M15
G01X5.4414Y-3.6419
M16
G05
G00X5.4729Y-3.982
M15
G01X5.4414Y-3.982
M16
G05
G00X5.6434Y-3.6419
M15
G01X5.6001Y-3.6419
M16
G05
G00X5.6434Y-3.982
M15
G01X5.6001Y-3.982
M16
G05
M30
