%TF.GenerationSoftware,KiCad,Pcbnew,8.0.4*%
%TF.CreationDate,2024-07-26T12:29:51+01:00*%
%TF.ProjectId,beeb_wifiport,62656562-5f77-4696-9669-706f72742e6b,rev?*%
%TF.SameCoordinates,Original*%
%TF.FileFunction,Legend,Top*%
%TF.FilePolarity,Positive*%
%FSLAX46Y46*%
G04 Gerber Fmt 4.6, Leading zero omitted, Abs format (unit mm)*
G04 Created by KiCad (PCBNEW 8.0.4) date 2024-07-26 12:29:51*
%MOMM*%
%LPD*%
G01*
G04 APERTURE LIST*
%ADD10C,0.120000*%
%ADD11C,0.100000*%
%ADD12C,0.000000*%
G04 APERTURE END LIST*
D10*
%TO.C,C1*%
X146009420Y-98540000D02*
X146290580Y-98540000D01*
X146009420Y-99560000D02*
X146290580Y-99560000D01*
%TO.C,C5*%
X141557836Y-106640000D02*
X141342164Y-106640000D01*
X141557836Y-107360000D02*
X141342164Y-107360000D01*
%TO.C,C3*%
X146307836Y-94340000D02*
X146092164Y-94340000D01*
X146307836Y-95060000D02*
X146092164Y-95060000D01*
D11*
%TO.C,RN1*%
X137400000Y-102900000D02*
X139000000Y-102900000D01*
X139000000Y-106100000D02*
X137400000Y-106100000D01*
D10*
%TO.C,C4*%
X138092164Y-106590000D02*
X138307836Y-106590000D01*
X138092164Y-107310000D02*
X138307836Y-107310000D01*
%TO.C,U1*%
X147775000Y-93350000D02*
X147439000Y-93590000D01*
X147439000Y-93110000D01*
X147775000Y-93350000D01*
G36*
X147775000Y-93350000D02*
G01*
X147439000Y-93590000D01*
X147439000Y-93110000D01*
X147775000Y-93350000D01*
G37*
%TO.C,C2*%
X146290580Y-103840000D02*
X146009420Y-103840000D01*
X146290580Y-104860000D02*
X146009420Y-104860000D01*
%TO.C,R1*%
X145220000Y-93103641D02*
X145220000Y-92796359D01*
X145980000Y-93103641D02*
X145980000Y-92796359D01*
%TO.C,U3*%
X145040000Y-102675000D02*
X145040000Y-100675000D01*
X147260000Y-102675000D02*
X147260000Y-100675000D01*
X145330000Y-103415000D02*
X145050000Y-103135000D01*
X145330000Y-103135000D01*
X145330000Y-103415000D01*
G36*
X145330000Y-103415000D02*
G01*
X145050000Y-103135000D01*
X145330000Y-103135000D01*
X145330000Y-103415000D01*
G37*
D11*
%TO.C,U4*%
X141600000Y-103950000D02*
X143300000Y-103950000D01*
X141600000Y-105950000D02*
X143300000Y-105950000D01*
D12*
G36*
X140989500Y-105540499D02*
G01*
X140735500Y-105540499D01*
X140735500Y-105159499D01*
X140989500Y-105159499D01*
X140989500Y-105540499D01*
G37*
D10*
%TO.C,C6*%
X143342164Y-106640000D02*
X143557836Y-106640000D01*
X143342164Y-107360000D02*
X143557836Y-107360000D01*
%TO.C,R2*%
X146425000Y-92796359D02*
X146425000Y-93103641D01*
X147185000Y-92796359D02*
X147185000Y-93103641D01*
%TO.C,J2*%
X139787496Y-92153818D02*
X141487496Y-92153818D01*
X139787496Y-101493818D02*
X141487496Y-101493818D01*
%TO.C,D1*%
X147185608Y-95525000D02*
X145185608Y-95525000D01*
X147185608Y-97925000D02*
X145185608Y-97925000D01*
X144879392Y-96055000D02*
X144549392Y-96295000D01*
X144549392Y-95815000D01*
X144879392Y-96055000D01*
G36*
X144879392Y-96055000D02*
G01*
X144549392Y-96295000D01*
X144549392Y-95815000D01*
X144879392Y-96055000D01*
G37*
%TO.C,J1*%
X137220000Y-108850000D02*
X138550000Y-108850000D01*
X137220000Y-109960000D02*
X137220000Y-108850000D01*
X137220000Y-113960000D02*
X162740000Y-113960000D01*
X137220000Y-122590000D02*
X137220000Y-113960000D01*
X137220000Y-122590000D02*
X162740000Y-122590000D01*
X137340000Y-122590000D02*
X137340000Y-113960000D01*
X137458095Y-122590000D02*
X137458095Y-113960000D01*
X137576190Y-122590000D02*
X137576190Y-113960000D01*
X137694285Y-122590000D02*
X137694285Y-113960000D01*
X137812380Y-122590000D02*
X137812380Y-113960000D01*
X137930475Y-122590000D02*
X137930475Y-113960000D01*
X138048570Y-122590000D02*
X138048570Y-113960000D01*
X138166665Y-122590000D02*
X138166665Y-113960000D01*
X138190000Y-111450000D02*
X138190000Y-111070000D01*
X138190000Y-113960000D02*
X138190000Y-113550000D01*
X138284760Y-122590000D02*
X138284760Y-113960000D01*
X138402855Y-122590000D02*
X138402855Y-113960000D01*
X138520950Y-122590000D02*
X138520950Y-113960000D01*
X138639045Y-122590000D02*
X138639045Y-113960000D01*
X138757140Y-122590000D02*
X138757140Y-113960000D01*
X138875235Y-122590000D02*
X138875235Y-113960000D01*
X138910000Y-111450000D02*
X138910000Y-111070000D01*
X138910000Y-113960000D02*
X138910000Y-113550000D01*
X138993330Y-122590000D02*
X138993330Y-113960000D01*
X139111425Y-122590000D02*
X139111425Y-113960000D01*
X139229520Y-122590000D02*
X139229520Y-113960000D01*
X139347615Y-122590000D02*
X139347615Y-113960000D01*
X139465710Y-122590000D02*
X139465710Y-113960000D01*
X139583805Y-122590000D02*
X139583805Y-113960000D01*
X139701900Y-122590000D02*
X139701900Y-113960000D01*
X139820000Y-122590000D02*
X139820000Y-113960000D01*
X140730000Y-111450000D02*
X140730000Y-111010000D01*
X140730000Y-113960000D02*
X140730000Y-113550000D01*
X141450000Y-111450000D02*
X141450000Y-111010000D01*
X141450000Y-113960000D02*
X141450000Y-113550000D01*
X142360000Y-122590000D02*
X142360000Y-113960000D01*
X143270000Y-111450000D02*
X143270000Y-111010000D01*
X143270000Y-113960000D02*
X143270000Y-113550000D01*
X143990000Y-111450000D02*
X143990000Y-111010000D01*
X143990000Y-113960000D02*
X143990000Y-113550000D01*
X144900000Y-122590000D02*
X144900000Y-113960000D01*
X145810000Y-111450000D02*
X145810000Y-111010000D01*
X145810000Y-113960000D02*
X145810000Y-113550000D01*
X146530000Y-111450000D02*
X146530000Y-111010000D01*
X146530000Y-113960000D02*
X146530000Y-113550000D01*
X147440000Y-122590000D02*
X147440000Y-113960000D01*
X148350000Y-111450000D02*
X148350000Y-111010000D01*
X148350000Y-113960000D02*
X148350000Y-113550000D01*
X149070000Y-111450000D02*
X149070000Y-111010000D01*
X149070000Y-113960000D02*
X149070000Y-113550000D01*
X149980000Y-122590000D02*
X149980000Y-113960000D01*
X150890000Y-111450000D02*
X150890000Y-111010000D01*
X150890000Y-113960000D02*
X150890000Y-113550000D01*
X151610000Y-111450000D02*
X151610000Y-111010000D01*
X151610000Y-113960000D02*
X151610000Y-113550000D01*
X152520000Y-122590000D02*
X152520000Y-113960000D01*
X153430000Y-111450000D02*
X153430000Y-111010000D01*
X153430000Y-113960000D02*
X153430000Y-113550000D01*
X154150000Y-111450000D02*
X154150000Y-111010000D01*
X154150000Y-113960000D02*
X154150000Y-113550000D01*
X155060000Y-122590000D02*
X155060000Y-113960000D01*
X155970000Y-111450000D02*
X155970000Y-111010000D01*
X155970000Y-113960000D02*
X155970000Y-113550000D01*
X156690000Y-111450000D02*
X156690000Y-111010000D01*
X156690000Y-113960000D02*
X156690000Y-113550000D01*
X157600000Y-122590000D02*
X157600000Y-113960000D01*
X158510000Y-111450000D02*
X158510000Y-111010000D01*
X158510000Y-113960000D02*
X158510000Y-113550000D01*
X159230000Y-111450000D02*
X159230000Y-111010000D01*
X159230000Y-113960000D02*
X159230000Y-113550000D01*
X160140000Y-122590000D02*
X160140000Y-113960000D01*
X161050000Y-111450000D02*
X161050000Y-111010000D01*
X161050000Y-113960000D02*
X161050000Y-113550000D01*
X161770000Y-111450000D02*
X161770000Y-111010000D01*
X161770000Y-113960000D02*
X161770000Y-113550000D01*
X162740000Y-122590000D02*
X162740000Y-113960000D01*
%TD*%
M02*
